<?xml version="1.0" encoding="UTF-8"?>
<svg version="1.1" viewBox="0 0 2048 768" width="1280" height="1280" xmlns="http://www.w3.org/2000/svg">
<path transform="translate(1e3 363)" d="m0 0h129l5 5 11 12 9 11 13 14 7 8 12 14 12 13 9 11 13 14 7 8 9 10 7 8 12 14 12 13 9 11 13 14 7 8 12 14 11 12 7 8 1 3h-128l-11-11-7-8-22-24-6-6v-2l40-1-15-16-9-10-12-13-8-8-7-8-8-8-7-8-8-8-7-8-9-10-8-8-7-8-14-14v178l-4 1h-70z" fill="#0A76BD"/>
<path transform="translate(1e3 113)" d="m0 0h74v181l5-5 16-17 12-13 15-16 12-13 7-8 31-33 9-10 11-12 2-3h-42l18-21 13-15 12-13 2-2h130l-2 4-8 8-7 8-12 13-7 8-12 13-9 10-10 11-7 8-22 24-9 10-10 11-7 8-12 13-11 12-27 30-11 12-9 10-6 7-3 1h-126l-1-220z" fill="#0A76BD"/>
<path transform="translate(1316,362)" d="m0 0h74l1 121 7 7 9 11 10 11 3 4h196l12 1 14 15 7 7 7 8 15 16 14 15 5 5v2h-312l-12-12-7-8-10-11-7-8-14-15-9-10-3-4z" fill="#0A76BD"/>
<path transform="translate(1668,363)" d="m0 0h79l1 117 10 11 9 11 10 12h240l-2 5-19 28-25 37-1 1h-236l-8-8-7-8-8-8-7-8-7-7-7-8-12-13-7-7-3-4z" fill="#0A76BD"/>
<path transform="translate(1733,115)" d="m0 0h238l13 18 10 14 13 18 9 12 1 3-241 1-7 8-12 13-9 9-1 125h-79v-156z" fill="#0A76BD"/>
<path transform="translate(92,73)" d="m0 0h134l9 11 9 10 2 3h329l13-13 7-8 2-3h160l-1 3-37 17-36 16-32 15-29 13-35 16-9 4h-3v-35h-461l-8-16-14-31z" fill="#0A76BD"/>
<path transform="translate(248,525)" d="m0 0h3v36l5-1h344l112 1 8 16 13 29v3h-133l-9-10-9-11-4-4h-327l-9 10-12 13-1 2h-161v-2l21-10 68-31 36-16 39-18z" fill="#0A76BD"/>
<path transform="translate(198,655)" d="m0 0h410l11 9 17 12 28 21 1 2h-525v-2l14-10 38-28z" fill="#0A76BD"/>
<path transform="translate(861,115)" d="m0 0h100v221h-81l-1-179-13-30z" fill="#0A76BD"/>
<path transform="translate(880,366)" d="m0 0h80l1 5v216h-99l1-5 16-36z" fill="#0A76BD"/>
<path transform="translate(755,91)" d="m0 0h3v103l-21 14v250l19 13 2 2v134l-3-1-16-35-16-36-14-30-11-24-15-33-9-20v-3h30l5 1v-313l1-2 25-11z" fill="#0A76BD"/>
<path transform="translate(63,70)" d="m0 0 3 1 18 39 9 20 16 35 13 29 16 35 9 20v2h-35v313l-12 6-20 9-15 7h-2v-103l21-14 1-251-5-2-11-8-6-5z" fill="#0A76BD"/>
<path transform="translate(1389,115)" d="m0 0h1v220h-74v-140l9-9 7-8 12-13 7-8 14-15 9-10 10-11z" fill="#0A76BD"/>
<path transform="translate(258,590)" d="m0 0h314l5 5 9 10 7 9v2h-358l6-8 7-7 7-8z" fill="#0E79BE"/>
<path transform="translate(232,67)" d="m0 0h358l-6 8-8 8-7 8-1 1h-315l-9-10-9-11z" fill="#0A76BD"/>
<path transform="translate(764,200)" d="m0 0h1v268l-5-2-17-12v-240l15-10z" fill="#0A76BD"/>
<path transform="translate(57,209)" d="m0 0 4 2 16 11 1 240-11 8-8 6h-2z" fill="#0A77BE"/>
<path transform="translate(1e3 363)" d="m0 0h129l5 5 11 12 9 11 13 14 7 8 12 14 12 13 9 11 13 14 7 8 9 10 7 8 12 14 12 13 9 11 13 14 7 8 12 14 11 12 7 8 1 3h-128l-11-11-7-8-22-24-6-6v-2h41l-1 2h-34l3 5 16 17 9 11 8 8 4 5h121l-2-4-8-10-2-4h-2l-9-11-5-6-5-5-10-11-7-8-9-10-7-8-9-11-7-7-6-7v-2l-4-2-9-11-14-15-1-3h-2l-9-11-9-10-9-11-13-14-7-8-12-14-7-7-6-7-5-2h-118l-5 1-1 219h71v-177l2-2 1 2-1 178-4 1h-70z" fill="#1589CE"/>
<path transform="translate(1733,115)" d="m0 0h238l13 18 10 14 13 18 9 12 1 3h-241l2-2h235l-11-16-13-18-8-11-9-12-4-3-70-1h-25l-131 1-9 1-8 7-49 49-5 6-1 154h76l-1-38v-83l2-5 15-15 2 1-16 16-1 125h-79v-156z" fill="#1086CD"/>
<path transform="translate(1527,606)" d="m0 0h26l6 4 1 5-4 6-2 2h-4l6 12 4-4 10-15 7-10h13l3 13 3 15v5h-11l-2-3v-3l-12 1-4 5h-24l-6-12-2-1-3 12-1 1h-11l-1-3 7-29zm11 7-2 2v5l9-1 2-4-2-2zm42 4-5 8 2 2 6-1-1-8z" fill="#1589CF"/>
<path transform="translate(1316,427)" d="m0 0h2l1 90 14 15 9 10v2h2l7 8 11 12 9 10 6 7 5 1h302l-6-8-9-9-7-8-8-8-7-8-12-12-6-7-4-2-37-1h-167v-2l22-1h173l12 1 14 15 7 7 7 8 15 16 14 15 5 5v2h-312l-12-12-7-8-10-11-7-8-14-15-9-10-3-4z" fill="#0B84CD"/>
<path transform="translate(1668,363)" d="m0 0h79l1 117 10 11 9 11 11 13h-3l-5-4-8-11-11-13-5-6-1-4v-112h-71v2h-4l1 145 3 5 45 48 12 13 2 3 4 1 198 1v2h-201l-8-8-7-8-8-8-7-8-7-7-7-8-12-13-7-7-3-4z" fill="#2D95D3"/>
<path transform="translate(1370,606)" d="m0 0h11l-1 9-4 16 9-1h9l-1 6 7-9 7-11 7-10h13l3 13 3 14v6h-12l-1-5h-12l-4 5h-42l2-11 5-21zm47 11-5 8v1h8l-1-9z" fill="#1488CE"/>
<path transform="translate(63,70)" d="m0 0 3 1 18 39 9 20 6 14-3-1-7-15-14-31-7-14-2-1v121l11 8 9 6 1 2v249l-5 5-5 3-2-1 9-6 1-251-5-2-11-8-6-5zm10 406 2 1-9 8-1 98 18-8 3 1-21 10h-2v-103z" fill="#0B84CD"/>
<path transform="translate(92,73)" d="m0 0h134l9 11 9 10 2 3h329l12-12v3l-12 12h-328l-8-7-8-10-6-7-13-1h-116l5 13 11 24 3 6 3 2 48 1v1h-52l-8-16-14-31z" fill="#1A8BD0"/>
<path transform="translate(919,606)" d="m0 0h15l1 13 1 4 9-16 1-1h15l-1 8-6 24-1 1h-8l-1-3 4-17-10 18-2 2h-8l-1-1v-19h-2l-3 16-2 4h-8l-1-4 6-26z" fill="#1A8BD0"/>
<path transform="translate(1111,606)" d="m0 0h15v18l4-4 7-13 1-1h15l-1 8-5 22-2 3h-9l1-7 4-13-3 3-8 15-2 2h-7l-2-4v-17h-2l-2 12-3 9h-9l1-8 6-24z" fill="#0A76BD"/>
<path transform="translate(764,200)" d="m0 0h1v268l-5-2-17-12v-240h3v237l1 4 4 2 11 7v-254l-2-3-5 2-5 3-2-1zm-18 12 2 1z" fill="#0B84CD"/>
<path transform="translate(232,67)" d="m0 0h358l-6 8-8 8-7 8-1 1h-315l-9-10-9-11zm11 1-5 1 1 5 7 7 6 8 1 1h315l7-7 7-8 3-4v-2l-2-1z" fill="#0B84CD"/>
<path transform="translate(248,525)" d="m0 0h3v36l5-1h344l112 1 8 16 11 24h-3l-15-33-3-5-460-1-1-1-1-30-1-2-14 5-9 4-3 1v-2z" fill="#4DA5DA"/>
<path transform="translate(861,115)" d="m0 0h100v221h-81l-1-179-13-30zm18 2-10 1-3 2 1 5 13 29 1 3 1 178h77v-218z" fill="#3E9DD7"/>
<path transform="translate(1852,606)" d="m0 0h11l9 15v2h2l1-10 2-7h11l-1 9-5 22-1 2h-11l-6-9-3-6-2-1-2 14-1 2h-11l-1-2 7-29z" fill="#0A76BD"/>
<path transform="translate(1444,606)" d="m0 0h26l5 4 1 5-4 5-2 2 4 4-1 6-6 6-10 1h-20l1-11 5-21zm11 7-2 2v4h8l2-2v-3l-2-1zm-3 12-2 2 1 5h8l3-3-1-3-2-1z" fill="#1287CE"/>
<path transform="translate(733,101)" d="m0 0m-2 1h2v2l-12 5-6 3h-4v314l-1 1h-33l7 17 8 17 6 13 11 24 12 27v2h-2l-19-42-17-37-9-20v-3h30l5 1v-313l1-2z" fill="#0B84CD"/>
<path transform="translate(1969,606)" d="m0 0h26l5 3 2 3-1 6-5 5-3 2 6 12v2h-13l-3-5-3-6v-2h-4l-2 13h-12l1-9 5-22zm11 7-2 3 1 4 8-1 2-4-2-2z" fill="#198BCF"/>
<path transform="translate(1681,606)" d="m0 0h27l5 4 1 6-4 6-5 3 6 11v3h-13l-3-5-4-8-2-1-3 13-1 1h-11l-1-2 7-29zm11 7-2 3 1 4h6l4-3v-3l-2-1z" fill="#178ACF"/>
<path transform="translate(1027,606)" d="m0 0h11l-1 11 13-11h16l-4 5-10 7h-2l8 17 1 4h-14l-4-9-2-3-6 5-2 7h-12l2-11 5-21z" fill="#188ACF"/>
<path transform="translate(1e3 113)" d="m0 0h74l1 182h-3v-180l-66 1-5 1v215l123-1 6-1 2-4 6-6 2 1-11 12-3 1h-126l-1-220z" fill="#0E85CD"/>
<path transform="translate(1314,606)" d="m0 0h25l6 3 1 2v6l-4 5-4 2 2 6 3 6v3h-13l-7-13-2-1-2 11-1 3h-12l1-7 6-25zm10 7-2 3 1 4 9-1 2-4-2-2z" fill="#1287CE"/>
<path transform="translate(1498,606)" d="m0 0h9l8 4 3 3 1 8-4 10-8 7-6 2h-13l-8-4-2-3v-12l6-9 6-4zm-1 8-6 5-1 3v8l5 3 7-2 3-4 1-3v-7l-4-3z" fill="#198BCF"/>
<path transform="translate(1652,606)" d="m0 0h9l7 3 5 6v7l-4 10-6 5-8 3h-13l-6-3-4-5v-10l6-9 5-4zm0 8-5 3-3 6v6l3 3 5 1 5-3 3-4 1-8-4-4z" fill="#1589CF"/>
<path transform="translate(1081,606)" d="m0 0h10l8 4 3 3 1 5-2 9-4 7-6 4-7 2h-13l-7-4-2-3v-11l3-6 5-5 4-3zm0 8-5 4-3 9 3 5 5 1 6-3 4-9-2-5-2-2z" fill="#178ACF"/>
<path transform="translate(967,606)" d="m0 0h12l-2 12-2 8v4l7 1 4-3 5-20 1-2h12l-4 19-4 8-6 5-9 2h-7l-9-3-3-5 1-10z" fill="#1589CF"/>
<path transform="translate(1197,606)" d="m0 0h11l-1 8-3 12 1 4 1 1 9-1 4-18 2-6h11l-1 11-4 14-8 7-8 2h-9l-7-3-4-5 1-10 4-15z" fill="#1589CF"/>
<path transform="translate(1389,115)" d="m0 0h1v220h-74v-140l6-5v3h-2l-1 6-1 67v68h71l-1-30-1-176-1-4-5 3-4 3 2-4zm-13 15m-1 1m-1 1m-1 1m-1 1m-1 1m-1 1m-1 1m-1 1 1 3-11 11-2-1 10-10zm-18 21 1 2-6 4 2-4zm-6 6m-1 1m-1 1m-1 1m-1 1m-1 1v3l-2 1zm-3 4m-1 1m-1 1m-1 1m-1 1m-1 1m-1 1m-1 1m-1 1m-1 1v3z" fill="#0D85CD"/>
<path transform="translate(1932,606)" d="m0 0h32l-2 7-5 1h-14l-2 5h18l-1 6-18 1-2 6h20l-1 6-1 1h-32l4-19z" fill="#1187CE"/>
<path transform="translate(1277,606)" d="m0 0h30l1 2-2 6h-19l-1 5h18l-2 6-18 1-1 6h19l-1 7h-32l1-9 6-23z" fill="#1287CE"/>
<path transform="translate(1815,606)" d="m0 0h31l-1 8h-19l-2 5h18l-1 6h-19v6l19 1-1 6-1 1h-32l4-18z" fill="#0F86CD"/>
<path transform="translate(1788,606)" d="m0 0h10l6 3 4 4v4l-10 2-5-4-6 1-4 4-1 9 1 2 5 1 5-3 3-3 9 2-1 4-5 5-7 3h-14l-5-3-4-5v-8l3-8 7-7z" fill="#1388CE"/>
<path transform="translate(140,238)" d="m0 0h2l5 11v2h-35v313l-12 6-10 4v-2l18-8 1-1 1-312 1-1 19-1h14z" fill="#7DBDE3"/>
<path transform="translate(1159,606)" d="m0 0h24l5 3 2 4-1 6-5 6-6 2h-12l-1 9-2 3h-11l1-9zm11 7-2 3 1 5 7-2 2-3-3-3z" fill="#188ACF"/>
<path transform="translate(1316,427)" d="m0 0h2l1 90 14 15 9 10v2h2l7 8 11 12 9 10 6 7 5 1 20 1 280 1v1h-304l-12-12-7-8-10-11-7-8-14-15-9-10-3-4z" fill="#74B8E1"/>
<path transform="translate(1673,175)" d="m0 0h2l-2 4-2 2-1 154h76l-1-38v-83l2-5 15-15 2 1-16 16-1 125h-79v-156z" fill="#0B84CD"/>
<path transform="translate(162,681)" d="m0 0 1 2-2-1zm-3 2 2 1-4 2zm-4 3 2 1-4 2zm-4 3 2 1-4 2zm480-16 9 6 19 14 6 5v1h-525v-2l7-5 2 1-4 4 516 1v-2l-5-2-13-10-11-8z" fill="#0D85CD"/>
<path transform="translate(1527,606)" d="m0 0h26l6 4 1 5-4 6-2 2-5 1 1 5 1 1v5l-6 1-3-4-2-5v-3l6-3 1-5-2-2h-7l-3 5-2 7-5 8h-5l1-14 1-10z" fill="#1388CE"/>
<path transform="translate(1715,606)" d="m0 0h13l5 10 10-10h13l-2 4-15 14-3 8-2 7h-12l2-11-1-6-8-14z" fill="#1388CE"/>
<path transform="translate(1893,606)" d="m0 0h35l-2 9h-11l-4 15-3 9h-12l4-18 2-7-11 1-1-2z" fill="#0A76BD"/>
<path transform="translate(1601,606)" d="m0 0h36l-2 6-2 3h-10l-4 15-3 9h-11l1-9 3-15h-8l-3-1 1-5z" fill="#188ACF"/>
<path transform="translate(1237,606)" d="m0 0h35l-1 7-1 2h-11l-6 24h-11l-1-3 5-21h-9l-2-1 1-7z" fill="#0A76BD"/>
<path transform="translate(885,606)" d="m0 0h11l-1 8-4 17 17-1 1 3-2 6h-30l1-8 5-22z" fill="#198BCF"/>
<path transform="translate(597,73)" d="m0 0h160l-1 3-37 17-36 16-32 15-21 9 1-3 27-12 35-16 36-16 17-8 2-3h-151z" fill="#1187CE"/>
<path transform="translate(92,73)" d="m0 0h134l9 11 9 10 2 3 67 1v1h-68l-10-11-7-8-3-4-13-1h-116l5 13 11 24 3 6 3 2 48 1v1h-52l-8-16-14-31z" fill="#3096D4"/>
<path transform="translate(746,212)" d="m0 0 2 1zm-2 1 2 1v237l1 4 4 2 7 5-1 2-14-10v-240z" fill="#0D85CD"/>
<path transform="translate(1111,606)" d="m0 0h15v18l4-4 7-13 1-1h15l-1 8-5 22-2 3h-9l1-7 1-4h2l1 5 4-4 4-16-1-2-9 1-3 3h-2l-1 7-4 4-4-1-1-1-1-13h-8l-3-1-4 17-1 6 4-1 2-11 3-4 3 1h-2l-2 12-3 9h-9l1-8 6-24z" fill="#1287CE"/>
<path transform="translate(2011,174)" d="m0 0 4 2 2 4h-241l2-2h235z" fill="#0B84CD"/>
<path transform="translate(1198,113)" d="m0 0h34l-1 2-32 1-8 7-9 10-2 1 2-4 15-16zm-19 21m-1 1m-1 1v3l-3 2 2-4zm-4 5m-1 1m-1 1m-1 1m-1 1m-1 1v3zm-2 3m-1 1m-1 1m-1 1 1 3-4 6 34 1 2 1-1 6-9 8v-3l8-8 1-2h-42l6-7zm21 25m-1 1m-1 1 1 3-8 6 2-4zm-8 9m-1 1m-1 1m-1 1m-1 1m-1 1m-1 1m-1 1 1 3-7 7-7 8-12 12-7 8-7 7v-3l7-7 7-8 16-17zm-41 45m-1 1m-1 1m-1 1m-1 1m-1 1m-1 1m-1 1m-1 1m-1 1 1 3-4 2 2-4zm-4 5m-1 1m-1 1m-1 1m-1 1m-1 1m-1 1m-1 1m-1 1m-1 1m-1 1m-1 1 1 3-15 16-6 6-2-1 16-17z" fill="#2892D2"/>
<path transform="translate(1316,362)" d="m0 0h74l1 121 7 7 9 11 10 11 4 6-5-2-7-8-6-8-9-10-5-6-1-3v-114l1-4-72 1 1 49v8l-1 6h-1z" fill="#0B84CD"/>
<path transform="translate(1852,606)" d="m0 0h11l9 15v2h2l1-10 2-7h11l-1 9-5 22-1 2h-11l-6-9-3-6-2-1-2 14-1 2h-11l-1-2 7-29zm4 4-3 1-3 9-2 13 5 1 6-11 4 1 6 11 2 1h6l4-5 2-9v-8l-4-2-3 7-1 5-5-2-8-11z" fill="#188ACF"/>
<path transform="translate(579,599)" d="m0 0 7 6 7 9v2h-358l4-4v2h351l-9-11z" fill="#0B84CD"/>
<path transform="translate(880,366)" d="m0 0h57v1l-36 1h-19v177l-5 11-3 5-1-2 6-13z" fill="#68B2DF"/>
<path transform="translate(2016,514)" d="m0 0 1 2-9 13-1-2 6-9-106-1h-128l-1-2z" fill="#0C84CD"/>
<path transform="translate(1074,407)" d="m0 0 2 2-1 178-4 1h-70v-2h72v-177z" fill="#178ACF"/>
<path transform="translate(920,609)" d="m0 0h11l2 16 6-2 6-11 7-3h5l1 5-6 17-3 1 1-13 1-2-7 1-3 9-4 6-3 2-4-1-1-13-2-3h-4l-3 10-2 1-2-1-1-8 2-2z" fill="#0A76BD"/>
<path transform="translate(63,70)" d="m0 0 3 1 18 39 9 20 6 14-3-1-7-15-14-31-7-14-2-1v121l11 8 4 3-1 2-11-8-6-5z" fill="#3599D5"/>
<path transform="translate(1028,611)" d="m0 0 5 1 2 6 6-1 9-6h2l-1 4-2 3 1 7 3 5v5h-7l-5-9-5 1-5 5-2 3h-7l2-11 3-12z" fill="#0A76BD"/>
<path transform="translate(937,366)" d="m0 0h23l1 5v216h-99l1-5 6-14 2 1-5 12-1 5h94v-218h-22z" fill="#1689CF"/>
<path transform="translate(865,606)" d="m0 0h12l-1 9-5 22-1 2h-12l2-11z" fill="#2993D3"/>
<path transform="translate(102,591)" d="m0 0 2 1-12 7-12 6-1 1 147 1 8-7 2 1-7 8h-161v-2l21-10z" fill="#1086CE"/>
<path transform="translate(1831,608)" d="m0 0 11 1-2 2-14 1-2 7h18l-1 6h-21v7l1 4h-10v-7l4-15 2-4 2-1z" fill="#0A76BD"/>
<path transform="translate(736,458)" d="m0 0 11 7 10 7 1 1v134l-3-1-16-35-7-15v-2h2l12 25 7 16 3 1v-84l-1-39-19-13z" fill="#0C84CD"/>
<path transform="translate(1443,516)" d="m0 0h173v1l-28 1-121 1h-46v-2z" fill="#6BB4E0"/>
<path transform="translate(1154,537)" d="m0 0h41l-1 2h-34l3 5 16 17 9 11 8 8 4 5 7 1 102 1v1h-109l-11-11-7-8-22-24-6-6z" fill="#5DADDD"/>
<path transform="translate(1452,615)" d="m0 0 1 4 8-1 3-1-2 5 1 4v8l5-2 2-3-2-8 6 5-1 6-6 6-10 1h-20l1-11 2-4h1l-1 11h12l-4-3 1-6 1-5zm0 10-2 2 1 5h8l3-3-1-3-2-1z" fill="#1E8DD0"/>
<path transform="translate(1077,409)" d="m0 0 4 2 16 17 14 15 16 17 14 15 7 8 18 18 9 11 12 12 7 8 2 5-7-6-7-8-14-15-9-10-9-9-7-8-8-8-7-8-8-8-7-8-9-10-8-8-7-8-9-9z" fill="#1D8DD0"/>
<path transform="translate(1607,609)" d="m0 0h25l-1 3-9 2-3 8-3 11-5 3-3-1 1-16 1-5-3-3z" fill="#0A76BD"/>
<path transform="translate(1321,616)" d="m0 0 2 3 9-1 3-2-2 5-6 3 2 6 3 5h5l-1-6-1-4 2-1 6 12v3h-13l-7-13-2-1-2 11-1 3h-12l1-7 3-12 2-1-1 8-1 7 5-1 5-9v-7z" fill="#1388CE"/>
<path transform="translate(57,209)" d="m0 0 4 2-2 1-1 261 4-1-3 4h-2z" fill="#0B84CD"/>
<path transform="translate(1278,609)" d="m0 0h22v2l-15 1-1 12-2 2v6l1 3-1 1h-10l1-10 4-15z" fill="#0A76BD"/>
<path transform="translate(248,525)" d="m0 0h3v36l5-1h68l-1 2h-73l-1-1-1-30-1-2-14 5-9 4-3 1v-2z" fill="#7CBCE3"/>
<path transform="translate(1588,517)" d="m0 0h40l14 15 7 7 7 8 15 16 14 15 5 5v2h-8v-2l2-2-15-16-7-8-8-8-7-8-12-12-6-7-4-2-37-1z" fill="#1488CE"/>
<path transform="translate(1350,159)" d="m0 0 1 2-6 4 2-4zm-6 6m-1 1m-1 1m-1 1m-1 1m-1 1v3l-2 1zm-3 4m-1 1m-1 1m-1 1m-1 1m-1 1m-1 1m-1 1m-1 1m-1 1v3zm-2 3m-1 1m-1 1m-1 1m-1 1 1 3h-2l-1 6-2 131h-1v-135z" fill="#1589CF"/>
<path transform="translate(1934,609)" d="m0 0h23l-1 2-12 1-3 1-1 7-1 5h-2v7l2 3-2 1h-9v-7l5-19z" fill="#0A76BD"/>
<path transform="translate(1256,191)" d="m0 0 2 1-16 17-9 10-11 12-9 10-7 8-12 13-11 12-27 30-11 12-4 4 1-4 7-7 7-8 14-15 7-8 9-10 7-8 16-17 12-14 15-16 9-10z" fill="#188ACF"/>
<path transform="translate(591,598)" d="m0 0 4 2 5 6 12 1h115l3-1-1-4h2l2 4v3h-133l-9-10z" fill="#0C84CD"/>
<path transform="translate(72,477)" d="m0 0 1 2-7 6-1 98 18-8 3 1-21 10h-2v-103z" fill="#6BB4E0"/>
<path transform="translate(1898,115)" d="m0 0h73l13 18 10 14 13 18 6 9-4-2-20-28-8-11-9-12-4-3-70-1z" fill="#1187CE"/>
<path transform="translate(674,425)" d="m0 0h30l3 2h-30l7 17 8 17 6 13 11 24 12 27v2h-2l-19-42-17-37-9-20z" fill="#218FD1"/>
<path transform="translate(1446,609)" d="m0 0h9l-2 4-2 9-1 4-1 6 4 3-1 1h-12l-1-4 1-8 1-4h2l1-9z" fill="#0A76BD"/>
<path transform="translate(1244,606)" d="m0 0h28l-1 7-1 2h-11l-6 24h-11l-1-3 4-17 3-3-2 11-1 7 6-2 4-14 3-5 8-2 1-2h-5v-2h-18z" fill="#1C8CD0"/>
<path transform="translate(1790,609)" d="m0 0h8l5 3-1 3h-5l-3-2-9 1-4 5-1 3v7l2 4-1 4-6-2-3-3v-10l3-6 8-5z" fill="#0A76BD"/>
<path transform="translate(1194,167)" d="m0 0v3l-8 7v-3zm-10 10m-1 1m-1 1 1 3-8 6 2-4zm-8 9m-1 1m-1 1m-1 1m-1 1m-1 1m-1 1m-1 1 1 3-7 7-7 8-12 12-7 8-7 7v-3l7-7 7-8 16-17zm-41 45m-1 1m-1 1m-1 1m-1 1m-1 1m-1 1m-1 1m-1 1m-1 1 1 3-4 2 2-4zm-4 5m-1 1m-1 1m-1 1m-1 1m-1 1m-1 1m-1 1m-1 1m-1 1m-1 1m-1 1 1 3-15 16-6 6-2-1 16-17z" fill="#1B8CD0"/>
<path transform="translate(886,610)" d="m0 0 6 1v7l-2 5-1 7 3 3 10 1-1 2h-20l-1-5 1-8 1-4z" fill="#0A76BD"/>
<path transform="translate(1987,609)" d="m0 0h7l5 3-1 7-4 3h-2l1 13-5 1-4-4-3-6v-2l8-5v-5l-3-4z" fill="#0A76BD"/>
<path transform="translate(1374,610)" d="m0 0 1 2h2l-1 7-1 12 1 1 14 2-1 2h-23l-1-2 5-21 1-2z" fill="#0A76BD"/>
<path transform="translate(919,606)" d="m0 0h15l1 13 1 4 9-16 1-1h15l-1 8h-2l-1-4-9 1-4 4-5 9-6 1-2-9v-7l-11 1-3 9-2 1 2-11z" fill="#208ED1"/>
<path transform="translate(1788,606)" d="m0 0h10l6 3 4 4v4l-10 2-5-4-6 1-4 4-1 10-3-1v-7l3-6 3-3 9-1 3 2h5v-2l-4-2h-8l-11 4-7 4 2-4 7-6z" fill="#1E8DD0"/>
<path transform="translate(1138,606)" d="m0 0h15l-1 8-5 22-2 3h-9l1-7 1-4h2l1 5 4-4 4-16-1-2-9 1-3 3h-2l-1 3-1-2 5-9z" fill="#188ACF"/>
<path transform="translate(1725,612)" d="m0 0 4 2 3 3 5-1 5-4 1 5-7 8-4 8-4 2-2-1v-10l-4-8v-3z" fill="#0A76BD"/>
<path transform="translate(1287,113)" d="m0 0h41l-2 4-8 8-7 8-12 13-7 8-12 13-9 10-10 11-3 3 1-4 16-17 7-8 11-12 7-8 14-15 6-7v-6h-33z" fill="#198BCF"/>
<path transform="translate(1893,606)" d="m0 0h35l-2 9h-7v-3l5-2-25-1v2h2v2h2l1 3-2 6-2 1 2-9-11 1-1-2z" fill="#2C94D3"/>
<path transform="translate(1544,609)" d="m0 0h8l5 3-1 5-5 4h-2v6l2 3v5l-6 1-3-4-2-5v-3l6-3 1-7-3-3z" fill="#0A76BD"/>
<path transform="translate(1971,610)" d="m0 0h10l-4 6 1 8-4 4-3 6-3 1-3-2 1-8 3-12z" fill="#0A76BD"/>
<path transform="translate(1332,609)" d="m0 0 7 1 4 3-1 5-4 4-2 1 1 6 1 4-3 3-4-1-5-9 1-3 6-3 1-6v-2l-3-1z" fill="#0A76BD"/>
<path transform="translate(1582,609)" d="m0 0 5 2 3 6 2 7 1 10-3 2-4-1-3-4 1-9-2-5-4-2-1-3z" fill="#0A76BD"/>
<path transform="translate(1701,609)" d="m0 0 7 1 2 2v6l-6 4v6l2 3-1 5h-5l-4-5-2-4v-3l6-3h2v-7l-2-4z" fill="#0A76BD"/>
<path transform="translate(1163,610)" d="m0 0h6l1 2-3 3-1 5 1 5-3 5-4 5h-5l1-16 3-1 1-7z" fill="#0A76BD"/>
<path transform="translate(1143,610)" d="m0 0h5l2 4-5 17-4 3-2-7 2-3v-6l-5 2-3 2 1-7h2l1-3z" fill="#0A76BD"/>
<path transform="translate(755,91)" d="m0 0h3v103l-13 9-2-1 11-8h2v-99l-7 1-12 5v-2z" fill="#0B84CD"/>
<path transform="translate(1815,606)" d="m0 0h31l-1 8h-20l1-3 14-1-9-1-12 1-2 1-5 15-2 1 4-19z" fill="#218FD1"/>
<path transform="translate(1198,611)" d="m0 0 5 1 1 5-2 9 2 10h-6l-4-4v-9l3-11z" fill="#0A76BD"/>
<path transform="translate(1320,610)" d="m0 0 2 1-1 9-1 6-5 8-3 1-2-1v-7l5-16z" fill="#0A76BD"/>
<path transform="translate(1224,609)" d="m0 0h6l-1 7-4 13-5 5-4 1-1-3 3-6 4-15z" fill="#0A76BD"/>
<path transform="translate(867,610)" d="m0 0 5 2 1 4-3 15-4 5-5-1 2-12z" fill="#0A76BD"/>
<path transform="translate(1689,615)" d="m0 0 2 4h6l5-2v4l-6 3h-2l5 10 1 1h5l-1-5-1-6 4 4 4 8v3h-13l-3-5-4-8-2-1-1 5-2-1 2-5v-8z" fill="#188ACF"/>
<path transform="translate(1932,606)" d="m0 0h32l-2 7-5 1h-15v-2l2-1 12-1h-22l-3 10-3 2z" fill="#2390D1"/>
<path transform="translate(1684,611)" d="m0 0 4 1 1 3v9l-6 10-4 1-2-1 1-9 4-12z" fill="#0A76BD"/>
<path transform="translate(1087,609)" d="m0 0 11 4 2 5-2 9-4 6-6 1 1-5 2-5v-7l-4-4-4-3z" fill="#0A76BD"/>
<path transform="translate(1532,610)" d="m0 0 3 2-1 13-6 9h-5l1-9 3-12 1-2z" fill="#0A76BD"/>
<path transform="translate(968,611)" d="m0 0 5 1 2 2-2 11v6l2 5-7-1-3-5v-7z" fill="#0A76BD"/>
<path transform="translate(1277,606)" d="m0 0h30l1 2-2 6h-19l-1 4h-2l1-6 3-1h12v-2l-15 1-7-1-1 5h-2l1-7z" fill="#2F96D4"/>
<path transform="translate(1503,609)" d="m0 0 6 2 6 4 1 1v7l-4 8-3 2-4-1 2-7v-8l-3-4-5-2z" fill="#0A76BD"/>
<path transform="translate(1420,610)" d="m0 0 5 1 4 16v8l-6 1-3-5 1-5v-7l-3-4v-4z" fill="#0A76BD"/>
<path transform="translate(1460,609)" d="m0 0h8l3 3-1 7-1 4 2 3-1 4-4 4h-3l-1-8-1-4 3-5-1-4z" fill="#0A76BD"/>
<path transform="translate(1654,610)" d="m0 0h8l8 5 1 4-4 12-3 2h-5l3-10-1-7-3-3-4-2z" fill="#0A76BD"/>
<path transform="translate(1139,320)" d="m0 0 2 1-11 12-3 1h-126v-2l124-1 6-1 2-4z" fill="#198BCF"/>
<path transform="translate(1644,612)" d="m0 0h4l-2 5-3 1v12l3 4v2h-6l-4-3-1-4v-7l3-6 3-3z" fill="#0A76BD"/>
<path transform="translate(1977,616)" d="m0 0 2 3 8-1 3-1-2 4-5 3h-2l5 10 7 1-2-11 4 4 4 9v2h-13l-3-5-3-6v-2h-3l-1-9z" fill="#1B8CD0"/>
<path transform="translate(994,610)" d="m0 0 6 2-1 6-6 15-7 2 1-5 3-10 3-9z" fill="#0A76BD"/>
<path transform="translate(1490,613)" d="m0 0h2v3h-2l-2 5v8l3 5v2h-6l-5-5v-8l4-7 2-2z" fill="#0A76BD"/>
<path transform="translate(1050,606)" d="m0 0h16l-4 5-10 7h-3l2-4 1-3-10 6-3 2-4-1 9-7z" fill="#1689CF"/>
<path transform="translate(925,617)" d="m0 0m-2 1h2l-2 12-3 9h-8l-1-4 3-13h2v6h3l3-8z" fill="#178ACF"/>
<path transform="translate(1076,611)" d="m0 0h4v2l-8 7-3 5 6 8-1 4-6-2-2-2v-14l2-5z" fill="#0A76BD"/>
<path transform="translate(948,616)" d="m0 0m-22 1 4 4 1 13 5-1 4-6 4-9 4-1-2 5-8 15-2 2h-8l-1-1v-19l-2-1z" fill="#228FD1"/>
<path transform="translate(212,73)" d="m0 0h14l9 11 9 10 2 3 67 1v1h-68l-10-11-7-8-3-4-13-1z" fill="#95C9E8"/>
<path transform="translate(733,101)" d="m0 0m-2 1h2v2l-12 5-6 3h-4v51l-2 1v-51l1-2z" fill="#82BFE4"/>
<path transform="translate(1918,612)" d="m0 0m-4 1 4 1-3 1-4 15-3 9h-12l4-16 2-1-1 11 6 1 2-11 3-8z" fill="#1287CE"/>
<path transform="translate(1197,606)" d="m0 0h11l-1 8-3 12h-3l2-9-1-5h-4l-3 11-3 1 4-17z" fill="#198BCF"/>
<path transform="translate(1824,612)" d="m0 0 1 4-1 3h18l-1 6h-19v-11z" fill="#0C84CD"/>
<path transform="translate(869,568)" d="m0 0 2 1-5 12-1 5 95-1v2h-98l1-5z" fill="#0B84CD"/>
<path transform="translate(1941,612)" d="m0 0 1 3-1 4h18l-1 6-19 1v-11z" fill="#0C84CD"/>
<path transform="translate(1116,617)" d="m0 0 3 1h-2l-2 12-3 9h-9l1-8 1-4h2v6l4-1 2-11z" fill="#1A8BD0"/>
<path transform="translate(885,606)" d="m0 0h11l-1 8-4 17-2-2v-6l2-5 1-7h-6l-3 8-2 1 2-11z" fill="#3498D5"/>
<path transform="translate(248,525)" d="m0 0h3v35h-2l-1-29-1-2-14 5-9 4-3 1v-2z" fill="#53A8DB"/>
<path transform="translate(1284,618)" d="m0 0 20 1-2 6-20 1z" fill="#0B84CD"/>
<path transform="translate(967,606)" d="m0 0h12l-2 12-2 4-1-5-1-4-5-2-2 12-3 1 3-15z" fill="#2F96D4"/>
<path transform="translate(1311,619)" d="m0 0 1 4-2 11 5-1 5-8 1 3-3 11h-12l1-7 3-12z" fill="#198BCF"/>
<path transform="translate(1523,620)" d="m0 0h2l-1 13 5-1 4-4-1 10-1 1h-11l-1-3z" fill="#1C8CD0"/>
<path transform="translate(1149,618)" d="m0 0h1l-1 9-3 11-1 1h-9l1-7 1-4h2l1 5 4-4 3-10z" fill="#1689CF"/>
<path transform="translate(1173,609)" d="m0 0h10l4 3-1 7-3 3h-5v-8l-6-3z" fill="#0A76BD"/>
<path transform="translate(1237,606)" d="m0 0 25 1v1l-8 1h-11l5 5-1 2-3-1h-7l-2-1 1-7z" fill="#1689CF"/>
<path transform="translate(575,122)" d="m0 0 2 4v29l21-10h2v2l-22 10h-3z" fill="#0F86CD"/>
<path transform="translate(946,606)" d="m0 0h15l-1 8h-2l-1-4-9 1-4 4-3 5h-2l2-6z" fill="#379AD5"/>
<path transform="translate(1976,624)" d="m0 0 1 2-3 13h-12l1-9 2-4 1 3v4l4 1 5-9z" fill="#0F86CD"/>
<path transform="translate(1858,623)" d="m0 0 1 3-3 13h-11l-1-2 2-7h2l2 3h3z" fill="#1A8BD0"/>
<path transform="translate(1859,622)" d="m0 0 4 1 6 10v2h8l3-4 2-4h1l-1 10-1 2h-11l-6-9-3-6z" fill="#1287CE"/>
<path transform="translate(674,425)" d="m0 0h30l3 2h-30l6 15-1 2-8-16z" fill="#5AABDC"/>
<path transform="translate(140,238)" d="m0 0h2l5 11v2h-35v11h-2v-11l1-1 19-1h14z" fill="#1287CE"/>
<path transform="translate(1736,625)" d="m0 0 1 3-3 11h-12l2-9 2-1v5l5-1z" fill="#1A8BD0"/>
<path transform="translate(992,606)" d="m0 0h12l-2 10-2-1-1-3-5-1-4 10-2 1z" fill="#208ED1"/>
<path transform="translate(1389,483)" d="m0 0 4 2 11 12 9 11 8 9-2 1-7-6-8-11-10-11z" fill="#1B8CD0"/>
<path transform="translate(1452,615)" d="m0 0 1 4 8-1 3-1-2 5v5l-3-1h-7l-3 2 2-12z" fill="#1B8CD0"/>
<path transform="translate(1677,626)" d="m0 0 1 4-1 4 6-1 4-4-1 9-1 1h-11l-1-2 3-10z" fill="#0D85CD"/>
<path transform="translate(1119,618)" d="m0 0 2 2 2 15 6-2 4-2-3 6-2 2h-7l-2-4z" fill="#218FD1"/>
<path transform="translate(862,624)" d="m0 0 1 3-1 8h4l5-7h1l-1 9-1 2h-12l2-11z" fill="#1388CE"/>
<path transform="translate(1244,606)" d="m0 0h28l-1 7-1 2h-6l-2-2 4-2 1-2h-5v-2h-18z" fill="#67B2DF"/>
<path transform="translate(1746,480)" d="m0 0 4 2 8 9 9 11 11 13h-3l-5-4-8-11-11-13z" fill="#1388CE"/>
<path transform="translate(1287,113)" d="m0 0h41l-2 4-10 10v-3l4-4v-6h-33z" fill="#76B9E2"/>
<path transform="translate(732,554)" d="m0 0h2l12 25 4 10v2h-2l-13-29-3-6z" fill="#218FD1"/>
<path transform="translate(1977,616)" d="m0 0 2 3 8-1 3-1-2 4-5 3h-2l3 6v2h-2l-2-6h-3l-1-9z" fill="#228FD1"/>
<path transform="translate(238,612)" d="m0 0 1 2h29l1 2h-34z" fill="#0E85CD"/>
<path transform="translate(1221,606)" d="m0 0h11v6l-2 1v-4l-7 2-3 7-2 1 2-11z" fill="#3C9CD6"/>
<path transform="translate(1170,286)" d="m0 0v3l-16 17-7 8-5 6-1-3 8-8 7-8z" fill="#1589CF"/>
<path transform="translate(755,91)" d="m0 0h3v20h-1l-1-16-7 1-12 5v-2z" fill="#1689CF"/>
<path transform="translate(868,130)" d="m0 0h2l8 17 4 10-1 4-2-4-11-25z" fill="#1F8ED1"/>
<path transform="translate(1020,632)" d="m0 0h2v3l7-1 3-2-1 7h-12z" fill="#1B8CD0"/>
<path transform="translate(631,673)" d="m0 0 9 6 18 13v2l-4-2-14-10-9-7z" fill="#2A93D3"/>
<path transform="translate(1194,167)" d="m0 0v3l-8 7v-3zm-10 10m-1 1m-1 1 1 3-8 6 2-4z" fill="#3699D5"/>
<path transform="translate(1139,617)" d="m0 0 3 1v6l-3 3 2-8-3 3-4 8-2-1 1-6z" fill="#2390D1"/>
<path transform="translate(105,102)" d="m0 0h2l8 16 3 3-4 1-8-16z" fill="#2490D2"/>
<path transform="translate(1315,126)" d="m0 0v3l-7 7-7 8-5 5v-3l8-8 7-8z" fill="#208ED1"/>
<path transform="translate(1785,613)" d="m0 0h3l-1 3-4 4-1 10-3-1v-7l3-6z" fill="#1B8CD0"/>
<path transform="translate(83,575)" d="m0 0 3 1-21 10h-2v-5l2-1v3z" fill="#1C8CD0"/>
<path transform="translate(733,101)" d="m0 0m-2 1h2v2l-12 5-6 3-5 1v-2z" fill="#1C8CD0"/>
<path transform="translate(1405,624)" d="m0 0 1 2h2v5l-3 2h-4l1-5z" fill="#0A76BD"/>
<path transform="translate(583,67)" d="m0 0h7l-6 8-8 8v-3l7-7 2-4h-2z" fill="#1187CE"/>
<path transform="translate(869,568)" d="m0 0 2 1-5 12v6h-4l1-5z" fill="#2691D2"/>
<path transform="translate(948,616)" d="m0 0m-2 1h2l-2 5-3 6-2-1 1-5 2-4z" fill="#2993D3"/>
<path transform="translate(690,461)" d="m0 0 3 1 5 12-1 3-7-14z" fill="#1287CE"/>
<path transform="translate(892,618)" d="m0 0h1l-1 9-2 4-1-2v-6z" fill="#2B94D3"/>
<path transform="translate(868,130)" d="m0 0h2l5 10v3h-2l-5-11z" fill="#2591D2"/>
<path transform="translate(235,87)" d="m0 0 4 2 8 9h-3l-9-10z" fill="#2591D2"/>
<path transform="translate(1230,613)" d="m0 0 1 4-2 8-2-1 1-8z" fill="#1D8DD0"/>
<path transform="translate(724,536)" d="m0 0 3 1 4 10v2h-2l-5-11z" fill="#2691D2"/>
</svg>
