<?xml version="1.0" encoding="UTF-8"?>
<svg version="1.1" viewBox="0 0 1644 1944" width="1280" height="1280" xmlns="http://www.w3.org/2000/svg">
<path transform="translate(799,90)" d="m0 0h22l18 6h6l15-5 5-1h21l13 4 17 9 12 9 13 13 13-1 15-2h21l29 4 25 6 24 8 19 8 19 10 19 12 3 3-1 9 15 7 21 11 18 11 18 13 16 13 11 9 18 18 9 11 11 13 10 14 12 18 12 21 10 18 6 7 8 7 6 7 9 16 10 21 10 27 8 29 8 32 4 15 8 20 3 11 3 20 1 19v41l-2 27-2 11v19l3 19v12l-4 24-7 28-10 30-10 24-14 29-6 16-6 21-9 22-12 22-9 14-10 15-10 14-11 14-9 10-9 11-22 22-8 7-15 13-17 12-14 9-16 9-20 8-12 3-1 1-1 11-2 4-10 8-14 9-5 3-1 9-4 5-13 7-42 11-16 4h-3v7l-3 3-29 8-19 4-32 4-10 1h-34l-8-2-9 1-16 8-12 3h-11l-13-4-17-8h-9l-6 2h-41l-20-2-27-5-23-6-12-4-3-2-1-7-9-3-20-4-33-10-15-9-2-11-15-10-10-8-8-7-33-15-20-10-16-10-12-11-3-6v-11l-10-11-8-11-3-6v-6l2-5-1-8-3-12v-13l4-22-8 1-17 3-9-1-6-4-3-5h-18l-6-3-9-9-8-7-11-9-5-8 1-16-4-2-6-4-3-8v-11l1-8 1-24 2-8 8-5 3-2v-13l3-7 11-8 9-7 1-3-26-3-9-3-4-5-3-7v-3h-9l-8-2-6-7-17-29-4-8v-7l5-7-2-6-5-9v-8l7-18 8-24 3-3 15-5 2-12 6-5 12-5 18-6-5-5-11-8-10-6-5-4-2-4v-15l-9-3-5-4-2-4-3-24-1-10v-15l4-6 5-4 1-6-2-11 4-7 19-19 9-11 6-3h8l11 2 5-1 6-9 5-3h11l14 2-4-7-11-14-6-10 1-10 2-7-8-10-1-9 9-38 4-8 6-4 7-2 2-11 4-6 14-12 30-30 8-7 13-11 18-13 19-12 12-7 20-9 6-2-1-11 8-6 10-6 16-8 19-9 33-12 23-5 20-3 22-1 16 1 13 2h8l16-16 15-10 11-5zm1 10-14 4-14 8-14 12-4 5 3 3 19 9 11 8 5 4h2l3-13 7-14 10-11 15-6 3-2v-4l-5-2-6-1zm60 0-9 3v3l20 10 6 5 8 13 5 19 4-2 13-9 15-8 7-3-1-4-6-8-12-9-15-7-13-3zm-31 18-10 5-8 7-5 10-2 9v14l7 10 5 4 3-4 13-38 4-16-1-1zm20 0 1 10 12 36 5 11 4-1 8-9 1-2v-13l-2-10-6-11-7-7-11-4zm-9 27-1 5h6l-1-5zm-213 92-31 2-34 5-29 6-26 7-11 4v2l10 4 27 14 10 6 4 5 1 10v9l3 2 5-1 13-17 7-9 11-12 12-12 16-12 15-9 2-3zm-145 28-4 1 2 5 5 1 3-5v-2zm-22 8-11 6-10 6-12 5-5 4v8l16 8 15 8 10 8 4 3 8-1 9-3-1-12-5-22-6-12-6-6zm37 1-9 8 1 12 3 24 1 10 6 7 9 6 8-6 14-14 8-11 2-9-2-6-8-5-19-10-11-6zm269 19-28 8-6 1-24 1-94 1-17 3-21 8-7 5 2 25 2 12v15l-7 8-4 3 1 7v13l-28 28-4 5-2 1-16 1-5 4-4 4-7 3-14-1h-12l1 5 6 11 3 8 8 15 2 6v9l-4 7 1 8 4 8-1 8-15 33-4 7v2l-12 3-3 1-6 12v2l-5 2-7 3-17 4v4l11 9 16 10 5 5 2 7-1 14 8 5 9 6 2 8-1 23 1 13-2 11-5 5-7 3v18l-5 6-12 8-7 6 3 3 15 6 26 8 5 6 1 3 1 12 20 4 5 8 12 40-1 8-6 8 2 11v10l-4 8-10 13 1 2 14 4 19 10 11 6 7 3v-10l-1-4v-15l2-18 4-2 4-3h8l5-2 2-3-3-5-9-10-13-18-9-14-8-13-15-29-9-23-9-27-6-24-4-22-3-32v-27l2-30 3-18 5-25 7-24 7-20 11-25 14-26 8-13 12-17 14-18 10-10v-2h2l7-8 6-5 4-5 8-7 11-10 18-13 17-11 13-8 17-9 25-11 43-14 11-4 4-2-1-5-1-2zm155 2-2 1-1 6 2 2 38 12 32 13 22 11 13 8 14 9 17 12 14 12 12 11 9 8 7 8 12 13 6 8 11 14 11 16 6 10 12 23 9 19 11 30 6 25 5 25 2 15 2 27v32l-3 32-5 26-7 25-9 27-10 24-9 17-15 24-11 15-13 16-10 11-25 25-7 6v3h34l7 2 1 14 1 3 4-2 11-20 10-15 14-19 12-14 7-8 13-13 11-7 2-6 4-38 5-29 5-23 6-21 5-13 6-11 4-8v-7l-5-17-6-37-2-18-1-22v-29l2-18 2-4-1-10-9-15-10-17-10-19-12-27-9-25-5-18-2-18-12-11-8-7-12-11-18-18-7-8-11-13-10-13-2-1-11-1-94-1-23-1-19-4zm-513 19-4 5-7 29-2 8 1 7 3 2h6l17-8 17-6 11-2 7-10 1-5-8-7-14-8-14-5zm135 7-6 5-7 8-13 13-6 4-3 17 4 4 25 5h14l9-4 4-4v-10l-3-16v-16l-5-5-3-1zm568 2 1 2h3l1 3 1-2-3-3zm-274 8-2 5-1 19v29l4 3 7-1 2-5v-15h9l2 9 5 12 1 1h8l2-1 1-6-5-16v-6l6-9-1-10-5-6-9-3zm-37 2-13 3-8 1-1 2 10 6h15l3-1v-9l-3-2zm115 7-8 3-5 6-1 2v10l4 6 12 12 1 4-3 3-9-2-8-4h-4l-2 4 1 7 7 4 12 3 9-1 7-4 4-6 1-10-3-7-12-10-2-6v-2l11 3h9l4-5-1-4-8-4-7-2zm52 18-5 8-14 31-4 8 1 4 8 4h4l8-18 7-14 7-16-2-4-5-3zm-524 1-17 6-16 8-6 7-3 5 1 6 13 15 12 18 5 1 5-3 8-27 8-16 2-5-1-6-4-8-1-1zm556 17-5 3 3 6 5 5h2l-7 14-7 10-7 11 1 5 4 4h5l8-10 12-19 2-5 10 4h7l3-4-1-5-10-7-11-7-7-5zm-498 2-6 4-6 3v6l8 16 7 11 8 8 7 3h6l5-4 9-11 14-14 2-4-1-6-3-3-25-3-20-5zm170 0-6 5-1 3 25 40 5 5 9-6v-4l-6-9-11-19-8-13-2-2zm-210 5-4 6-8 24-1 5v8l3 11 1 1 36 2 9 1 4-4 1-7-10-14-13-25-5-5-5-3zm174 20-4 6 1 5 17 17 1 3-9-3-9-4-10-3h-7l-9 7 1 6 7 7 7 8 14 15 5 6 7-1 4-5-2-4-7-9-8-7-5-7 30 10 8 1 9-6-1-4-13-15-12-13-9-9zm657 1 1 2h3v-2zm-56 12m1 2m38 3 1 2zm-220 3-11 6-30 15-3 2 2 4 4 5 5 1 4-3h7l8 7-1 5-4 7 2 4 6 6 4-1 13-23 6-10 6-13-3-8-4-4zm-665 6-5 4-3 6 1 6 7 11 8 15 4 10 14 8 4 1 7-10 7-15 4-16v-7l-3-6-5-3-18-1-15-3zm892 3m1 1 1 3zm-40 2-1 2 6 9 3 7 1-3-3-8-5-7zm-887 4-8 7-11 14-10 9-2 3v6l3 3 26 4 16 4 3 1h9l8-6 1-4-6-14-10-15-10-9zm99 16-7 2-14 28-6 11-1 1 1 9 2 10 4 1 15-2 17-4 9-4 6-4 2-6-4-10-12-25-3-5-6-2zm780 6v5h1v-5zm-655 1-5 5 1 4 7 6 18 11 7 6 1 7-3 5-5 2-10-4-8-5-14-9-6-1-4 5-1 4 4 5 15 9 14 7 12 2 10-4 7-9 2-5v-12l-5-8-7-6-16-10-7-5zm654 5 2 2v-2zm-142 6-6 4-4 5-1 2v11l1 3v9l-1 2-5-1-6-7-2-9-5-1-6 4-1 3 3 7 7 11 8 5 8 1 8-3 5-6 1-3v-13l-1-10 7 1 6 11 7 1 4-3-1-7-7-11-5-4-4-2zm204 0v2h2v-2zm-34 2 1 3v-3zm34 1 1 2zm-57 2 1 2zm0 3 1 3 1-3zm58 1 1 2zm-30 2 1 3v-3zm5 1-3 2 1 4 4 7 1 4 6 5-2-5-5-11 1-5zm26 0m0 3 1 4 2-1-1-3zm-23 2m-943 2-9 2-6 4-2 3 1 8 2 20 2 16 10 3 16-17 15-11 7-5 4-8 1-5-5-4-14-4-15-2zm924 8 1 4v9l10 20 3 9 3 1 4-11-2-9-9-13-3-6-5-4zm59 2v7l2 10 7 12 5 10 3-1 2-6v-7l-3-6-7-11-7-8zm-34 5 1 3v-3zm2 3 2 4 4 4-2-5zm21 2-1 3h2zm-830 6-21 5-24 3-5 2-4 6-4 3 2 4 11 11 14 11 11 5 9 1 5-5 5-13 8-17 2-4-1-8-3-4zm773 5 1 3zm46 0m1 2m-925 2-9 5-11 9-9 10-5 11v6l12 9 12 8 11 8 5 1 6-7-1-9v-28l1-6v-8l-7-8zm933 7-2 1 1 5 3 1 2-1-1-5zm-58 2-1 3 4-1 1-2zm115 0v4l5-1v-2zm-961 6-7 1-2 4v29l4 15 8 7 8-1 15-5 16-4 5-4 2-7-9-7-11-8-13-12-7-7-2-1zm885 4 1 6h1v-6zm-24 4v5l2 1 1-4-1-2zm57 0-1 3h5v-2zm-53 19v28l2-2-1-26zm-431 14-21 9-6 4 1 5 11 7 20 15 8-1 2-3v-13l-1-12-6-10-1-1zm27 4-5 4-1 6 1 6 1 23 3 5 3 2h6l8-5 10-10 5-7v-5l-7-6-11-7-8-6zm-487 17-24 9-10 3-6 4-1 1v8l5 4 12 7 14 10 11 9h15l1-1v-24l-2-14-4-9-6-7zm423 4-5 6-4 16-1 5 7 5 11-1 14-3 8-4 3-3-2-5-9-7-10-6-7-3zm-389 2-7 4-2 4 1 13v32l12 13 3 1 14-10 12-11 7-11 2-5v-5l-9-7-15-10-11-8zm486 15-6 4-10 9-10 8-1 7 2 3 13-1 19-4 2-3v-18l-4-4zm-576 13-5 4-4 11-6 16-4 9v6l6 5 9-2 20-6 9-2 13-2 8-11-2-5-7-7-10-7-13-7-8-2zm498 7-12 4 1 3h2l-1 5-1 3v12l2 6 4-4 10-16v-13zm521 1-2 2-4 28v8l2 6 2 10h4l7-13-1-11-5-19-2-11zm-60 2-4 29 1 10 2 12h4l6-6 2-7-1-9-3-13-5-16zm-826 12-8 6-7 7-19 14-5 8-2 10 5 3 17 6 7 2 16 1 8-3 3-3v-46l-7-4zm115 3-5 3-4 6-4 12-2 4-7-1-1-18-2-4h-6l-4 7-1 6 2 11 3 6 5 5 7 3 9-1 6-4 4-7 4-13 1-1h6l1 18 1 1h8l3-1v-11l-2-11-4-7-7-3zm266-1-5 5-8 16-3 10 5-1 4-1 14 2h7l-1-7-8-21zm21 2-3 2v9l8 16 4 5 6-1 10-4 5-5v-3l-3-2 1-6-6-4-14-6zm298 0-45 8-5 2-3 10 1 7 8 5 20 8 20 9h4l2-10-5-5-7-3v-15l9-1 5-2 2-5v-8zm-265 14 1 2 1-2zm-1 3m-539 7-19 4-12 4-9 6-5 7 1 5 11 16 8 16 4 4h7l3-3 9-21 9-17 4-8-2-9-2-4zm903 8 1 2 2-1zm-886 16-5 6-9 17-3 9-1 5v12l2 5 7 2 26 4 5 1h7l6-4-4-10-8-16-8-21-6-7-6-3zm37 2-10 5-1 1 1 8 7 17 8 14 11 7h5l12-11 12-10 8-6 1-2v-8l-2-2-21-4-21-7-5-2zm191 1-24 8-16 8-5 9v12l3 8 6 7 11 4 10-1 33-11-2-12h-7l-25 8-7 2h-5l-4-7v-6l8-5 30-11 1-1-1-7-3-5zm502 12-6 5-5 10-4 13 2 5 10 5 27 10 12 3 3-3 1-7-3-3-14-6 1-6 1-1h14l8-2 3-4v-5l-2-2-4-1h-22l-1-4-2-4-5-3zm-459 6m1 1m-200 40-6 5-3 5 1 7 6 15 4 13 2 9 3 3 14 8 7-6 11-17 7-16v-8l-3-5-7-3-27-8zm183 5-12 7-16 10-15 10-1 5 5 6 5-1 11-8 10-7 3-2-3 6-13 16-4 4 1 4 4 6 3 1 29-11h4l-5 5-18 13-3 2v8l3 3h6l8-7 16-13 9-7 6-8-4-7-5-4-8 1-25 9 4-6 10-12 6-8-1-5-5-8zm-217 1-8 4-10 9-18 12-1 1 1 8 3 4 21 5 16 6 8 4h6l9-4 1-5-5-16-5-12-7-10-6-5zm658 8-8 13 2 5 9 11 11 13 11 14 3 2 5-6 1-4-7-11 7-11 6 1 2 1h7l7-8-1-3-25-9-25-8zm-568 22-5 2-8 14-10 13-6 8v14l2 7h27l16-3 8-6 2-4-2-11-6-17-3-12-4-4-3-1zm542 12-8 10-6 5v2l-4 2-7 6 2 6 3 3 5-2 5-5 4 1 22 22 4 5 5 1 6-6-1-5-7-8-17-17-2-3 1-5 6-7-1-4-2-1zm-675 7-6 2-2 6v24l-1 3v12l2 4 4 2 5-1 13-10 16-9 14-7 2-2 2-11-8-5-15-6-6-2zm317 19-14 9-10 7-13 9-7 4v4l8 6 5-1 6-5 6 1 7 6-2 9 1 6 7 6 4-4 11-27 6-18-1-5-4-5-3-2zm314 12-3 4v7l8 15 7 12v7l-5 5-4 1-7-6-12-20-5-8-5-1-6 4-2 2 1 4 13 23 7 9 10 6h9l9-4 7-6 4-8v-11l-4-10-14-22-3-3zm-591 8-16 8-13 10-8 10-1 7 4 6 10 8 14 14 5 3 9-2 1-2 2-23 5-24v-6l-6-9zm309 2-2 9 3 3 9 3-12 22-6 13v6l4 4 5 1 6-8 14-28v-2l8 4 6-1 5-6-4-4-16-9-17-7zm-206 5-23 2-17-1-7 2-8 7 1 6 9 11 3 4h2l2 4 10 8 8 4 8-1 5-3 4-9 9-14 6-9-1-7-3-3zm-83 12-1 1-4 24v17l4 11 4 3 13-1 27-3 6-4 2-3-1-5-15-14-11-14-8-10-4-2zm343 7-5 12-9 34v6l5 4 21 6h8l2-4v-6l-7-3-12-4 1-10 13 4 7-1 2-5-1-5-13-4h-4l2-10 10 3 9 2 4-6-1-5-18-6-9-2zm132 6-8 3-3 5-5 43v9l1 1h7l5-2 2-4 1-10 16-1 3 9 1 1h7l6-2-1-6-19-38-5-6zm-78 5-3 3-1 4-2 36v10l4 4h9l2-7 1-12 1-2 6 1 7 21 1 1 10-1 1-1v-8l-5-17 1-4 5-6 1-2-1-9-4-6-5-3-11-2zm-323 25-14 1-6 13 1 3 20 9h4l1-17 1-2v-7zm256 52-1 1v141l1 14h90l1-1v-8l-5 2-7 1-15-5-16-8-4-4 2-3 6-2 7-1h17l12 6h4v-12l-15 1-13-4-15-8-4-4-1-4 13-3h17l7 3 5 3h6v-12h-20l-9-3-16-9-1-1v-6l9-2h21l12 5h3l-2-4-6-7-2-5v-19l4-8 5-6 2-1h9l5 5 5 10 1 5v8l-2 9-6 8-3 3 1 3 10-5 4-1h21l9 2 1 3-5 6-17 8-9 2h-10l-6-1v12l5 1 5-3 2-2 7-1h16l10 3 2 1-2 4-7 6-13 6-9 2h-9l-7-1v13l6-1 10-5h18l11 3 2 1-2 5-10 6-14 6-9 2-7-1-4-2-1 5 1 4h90l2-1 1-88v-66l-5-1-31 6-29 4-10 1h-45l-33-4-26-5-10-2z" fill="#111211"/>
<path transform="translate(841,270)" d="m0 0 7 2 13 9v2l5 2 12 9 10 8 9 5-4-13v-3h2l3 3 1 12 4-1 1 1 2-2v2l12 1-2-3-9-4-4-9-2-10 4 1 15 10 9 3 5 2-3 1-12-2v6l8 3 36 12 29 12 20 10 13 8 14 9 17 12 14 12 12 11 10 9 7 8 12 13 6 8 11 14 11 16 6 10 12 23 9 19 11 30 6 25 5 25 2 15 2 27v32l-3 32-5 26-7 25-9 27-10 24-9 17-15 24-11 15-13 16-10 11-26 26-6 5-1 3h10l-4 2 4 3v3h-7v-3l-5 1-2 4-14 4-5 3-2-1v2l-5 4-27 14-21 12-27 11-12 4h-2v33h-2l-1 8h-3v111l-2 7h-1v-154l-16 2-24 5-34 4h-45l-33-4-26-5-10-2h-5l-1 56h-1l-1-53-2-8h-6l-7-4-30-11-18-8-13-8-24-16-10-7-13-10-13-11-10-8-3-2-12-2 2-1-2-4-3-2-2-2 3-4-3-5-9-10-13-18-9-14-8-13-15-29-9-23-9-27-6-24-4-22-3-32v-27l2-30 3-18 5-25 7-24 7-20 11-25 14-26 8-13 12-17 14-18 10-10 1-2h2l2-4 13-13 12-11 13-11 14-10 17-11 13-8 17-9 25-11 43-14 11-4 4-1-2-7-17 5-3-1 13-5 11-6 8-6 1 4-2 8v5l2-2 2 3 2 1 2-7 3-6 1 3-6 17 5-2 12-8 21-16 14-9zm-4 61-2 5-1 19v29l4 3 7-1 2-5v-15h9l2 9 5 12 1 1h8l2-1 1-6-5-16v-6l6-9-1-10-5-6-9-3zm-37 2-13 3-8 1-1 2 10 6h15l3-1v-9l-3-2zm115 7-8 3-5 6-1 2v10l4 6 12 12 1 4-3 3-9-2-8-4h-4l-2 4 1 7 7 4 12 3 9-1 7-4 4-6 1-10-3-7-12-10-2-6v-2l11 3h9l4-5-1-4-8-4-7-2zm52 18-5 8-14 31-4 8 1 4 8 4h4l8-18 7-14 7-16-2-4-5-3zm32 18-5 3 3 6 5 5h2l-7 14-7 10-7 11 1 5 4 4h5l8-10 12-19 2-5 10 4h7l3-4-1-5-10-7-11-7-7-5zm-328 2-6 5-1 3 25 40 5 5 9-6v-4l-6-9-11-19-8-13-2-2zm-36 25-4 6 1 5 17 17 1 3-9-3-9-4-10-3h-7l-9 7 1 6 7 7 7 8 14 15 5 6 7-1 4-5-2-4-7-9-8-7-5-7 30 10 8 1 9-6-1-4-13-15-12-13-9-9zm420 21-11 6-30 15-3 2 2 4 4 5 5 1 4-3h7l8 7-1 5-4 7 2 4 6 6 4-1 13-23 6-10 6-13-3-8-4-4zm-475 39-5 5 1 4 7 6 18 11 7 6 1 7-3 5-5 2-10-4-8-5-14-9-6-1-4 5-1 4 4 5 15 9 14 7 12 2 10-4 7-9 2-5v-12l-5-8-7-6-16-10-7-5zm512 11-6 4-4 5-1 2v11l1 3v9l-1 2-5-1-6-7-2-9-5-1-6 4-1 3 3 7 7 11 8 5 8 1 8-3 5-6 1-3v-13l-1-10 7 1 6 11 7 1 4-3-1-7-7-11-5-4-4-2zm-260 110-21 9-6 4 1 5 11 7 20 15 8-1 2-3v-13l-1-12-6-10-1-1zm27 4-5 4-1 6 1 6 1 23 3 5 3 2h6l8-5 10-10 5-7v-5l-7-6-11-7-8-6zm-64 21-5 6-4 16-1 5 7 5 11-1 14-3 8-4 3-3-2-5-9-7-10-6-7-3zm97 17-6 4-10 9-10 8-1 7 2 3 13-1 19-4 2-3v-18l-4-4zm-78 20-12 4 1 3h2l-1 5-1 3v12l2 6 4-4 10-16v-13zm-250 18-5 3-4 6-4 12-2 4-7-1-1-18-2-4h-6l-4 7-1 6 2 11 3 6 5 5 7 3 9-1 6-4 4-7 4-13 1-1h6l1 18 1 1h8l3-1v-11l-2-11-4-7-7-3zm266-1-5 5-8 16-3 10 5-1 4-1 14 2h7l-1-7-8-21zm21 2-3 2v9l8 16 4 5 6-1 10-4 5-5v-3l-3-2 1-6-6-4-14-6zm298 0-45 8-5 2-3 10 1 7 8 5 20 8 20 9h4l2-10-5-5-7-3v-15l9-1 5-2 2-5v-8zm-265 14 1 2 1-2zm-1 3m-294 34-24 8-16 8-5 9v12l3 8 6 7 11 4 10-1 33-11-2-12h-7l-25 8-7 2h-5l-4-7v-6l8-5 30-11 1-1-1-7-3-5zm502 12-6 5-5 10-4 13 2 5 10 5 27 10 12 3 3-3 1-7-3-3-14-6 1-6 1-1h14l8-2 3-4v-5l-2-2-4-1h-22l-1-4-2-4-5-3zm-459 6m1 1m-17 45-12 7-16 10-15 10-1 5 5 6 5-1 11-8 10-7 3-2-3 6-13 16-4 4 1 4 4 6 3 1 29-11h4l-5 5-18 13-3 2v8l3 3h6l8-7 16-13 9-7 6-8-4-7-5-4-8 1-25 9 4-6 10-12 6-8-1-5-5-8zm441 9-8 13 2 5 9 11 11 13 11 14 3 2 5-6 1-4-7-11 7-11 6 1 2 1h7l7-8-1-3-25-9-25-8zm-26 34-8 10-6 5v2l-4 2-7 6 2 6 3 3 5-2 5-5 4 1 22 22 4 5 5 1 6-6-1-5-7-8-17-17-2-3 1-5 6-7-1-4-2-1zm-358 26-14 9-10 7-13 9-7 4v4l8 6 5-1 6-5 6 1 7 6-2 9 1 6 7 6 4-4 11-27 6-18-1-5-4-5-3-2zm314 12-3 4v7l8 15 7 12v7l-5 5-4 1-7-6-12-20-5-8-5-1-6 4-2 2 1 4 13 23 7 9 10 6h9l9-4 7-6 4-8v-11l-4-10-14-22-3-3zm-282 10-2 9 3 3 9 3-12 22-6 13v6l4 4 5 1 6-8 14-28v-2l8 4 6-1 5-6-4-4-16-9-17-7zm54 24-5 12-9 34v6l5 4 21 6h8l2-4v-6l-7-3-12-4 1-10 13 4 7-1 2-5-1-5-13-4h-4l2-10 10 3 9 2 4-6-1-5-18-6-9-2zm132 6-8 3-3 5-5 43v9l1 1h7l5-2 2-4 1-10 16-1 3 9 1 1h7l6-2-1-6-19-38-5-6zm-78 5-3 3-1 4-2 36v10l4 4h9l2-7 1-12 1-2 6 1 7 21 1 1 10-1 1-1v-8l-5-17 1-4 5-6 1-2-1-9-4-6-5-3-11-2z" fill="#150E17"/>
<path transform="translate(834,417)" d="m0 0h19l23 2 25 5 27 9 23 11 9 5 8 6 4 2v2l5 2 14 11 6 5 5 5 2 4 4 2 7 8 8 8 14 21 6 10 10 21 6 16 7 25 3 19 2 18v30l-5 31-6 23-8 19-8 16-9 16-5 7-4 7-5 7-3 3-7 8-15 15-11 9-14 10-13 8-15 8-20 9-22 7-17 4-13 2-12 1h-25l-24-2-25-5-20-6-19-8-21-11-11-7-9-6v-2l-8-4-5-5-5-4-4-5-5-5-9-8-10-13-11-16-8-14-10-20-8-24-5-23-3-20v-38l4-31 9-31 7-16 8-16 11-18 7-9 9-11 12-13 13-12 20-15 19-12 23-11 24-8 22-5zm-2 167-21 9-6 4 1 5 11 7 20 15 8-1 2-3v-13l-1-12-6-10-1-1zm27 4-5 4-1 6 1 6 1 23 3 5 3 2h6l8-5 10-10 5-7v-5l-7-6-11-7-8-6zm-64 21-5 6-4 16-1 5 7 5 11-1 14-3 8-4 3-3-2-5-9-7-10-6-7-3zm97 17-6 4-10 9-10 8-1 7 2 3 13-1 19-4 2-3v-18l-4-4zm-78 20-12 4 1 3h2l-1 5-1 3v12l2 6 4-4 10-16v-13zm16 17-5 5-8 16-3 10 5-1 4-1 14 2h7l-1-7-8-21zm21 2-3 2v9l8 16 4 5 6-1 10-4 5-5v-3l-3-2 1-6-6-4-14-6zm33 14 1 2 1-2z" fill="#E9C12A"/>
<path transform="translate(519,1338)" d="m0 0h169l9 1 6-1h280l3 1h75l230 1v38l-1 1-19 1h-288l-1 1h-281l-307-1-3-1v-40z" fill="#FD8812"/>
<path transform="translate(808,53)" d="m0 0h65l27 2 34 4 32 6 40 10 29 9 34 13 27 12 36 18 20 12 27 18 14 10 13 10 11 9 28 24 38 38 9 11 8 9 13 17 10 13 26 39 15 26 11 21 14 31 11 29 12 36 8 30 7 36 4 32 3 35v68l-3 34-6 40-7 33-9 33-14 40-13 30-14 29-7 13-8 14-12 19-8 12-13 19-20 25-12 14-7 8-9 9-7 8-12 12-8 7-7 7-8 7-13 11-28 22-24 16-19 12-23 13-23 12-29 13-29 11-24 8-28 8-36 8-31 5-38 4-36 2h-20l-33-2-40-4-29-5-35-8-40-12-30-11-30-13-36-18-28-17-19-12-20-14-15-12-14-11-12-11-8-7-17-16-17-17-7-8-10-11-11-14-10-12-7-10-24-36-15-26-13-24-14-31-12-31-12-37-8-32-7-36-5-40-2-31v-53l3-40 5-34 7-35 8-30 12-36 12-31 11-24 14-27 16-27 11-17 8-12 13-17 11-14 9-11 13-15 14-15 20-20 8-7 28-24 10-8 19-14 30-20 25-14 35-18 31-13 29-11 26-8 36-9 26-5 27-4 28-3zm8 9-31 2-45 6-34 7-30 8-36 12-37 15-19 9-19 10-25 14-12 8-19 13-14 10-17 13-13 11-8 7-10 9-8 7-28 28-9 11-11 12-13 17-12 16-16 24-9 15-15 26-8 16-12 25-11 27-12 35-9 34-7 34-5 32-2 19-1 21v70l3 32 3 21 6 31 10 40 12 36 8 21 11 26 12 24 13 23 15 24 13 19 8 11 11 14 14 17 12 14 15 16 17 17 8 7 12 11 11 9 14 11 19 14 26 17 25 15 22 12 23 11 34 14 33 11 35 10 23 5 44 7 43 4h51l30-2 26-3 37-6 26-6 34-10 30-10 31-13 29-14 17-9 22-13 23-15 17-12 18-14 13-11 11-9 13-12 16-15 12-12 7-8 11-13 4-5v-2h2l24-32 13-19 12-19 15-26 9-19 8-16 13-32 12-36 8-28 8-39 4-24 3-27 1-19v-70l-2-28-5-34-5-26-8-33-12-39-12-30-12-27-11-22-14-24-12-19-15-22-12-16-11-14-12-14-11-12-10-10-6-7-8-7-13-13-8-7-14-12-17-13-16-12-19-13-19-12-18-10-23-12-26-12-28-11-35-12-34-9-35-7-34-5-20-2-25-1z" fill="#272B28"/>
<path transform="translate(993,1339)" d="m0 0h68l230 1v38l-1 1-19 1h-280l-1-2-1-38z" fill="#526FD7"/>
<path transform="translate(394,1340)" d="m0 0h297l-1 39-11 1h-285l-3-1v-17l1-20z" fill="#0E0F0E"/>
<path transform="translate(642,174)" d="m0 0h11l19 3 15 4 21 8 19 9 18 12 19 14 7 6v2l-14-1-22-3-13-1-28-1h-21l-40 1-24 2-27 4-20 4-22 3-43 11-24 8-7 3h-3v2l-6 1 2-5 10-10 11-9 14-11 14-10 23-14 21-11 23-9 15-5 21-4 16-2z" fill="#35763F"/>
<path transform="translate(1081,924)" d="m0 0h13l-3 5-14 12-13 11-16 12-12 10h-3l1-9 4-11-3 1-10 19-4 9-5 5-13 8-21 12h-2l-1-6-8 2-2 4-2 5-5 4-7 3h-3v5h17l14 2h18l-3-2-18-5-1-3 9-6 20-11 14-10 26-1 8-3-5-1-9 1-4-2 1-4 7-7 13-10 14-12 4-3h2v-2l12-9 7-6h3v9l-5 16-6 15-7 12v3l7 3v5l-7 6-20 13-6 5-1 2 5 1 2 4-4 5-8 5-16 8-20 7-11-1-5-2h-9l-25 7-12 3-2 5-2 1-1-5v-42l1-37 35-14 14-7 22-12 21-11 16-6 15-4z" fill="#35763F"/>
<path transform="translate(1028,175)" d="m0 0h27l25 3 21 5 22 8 29 14 22 13 21 14 12 9 14 14 4 6-4 1-36-12-18-5-44-10-39-6-23-2-26-1h-34l-33 1-34 3-16 2h-7l4-4 17-12 14-10 15-9 21-10 24-8 14-3z" fill="#35763F"/>
<path transform="translate(1308,856)" d="m0 0h2l4 13 7 5 7 1-1 7-8 20-7 15-10 18-10 15-10 14-9 12-24 28-14 15-16 15-22 18-17 12-10 7-15 8-12 5h-4v-8l6-17 7-13 12-14 14-15 7-8 7-7 9-11 11-12 9-11 14-17 20-26 12-16 14-19 12-15 7-9 6-7z" fill="#35773F"/>
<path transform="translate(842,139)" d="m0 0h2l9 29 11 33 67 1-1 3-14 10-19 14-15 11-4 4 5 16 6 18 8 25v4l-4-1-10-7-14-11-8-5v-2l-5-2-10-7-5-1-10 6-19 14-15 11-8 5-3-1 20-60v-5l-5-2-18-13-13-10-18-13 3-2h65l3-10 14-39 2-4v2h6l-1-4-4-1 1-5z" fill="#E9C12A"/>
<path transform="translate(550,1055)" d="m0 0 5 1 10 5 12 7 8 4 13 8 15 8 16 8 11 5-2 4-11 6v1l9-1 13-4h6l25 8 15 5 8 2-1 4-13 8-1 1h7l18-5 6-1h12l9 6-3 2 2 2h-3l3 5 4 5 16 11 28 19 5 3-3 2-3 1-13 1h-20l-11-2-14-1-25-5-24-5-4-2v-6l4-2v-4l-11-1-16-3-13-2-16-3-15-5-9-4-3-3 1-4 4-2-1-5-5-1-16-8-8-5-5-3-2-6 4-4 1-5-5-1-9-14-5-13-1-11z" fill="#35773F"/>
<path transform="translate(1135,1050)" d="m0 0h3v7l-8 19-6 10-6 8-3 5v5h2l-1 6-8 6-19 10-7 1 5 9v3l-5 3-28 8-12 3-27 4-10 2-3 2 5 3 1 6-11 4-17 4-19 4-5 1-25 3h-36l-3-2 5-4 15-11 11-7 16-12 7-6 2-6-3-1 6-7 6-2h11l24 8 5 1v-3l-5-2-13-7 1-3 18-5 30-9h8l15 4h8l1-1-17-7v-3l12-5 19-9 10-6 11-6 16-10 15-10z" fill="#35773F"/>
<path transform="translate(833,576)" d="m0 0h11l3 6h7l5-2h7l8 4 11 8 11 7 2 3v14l11 5 2 9v33l-3 7-5 2-2 12-4 6-8 6-14 12-5 2-11-1-5 5-9 2-22-4-10-1-5-5-2-4v-4l-12-1-4-4-10-17-6-10-1-6 3-8-1-5-4-1-1-3 11-31 5-8 3-3 8-2 3-11 14-6zm-1 8-21 9-6 4 1 5 11 7 20 15 8-1 2-3v-13l-1-12-6-10-1-1zm27 4-5 4-1 6 1 6 1 23 3 5 3 2h6l8-5 10-10 5-7v-5l-7-6-11-7-8-6zm-64 21-5 6-4 16-1 5 7 5 11-1 14-3 8-4 3-3-2-5-9-7-10-6-7-3zm97 17-6 4-10 9-10 8-1 7 2 3 13-1 19-4 2-3v-18l-4-4zm-78 20-12 4 1 3h2l-1 5-1 3v12l2 6 4-4 10-16v-13zm16 17-5 5-8 16-3 10 5-1 4-1 14 2h7l-1-7-8-21zm21 2-3 2v9l8 16 4 5 6-1 10-4 5-5v-3l-3-2 1-6-6-4-14-6zm33 14 1 2 1-2z" fill="#191C1A"/>
<path transform="translate(703,236)" d="m0 0h21l21 2 46 7 4 2-2 6-11 14-11 11-10 7-10 5-12 3-20 2-105 2-24 3-9 2h-3l-1-2h2l2-4h2l2-4 9-10 6-7 11-9 11-8 17-10 18-7 16-3z" fill="#35763F"/>
<path transform="translate(959,237)" d="m0 0h40l20 2 18 5 16 8 15 10 11 8 11 9 12 13 8 10v1h-6l-11-4-11-2-24-1-98-1-16-2-15-6-13-8-16-15-7-7-5-8 1-2 16-4 21-3z" fill="#35763F"/>
<path transform="translate(1250,836)" d="m0 0h1l1 11 4 21 4 4 8 1 4 1-5 10-10 17-11 17-13 18-9 12-11 13-11 12-7 8-7 7-8 7-14 12-4 3h-2v2l-21 14-11 6-15 6-11 3-11 4h-6l-2-1 1-6 5-6 5-5 10-13 4-5 5-5 9-10 16-16 8-7 12-11 24-24 7-8 9-10 8-11 10-15 10-18 9-16 12-20 2 3z" fill="#35773F"/>
<path transform="translate(838,1009)" d="m0 0h9l5 5 5 8 2 8v8l-2 9-6 8-3 3v2l10-5 4-1h21l9 2 2 4-6 7-17 8-9 2h-10l-6-2 1 12 7-1 4-4 7-1h16l10 3 3 2-2 4-8 7-13 6-9 2h-9l-7-2v13l10-4 6-3h18l11 3 3 2-2 5-9 6-16 7-9 2-7-1-4-3v9h74v1l-30 1-17 7-12 3-16 2-22-1-9-3-4-3-11-5-33-1v-1l69-1 1-8-7 4-9-1-16-6-13-7-3-5 3-3 6-2 7-1h17l12 6 4 1v-12l-10 2-9-1-13-5-11-6-5-5v-4l8-3 5-1h17l7 3 5 3 6 1v-12l-7 1h-13l-9-3-16-9-2-2v-6l3-2 7-1h21l15 6-7-8-4-8v-19l4-8 6-7z" fill="#42804C"/>
<path transform="translate(474,1667)" d="m0 0h17l12 4 4 6v2l5-3 11-7 7-2h13l10 3 8 7 4 9 2 18v49h-24l-1-1-1-49-4-8-5-3h-6l-6 4-4 5-1 3-1 11-1 38h-25l-1-2-1-48-3-8-3-2h-9l-6 4-3 6-1 5-1 44-1 1h-24l-1-2v-82h21l5 5 6-1z" fill="#0D0E0D"/>
<path transform="translate(615,1045)" d="m0 0 21 3 16 2 1 1 12 2 14 7h5l7-6 8 1 29 7 6 2 2 3 1 15v34l-1 9-7-1-10-5-8-7-2-1v-2h-2v-2l-4-2v-2l-4 1 3 10h-10l-21-6-11-4-7-6-5-5-7-4-1 3-11-1-26-13-7-4-10-5-9-6-7-4-9-6-2-5 1-1 16 1 25 5 9 3h2v-9z" fill="#35773F"/>
<path transform="translate(977,131)" d="m0 0 19 1 26 4 26 7 24 9 16 7 1 2-5 1-46 2-25 4-25 7-5 3-14 5-18 8-4 1h-57l-17-1 4-7 9-12 9-10 14-10 13-8 16-6 20-5z" fill="#35763F"/>
<path transform="translate(697,132)" d="m0 0h23l17 2 10 3 3 1v2l9 3 16 9 11 9 11 10 10 13 3 6-7 2-48 1h-17l-12-5-17-8-28-9-17-4-20-3-13-1h-37l5-5 37-14 21-6 21-4z" fill="#35763F"/>
<path transform="translate(413,1459)" d="m0 0 21 1v66l2 16 6 12 7 3h12l8-4 4-5 3-8 1-6v-75h26l2 2-1 76-3 16-6 12-7 8-11 7-9 3-18 1-12-2-12-6-8-8-7-14-3-12-1-9v-73z" fill="#0E100E"/>
<path transform="translate(1129,1041)" d="m0 0h2l1 4-10 8-7 4-8 5h-2v2l-11 6-14 8h-2v2l-22 11-7 2-7-1-3-3-9 9-4 5-8 4-29 8h-8l1-5 4-9-5 2-17 16-8 5-7 2-1-1v-53l3-7 25-6 13-4h5l2 6 5 1 10-5 11-4 18-3 17-3 9-1 5 1v9l10-1 27-9 14-4z" fill="#35773F"/>
<path transform="translate(1034,1631)" d="m0 0h11l14 1 1 77 2 10 4 6 8 4 9 1 9-3 6-5 3-8 1-15 1-68h25l1 1v71l-1 16-4 10-7 11-7 7-12 6-8 2-11 1-14-2-12-5-10-9-6-10-3-9-1-5-1-83z" fill="#0C0C0C"/>
<path transform="translate(270,1629)" d="m0 0h18l12 3 8 6 6 7 4 8-1 3-16 7h-7l-6-7-7-3-8 1-7 4v7l3 6 23 10 14 7 10 9 5 8 2 8v10l-2 9-6 9-8 7-10 5-15 3-13-1-14-5-10-8-6-8-4-7v-7l8-4 12-4 4 1 6 10 5 4 5 2h10l6-3 3-3v-7l-3-5-6-5-26-11-9-6-8-9-4-11v-12l4-11 9-10 10-5z" fill="#171918"/>
<path transform="translate(1131,248)" d="m0 0 13 1 16 4 8 4 2 5 4 2 18 22 12 16 11 16 10 16 11 19 8 16 5 13 1 8-2 2-6-1-11-7-13-10-11-9-6-5-1-2-5-3-10-11-10-16-12-19-4-6-8-11-9-12-8-10-6-10 2-11z" fill="#FDEC61"/>
<path transform="translate(937,1138)" d="m0 0 1 3-13 10-22 15-31 19-14 8-10 2h-10l-13-4-19-9-9-6-15-9-22-16-8-6-5-3v-3h20l33 1 20 10 4 1 22 1 16-2 12-3 10-4 7-3 30-1z" fill="#AA2E28"/>
<path transform="translate(1291,700)" d="m0 0 4 5 5 8 5 3 6 1 6-3 4-5 1-2h2v9l-5 29-8 30-14 37-13 28-9 16-8 8h-4l-1-4v-47l4-33 7-31 7-25 8-20z" fill="#FDEE63"/>
<path transform="translate(1347,701)" d="m0 0 4 2 7 11 6 3 8-1 9-9v12l-4 22-7 28-10 30-10 23-9 19-10 17-4 5-5 2-2-3-1-8v-26l2-28 4-27 9-38 6-18 5-13z" fill="#FDEF65"/>
<path transform="translate(1191,848)" d="m0 0h2l4 18 3 6 3 2 12-1-1 5-13 20-10 13-11 13-11 12-7 7-7 8-13 12-22 18-12 7-5 1-2-1v-7l6-15 13-27 8-13 12-19 16-21 9-11 9-10z" fill="#FDEC63"/>
<path transform="translate(1234,699)" d="m0 0 2 2 6 12 7 4h7l6-6 2-5 2 1v12l-6 31-9 31-8 22-9 21-10 21-6 10-7 8-4 1-2-4-1-7v-31l3-29 6-33 6-25 6-18 8-17z" fill="#FDEF66"/>
<path transform="translate(1342,539)" d="m0 0 14 12 4 2h8l7-9 2 2 3 20 2 20v47l-2 22-5 32-4 13-3 6h-3l-5-8-4-11-6-21-5-24-4-25-3-36v-13l1-15z" fill="#FDEE64"/>
<path transform="translate(1091,939)" d="m0 0h6l1 5-5 15-7 15-6 11 1 2 6 3-2 5h-2l-2 4-17 11-10 7-2 4 5 1v5l-9 6-10 4-10 5-16 6-7-1-9-2-11 2-30 8-4-1 1-25 4-1h21l21 1 9-1v-2l-11-3-7-2v-2l-4-1 1-4 16-9 4-4 9-4 9-5 23-1 9-3 3-4-10-3 1-5 4-4h2l2-4 14-10 5-5 5-4 4-5z" fill="#35773F"/>
<path transform="translate(506,931)" d="m0 0 6 4 26 26 8 7 10 9 6 4 1 3-7 2-12 2 8 2h16l12 6 9 6 5 7 3 8 7 14 3 4v6l-3 3-13 1-14-3-14-2h-12l-9 1h-3l-1-2v-7l9-4 1-2-8-2-11-5-8-7-5-5v-2h-2l-8-11-1-1v-10l4-4 2-1-1-6-2-5-3-15v-15z" fill="#35773F"/>
<path transform="translate(609,1667)" d="m0 0h19l13 4 9 6 6 9 1 4 1 19v43l-1 1h-22l-2-7-7 4-8 5-9 2-7-1-12-5-8-8-4-9-1-9 2-8 6-9 8-6 10-3 13-1 17 2-2-5-6-5-2-1h-15l-10 6-6-1-12-10 2-4 8-6 8-4zm5 49-8 5-2 3 1 8 4 4 9 1 8-4 4-5 1-6-4-4-5-2z" fill="#101211"/>
<path transform="translate(1284,540)" d="m0 0 7 6 5 4 8 3h6l5-4 2-3h2l1 6h-4l-1 2 6-1 3 20v67l-2 20-5 29-5 15-2 2-4-1-5-10-8-27-4-17-5-32-2-14-1-13v-30l1-16zm-1 7 1 6h1v-6z" fill="#FDEE64"/>
<path transform="translate(1226,539)" d="m0 0 7 5 4 5 5 3 13 1 2-5 3-3 3 4 2 17 1 2 1 27v32l-2 28-3 20-4 19-3 8-3 4-4-1-7-16-7-25-5-26-4-32-1-15v-35l1-15zm33 12v5l2 1 1-4-1-2zm4 19v28l2-2-1-26zm-16 127 1 2 2-1z" fill="#FDEF65"/>
<path transform="translate(799,1494)" d="m0 0 11 1 12 4 11 7 6 8 5 12 1 5v14l-1 1h-59l2 7 6 6 11 2 8-2 9-7 8 1 9 4 4 3v5l-7 8-10 7-9 3-9 1h-10l-11-2-8-4-9-8-6-10-4-10-1-5v-12l4-13 6-9 9-8 11-6zm0 21-8 4-6 7 1 3h32l2-1-2-5-8-7z" fill="#151716"/>
<path transform="translate(1202,385)" d="m0 0 6 5 8 15 8 19 8 22 4 13 1 4 6 21 5 25 2 14v15l-3 5-5-3-8-8-10-14-11-18-6-10-13-25-9-21-7-19-6-20-1-9 6 2 11 4h9l4-4 1-5zm32 83 2 2v-2zm5 11 1 2zm0 3 1 3 1-3zm8 42 1 3zm-3 13-1 3 4-1 1-2z" fill="#FDEE63"/>
<path transform="translate(1317,385)" d="m0 0 6 5 11 22 11 27 9 29 7 30 3 18 1 10v14l-1-2h-5l-2 2-9-10-13-18-7-11-6-11-11-21-11-25-4-11-8-24-2-7v-5l6 1 11 4h9l4-3 1-9zm-25 19 1 2h3v-2z" fill="#FDEE64"/>
<path transform="translate(934,1667)" d="m0 0h15l14 3 8 5 7 8 3 8 1 20v41l-1 1h-19l-5-2-1-4-12 7-7 2h-10l-11-4-8-7-4-6-1-4v-16l3-7 4-5 14-7 5-1h19l7 1-1-9-6-2h-13l-13 5-5 1-4-5-7-5 1-5 6-5 12-6zm7 49-9 3-3 3v8l4 5 2 1h10l8-5 3-5-1-5-4-3z" fill="#151716"/>
<path transform="translate(778,1667)" d="m0 0h13l13 4 9 7 6 8 5 11 1 4v15l-1 1h-61l9 11 6 4 9 1 8-4 6-6 7 1 9 4 5 4-1 6-8 8-10 6-9 3-5 1h-13l-12-4-10-7-6-5-6-10-3-10v-14l2-10 6-12 8-8 14-7zm4 20-9 2-5 5-1 6 3 1h27l3-1-1-5-4-5-4-2z" fill="#131414"/>
<path transform="translate(1403,1667)" d="m0 0h14l14 3 10 6 7 10 2 13v53l-1 1h-19l-5-3-1-2-5 1-8 5-9 2-10-1-8-4-7-6-5-8-2-8 1-9 4-9 8-7 9-4 11-2 11 1 9 1v-6l-1-3-10-3h-8l-9 3-5 3h-5l-7-6-3-2v-6l6-5 12-6zm3 49-8 4-2 3v7l5 6 3 1h7l8-4 5-6v-6l-6-4-4-1z" fill="#141615"/>
<path transform="translate(1152,1495)" d="m0 0h14l14 3 9 6 6 7 4 12 1 38v18l-1 1h-21l-4-2h-6l-10 5h-16l-8-3-8-6-4-6-2-7v-13l4-9 9-8 8-3 5-1h15l5 1h9l-4-8-6-3-4-1h-9l-12 6h-6l-12-9 2-4 7-6 12-6zm4 50-8 2-3 4v7l3 5 8 3 5-1 8-4 3-3 1-3v-7l-2-2-4-1z" fill="#0F100F"/>
<path transform="translate(1244,1667)" d="m0 0h11l15 3 8 4 7 7 4 9 1 62-1 1h-20l-4-2-1-3-5 1-8 5-7 2h-9l-10-4-8-7-4-5-3-7v-12l4-9 4-5 8-5 11-3h16l10 1-1-7-3-3-6-2h-10l-8 3-7 4-4-2-9-6-1-6 7-6 13-6zm2 49-6 3-4 4v8l5 5 9 1 10-5 4-6-1-5-5-4-3-1z" fill="#111211"/>
<path transform="translate(456,962)" d="m0 0 4 2 9 10 32 32v2l4 2 1 3 4 2 3 3v4h-8l-7-1 4 4 3 1 15 1 7 3 1 4-1 5 5 5 9 7 2 3 3 19 6 16 1 7-3 1-14-7-9-4-19-8-4-3-4-2v-2l-4-1-13-9-6-4v-4l9-4 5-1-7-4-8-7-6-5-12-15v-5l3-1h3l-3-9-6-12-2-12 1-10z" fill="#35773F"/>
<path transform="translate(1260,386)" d="m0 0 4 2 10 19 9 21 7 20 6 19 1 7-1 2h2l2 8v5l-1 4 3-1 4 21 1 10v16l-3-3h-4l-1 3-8-8-22-33-11-20-13-28-8-20-7-22-2-12 5 1 7 4 4 1h13zm-24 30m1 2m38 3 1 2zm7 12m1 1 1 3zm-40 2-1 2 6 9 3 7 1-3-3-8-5-7zm19 40 1 3v-3zm34 1 1 2zm1 6 1 2zm-30 2 1 3v-3zm5 1-3 2 1 4 4 7 1 4 6 5-2-5-5-11 1-5zm26 0m-23 5m6 17 1 3v-3zm2 3 2 4 4 4-2-5zm21 2-1 3h2z" fill="#FDED63"/>
<path transform="translate(334,1670)" d="m0 0h26l1 50 3 8 3 2 7 1 7-3 5-5 2-4 1-9 1-39 1-1h25l1 82-1 1h-18l-5-1-3-6-5 3-7 5-7 2h-13l-8-3-10-9-5-10-1-4-1-58z" fill="#191B1A"/>
<path transform="translate(568,1493)" d="m0 0h7l12 5 6 4 6 7 3 9 2 12v30l-1 20-2 1h-22l-2-2v-49l-4-7-5-3h-7l-7 4-4 5-1 4-1 47-1 1h-25v-83h22l2 5h6l10-7z" fill="#111211"/>
<path transform="translate(663,983)" d="m0 0 24 1 22 4 22 6v2l5 1 1 9v42l-2 3-13-1-8-4-9-6-3-5-2-4-4-1-2-1-1 7-7 1-32-16-14-8-8-5-11-7-5-3v-2l-6-2-1-3-4-2v-4l21 2 19 3 13 4 4-1-2-8z" fill="#35773F"/>
<path transform="translate(555,1847)" d="m0 0 12 1 1 1 2 16 3 7 3-6 3-18h13l1 1 3 19 3 7 2-6 5-21 2-1h23l2 1 5 26 2 1 4-24 1-3 3-1h7l2 1 4 14 3 12 2-3 3-12 2-11 1-1h24l2 2 5 24 1 2 4-13 3-14h12l2 7 2 13 1 3 4 1 2-12 1-11 1-1h12l-2 12-8 31-2 1h-10l-3-2-5-22-2-2-6 25-1 1h-10l-3-3-9-33-3-6-2 3-7 26-3 11-2 2h-10l-3-5-5-22-3 8-4 16-2 3h-9l-3-2-7-24-4-15-2-1-2 3-6 25-4 12-3 2h-8l-3-2-5-22-3 3-4 16-2 5h-11l-2-2-7-25-3-14z" fill="#242724"/>
<path transform="translate(1186,261)" d="m0 0 7 1 28 10 18 8 9 6 9 10 11 15 12 18 12 21 12 25 4 12v4h-7l-17-10-11-9v-2l-4-2-14-12-13-13-10-15-11-18-7-10-11-15-16-21z" fill="#FDED62"/>
<path transform="translate(1242,1495)" d="m0 0h11l14 3 10 6 5 4 1 5-4 4-8 5-9-1-10-4h-11l-1 5 9 4 18 5 10 5 6 7 3 9v8l-3 7-7 8-7 5-12 3h-19l-11-4-9-6-7-9-1-4 16-8h7l9 7 3 1h11l3-2-1-6-6-3-18-4-14-7-4-5-2-8v-9l3-8 5-5 6-4z" fill="#161716"/>
<path transform="translate(956,1494)" d="m0 0 11 1 13 4 9 6 4 4 1 3-3 5-11 5-8-1-8-4-5-1-7 2-2 4 13 5 16 4 10 6 6 7 2 5v12l-4 8-9 9-10 4-5 1h-20l-11-4-8-6-6-7-2-4 1-4 15-6 7 1 6 5 6 2h11l2-1-1-6-4-3-18-4-16-8-4-6-1-3v-18l3-5 5-4 7-4 13-3z" fill="#171917"/>
<path transform="translate(1078,245)" d="m0 0h10l10 5 11 9 12 11 9 10 11 14 15 22 10 15 11 19 8 15 3 10 4 8 1 5-2 3h-7l-17-12-14-12-10-9-8-7-20-20-7-8-6-7 1-2 16 8 5 4 2 1h7l-1-6-12-20-10-13-9-11-12-12-11-9-6-5v-2zm33 78 1 2h3l1 3 1-2-3-3z" fill="#FCEA5F"/>
<path transform="translate(659,1498)" d="m0 0h28l4 4 4 12 8 21 3 5h3l6-14 11-27 5-1h18l7 1-3 10-15 32-13 30-4 9-2 1h-24l-8-16-12-27-12-28-5-11z" fill="#111311"/>
<path transform="translate(646,661)" d="m0 0h8l5 2 3 8 8 26 2 9 8 24 7 11 6 5 5 2h13l5-3 3-4v-12l-6-23-9-29-3-14 7-2h8l3 2 8 26 6 19 5 19 1 14-2 10-7 8-12 5h-15l-15-4-11-7-7-7-8-14-6-16-13-45-1-9z" fill="#050405"/>
<path transform="translate(971,661)" d="m0 0h9l3 3-11 37-5 17-2 8v17l4 4 12 2 9-3 8-7 6-10 7-21 10-35 3-9 8-3h7l3 1-1 8-14 47-5 15-6 10-12 13-10 6-9 3h-15l-12-3-5-3-7-8-1-5v-16l4-16 10-33 6-17z" fill="#050405"/>
<path transform="translate(1173,1644)" d="m0 0h6l1 2v23l19 1 2 1-1 20h-20l1 32 1 6 11 1h5l3 8 3 13-6 3-8 2h-12l-10-4-8-7-5-10-1-7v-31l-1-6-12-1-1-1v-19l14-1-1-24z" fill="#141715"/>
<path transform="translate(683,1644)" d="m0 0 25 1v24l20 1 1 3-1 18h-20l1 32 2 6 14 2 3 3 2 10v7l-5 3-6 2h-14l-8-3-8-7-5-8-1-4-2-43h-14v-21l15-1v-24z" fill="#141614"/>
<path transform="translate(1064,1472)" d="m0 0h25l1 25 19 1 1 5v10l-1 6h-20l2 35 1 4 15 2 2 2 4 12v6l-4 2-6 1h-18l-10-5-7-8-4-11v-39l-14-1v-21l13-1z" fill="#0A0B0B"/>
<path transform="translate(837,440)" d="m0 0h19l12 3 2 4-1 7-4 4-8-1-9-2-9 1-7 4-2 4v7l5 5 16 8 13 7 7 8 4 11v7l-4 11-7 8-8 5-6 2h-24l-12-3-4-4 1-11 1-1h7l10 3 13 1 8-3 4-5 2-5-1-5-5-6-28-14-8-8-3-8v-11l3-7 4-6 8-6z" fill="#060406"/>
<path transform="translate(583,892)" d="m0 0 11 1 13 10 10 9 16 12 20 14 14 9 15 9 21 9 28 10 5 4v8l-6-1-21-5-19-4-18-2-17-8-4-4-6-5-3-3-2-5-3-3-7-9-2-1-2 4-7-3-10-7-8-6-22-22-4-3v-2l-5-2 1-2z" fill="#2D6A35"/>
<path transform="translate(565,900)" d="m0 0 4 2 18 18 4 3v2l4 2 10 9 13 10 8 6-2 4-12 3h-4v2l15 1 10-2 6 1 6 5 9 5v2l3 1-1 6-1 2-5 1-21-3-33-3-10-6v-2h-2v-2l-4-2-3-3v-2l-4-2-2-3v-5l8 1-7-13-7-14-1-4v-18z" fill="#35763E"/>
<path transform="translate(1350,1667)" d="m0 0h11l7 3 1 6-4 10-1 5-5 1h-13l-6 3-4 5-2 5-1 8-1 39-1 1h-22l-2-1-1-46 1-36h21l4 5 5-1 8-5z" fill="#0F1010"/>
<path transform="translate(880,1667)" d="m0 0h10l8 1 2 4-3 16-2 4h-17l-8 5-4 7-1 4-1 44-1 1h-23l-1-1-1-75 1-6 8-1h13l3 4h6l9-6z" fill="#161917"/>
<path transform="translate(901,1495)" d="m0 0h9l9 3 1 1-1 8-3 12-6 1h-11l-7 2-6 7-1 5-1 46-15 1-11-1v-79l1-3h21l3 7 4-1 10-7z" fill="#111212"/>
<path transform="translate(902,490)" d="m0 0 7 1 16 8 12 7 13 10 12 11 10 11 12 17 9 16 5 11 4 11 4 14 4 21v5l-6 3-5-1-5-24-5-17-8-18-9-16-9-12-12-14-10-9-16-11-25-14-3-3 1-3h2z" fill="#060506"/>
<path transform="translate(775,491)" d="m0 0h7l3 3v5l-8 5-20 11-11 8-14 12-10 11-11 15-8 14-9 23-4 16-5 22-4 1-5-3-1-2v-8l5-24 7-21 11-21 10-14 11-13 13-13 13-10 18-11z" fill="#060506"/>
<path transform="translate(623,1497)" d="m0 0 25 1v82l-5 1h-20l-1-1v-82z" fill="#0B0D0C"/>
<path transform="translate(1011,1497)" d="m0 0 25 1v82l-2 1h-20l-4-1v-82z" fill="#131213"/>
<path transform="translate(921,781)" d="m0 0 4 1 1 9-5 4-19 8-19 6-14 3-9 1h-35l-19-3-21-6-21-9-4-4 1-8 5-1 30 12 21 5 7 1h38l20-4 12-4z" fill="#070507"/>
<path transform="translate(615,1045)" d="m0 0 21 3 16 2 1 1 12 2 14 7h5l7-6 8 1 29 7 6 2 2 3 1 15v34l-1 9-7-1-10-5-8-7-2-1v-2h-2v-2l-4-2v-2l-4 1 3 10h-10l-21-6-11-4-7-6-5-5-7-4-1 3-11-1-26-13-7-4-10-5-9-6-7-4-9-6-2-5 1-1 16 1 25 5 9 3h2v-9zm4 3-3 2 1 7-2 2-10-2-17-5-6-1h-8l-3 1 1 5 4 2 10 6 25 14 10 5 9 3v-2l3-1 1-3 6 1 4 1v2l9 7 8 9 13 5 13 4h5l2-3-5-9-4-5-1-3 10 2 11 8 5 4 7 8 9 7 4 2h4v-47l-4-5-10-3-17-5-10-1-4 9-3 1-5-2-9-6-10-5-14-3-7-2-8-1-1-1z" fill="#26542E"/>
<path transform="translate(744,1042)" d="m0 0h1l1 83 1 17 5 2 8 6 22 16 15 9 13 8 17 8 11 3h10l12-3 16-9 4-2v4l-4 2-1 2h-2l-1 5 3 1-16 8-12 3h-11l-13-4-17-8h-9l-6 2h-41l-12-1v-1l8-1h19l2-5 6-2 13-1 5-2-7-4-22-15-16-11-5-4-5-6v-3l8-1-1-29-1-3 1-6v-25-3z" fill="#1D191E"/>
<path transform="translate(1098,931)" d="m0 0h3v9l-5 16-6 15-7 12v3l7 3v5l-7 6-20 13-6 5-1 2 5 1 2 4-4 5-8 5-16 8-20 7-11-1-5-2h-9l-25 7-12 3-2 5-2 1-1-5v-42l1-37 10-4 3 1-10 4h-2l2 7-1 2-1 29 9-4 13-18 9-10 3-3 7-1-1 6-3 6-1 7 11-5 11-6 9-6 3-3 3-7 1 3-4 8-10 7-28 16h-2l-1-6-8 2-2 4-2 5-5 4-7 3h-3v5h17l14 2h18l-3-2-18-5-1-3 9-6 13-7 2 1-15 9h-2v4l3 1v2l7 1 11 4v2l-9 2-21-1h-25v25l10-2 26-7 10-1 9 3 8-1 15-6 14-7 8-3 3-3h2v-5l-5-1 1-4 5-4 24-16 1-2h2l1-5-6-3-1-2 6-11 7-15 5-15-1-4-5-1-2 4-5 4-2 3-6 5h-2l-2 4-15 11-5 5-3 6 10 3-2 4-6 3-4 1-23 1-11 6-2-1 11-8 26-1 8-3-5-1-9 1-4-2 1-4 7-7 13-10 14-12 4-3h2v-2l12-9z" fill="#25532D"/>
<path transform="translate(550,1055)" d="m0 0 5 1 10 5 12 7 8 4 13 8 15 8 16 8 11 5-2 4-11 6v1l9-1 13-4h6l25 8 15 5 8 2-1 4-13 8-1 1h7l18-5 6-1h12l9 6-3 2 2 2h-3l3 5 4 5 16 11 28 19 5 3-3 2-3 1-13 1h-20l-11-2-14-1-13-3v-1l14 1 23 2 24 1 2-6-8-7-13-8-13-10-6-4-1-4h-2l-1-8-6-3-12 1-16 4-16 3-5-2-1-3 17-9 2-4-13-3-27-9-1-1-10 1-14 4h-8l-3-2 2-4 8-4 1-4-19-10-16-8-11-6-4-2v-2l-6-2-10-6-7-3-6-1 2 10 9 16 3 2v2l4 2 3 5v10l2 4 7 4 7 3 14 7 7 3-4 4-4 1-1 3 5 3 11 4 16 4 33 6 16 3 2 4-5 5-2 3 9 3 16 4v1l-9-1-15-3-4-2v-6l4-2v-4l-11-1-16-3-13-2-16-3-15-5-9-4-3-3 1-4 4-2-1-5-5-1-16-8-8-5-5-3-2-6 4-4 1-5-5-1-9-14-5-13-1-11z" fill="#26542E"/>
<path transform="translate(1129,1041)" d="m0 0h2l1 4-10 8-7 4-8 5h-2v2l-11 6-14 8h-2v2l-22 11-7 2-7-1-3-3-9 9-4 5-8 4-29 8h-8l1-5 4-9-5 2-17 16-8 5-7 2-1-1v-53l3-7 25-6 13-4h5l2 6 5 1 10-5 11-4 18-3 17-3 9-1 5 1v9l10-1 27-9 14-4zm-16 6-10 4-12 4-6 3-5 1h-10l-5-1 3-5v-5l-15 2-32 7-10 5v2l-6 2-7 3h-4l-2-11-7 1-24 6-7 2-3 4-1 3v45l1 2 7-1 18-18 13-10 3-1h8l-2 4-8 10-1 3h2v2h7l10-4 8-2 6-3v-2l4-2 5-5 1-3 5-2 7-5h6l1 6 10-3 19-10v-2l4-1 16-9 10-7 6-5-1-4z" fill="#25532D"/>
<path transform="translate(602,997)" d="m0 0 7 1 6 5 6 3 9 6 10 6 15 8 11 5 12 6 7 4 1 5-6 4h-9l-21-6-29-6-4-3v-3h-2v-2l-5-2-4-6-5-10-1-9z" fill="#35773F"/>
<path transform="translate(630,741)" d="m0 0 2 1v2l3 1 2 7 4 5 6 12 6 9 13 17 16 16v2h2l5 5 1 3 4 2 11 8 8 6 5 4 9 5 4 3 11 6 14 7 12 4 11 3 12 3 3 3-6 1-9-2-14-3-5-3-17-6-16-8-13-5-5-4-11-8-8-5-3-1v-2l-4-1-9-7v-2l-4-2-11-11-4-5v-3l-4-2-9-14-5-16-4-11-5-13z" fill="#050405"/>
<path transform="translate(678,1847)" d="m0 0h18l2 2 5 24 1 2 4-13 3-14h12l2 7 2 13 1 3 4 1 2-12 1-11 1-1h12l-2 12-8 31-2 1h-10l-3-2-5-22-2-2-6 25-1 1h-10l-3-3-9-33-3-6-3 3-1-5z" fill="#2A2E2B"/>
<path transform="translate(624,1847)" d="m0 0h7l2 1 5 26 2 1 4-24 1-3 3-1h7l2 1 4 14 3 12 2-3 3-12 2-11 1-1h6l3 3v8l-8 27-2 6-1 1h-10l-3-5-5-22-3 8-4 16-2 3h-9l-3-2-7-24-2-7v-10z" fill="#222623"/>
<path transform="translate(1135,1050)" d="m0 0h3v7l-8 19-6 10-6 8-3 5v5h2l-1 6-8 6-19 10-7 1 5 9v3l-5 3-18 5-4-1 13-4 8-3h2l-3-6-6-2v-3l13-5 7-3 12-6 4-6v-7l5-9 7-9 5-10h2l1-5 3-8v-4l-8 4-14 10-7 4-10 7-23 11-15 7-4 4 3 3 9 4v3l-5 2-10-1-12-3h-11l-11 4-20 6-7 4 3 3 1 2 5 2 7 4 2 2v3h-12l-24-6-10-3-5-2v2h-2l-2 4-2 9-12 11-11 9h-2v2l-10 6h-3l-2 4-3 2-1 5 15-1h30v1l-19 2h-36l-3-2 5-4 15-11 11-7 16-12 7-6 2-6-3-1 6-7 6-2h11l24 8 5 1v-3l-5-2-13-7 1-3 18-5 30-9h8l15 4h8l1-1-17-7v-3l12-5 19-9 10-6 11-6 16-10 15-10z" fill="#26542E"/>
<path transform="translate(1119,1831)" d="m0 0h10l1 1v60l-17 1h-15l-8-7-3-6v-17l3-9 8-7 4-1h7l10 3zm-13 25-4 2-4 8v11l3 6 2 1h9l5-4 2-5v-10l-5-7-4-2z" fill="#242825"/>
<path transform="translate(1031,664)" d="m0 0h7l1 1-1 9-2 12-9 31-7 16-12 16h-2l-2 4-11 7-9 2-10-3 1-4 5-3 11-4 3-1v-2h2l1-3 5-5 12-27 4-13 2-6 1-7 2-5 2-11 3-2h3z" fill="#050405"/>
<path transform="translate(1308,856)" d="m0 0h2l3 9-1 3-1 2-3-1-4 1v2l-4 2-7 4-3 5h-2v3h-2l-2 5-3 1-2 6-2 1 1 3-3 2v3l-4 4h-2l1 3-3 1-1 3h-2l1 4h-2l-1 5-4 1-1 3-3 1 1 3-1 3-10 10h-3l-1 3h-2l-2 5h-2v3h-2l-2 5-4 4h-2v3l-9 9-2 6-3 3-1 3h-2l-2 4h-2l-2 5-4 4-1 2h-3l-1 4h-2v3l-5 4-3 5-4 4-2 4h-2l-2 5h-2l-1 5h-2l-2 5-5 3-1 2h-2l-1 5-7 2-1 6v3l-3 5v5l1 2 3 1 2-4 4-4 4-1-1 4 6-2-3 3-18 8h-4v-8l6-17 7-13 12-14 14-15 7-8 7-7 9-11 11-12 9-11 14-17 20-26 12-16 14-19 12-15 7-9 6-7z" fill="#26542E"/>
<path transform="translate(519,1338)" d="m0 0h169l9 1 6-1h280l7 3 1 38-8 1-1 1h-281l-22-1v-1l308-1 1-37-294 1-2 1-1-2h-297l-1 1-1 20h-1v-23z" fill="#F4E05A"/>
<path transform="translate(738,346)" d="m0 0 5 1 2 6 2 28v21l-5 5-3 1h-8l-12-16-9-11-11-13-1-5 6-3h7l6 7 13 18 3 5 2 1-1-3-1-17-2-13v-5l5-6z" fill="#FDFDFD"/>
<path transform="translate(961,1846)" d="m0 0h12l7 3 4 4 1 3 1 35-1 1-15 1-4 1h-11l-5-3-3-4-1-12 3-5 6-4 10-2h8l-1-8-10 1-8 4h-7l1-6 5-6zm6 26-7 2-2 2v7l5 3 5-1 5-4v-7l-3-2z" fill="#232724"/>
<path transform="translate(838,1009)" d="m0 0h9l5 5 5 8 2 8v8l-2 9-6 8-3 3-2 3-2-2h-5l-2 1-7-8-4-8v-19l4-8 6-7z" fill="#AE362C"/>
<path transform="translate(475,337)" d="m0 0h10l8 4 6 9 1 3v9l-4 8-7 5-11 2-9-3-7-8-2-5v-8l4-8 7-6z" fill="#FDEB61"/>
<path transform="translate(426,840)" d="m0 0h10l8 5 5 7 1 4v9l-4 8-6 4-3 1h-15l-7-3-5-10v-10l6-9 6-4z" fill="#FCEA61"/>
<path transform="translate(776,1847)" d="m0 0h10l2 1v35h8l7-1 1-34h12v44l-19 1h-13l-5-3-4-10v-32z" fill="#3F4340"/>
<path transform="translate(839,1846)" d="m0 0h12l8 3 4 5 1 6-1 1h-7l-8-4-5-1-5 2v4l17 4 8 4 2 4v9l-4 6-5 4-3 1h-16l-8-4-3-5v-8l7 1 8 6 5 1 6-1v-5l-7-3-12-4-7-5v-9l3-6 5-4z" fill="#222623"/>
<path transform="translate(396,494)" d="m0 0h8l10 6 4 5 2 6-1 10-6 8-4 3-3 1h-13l-8-5-4-6-1-3v-11l4-6 9-7z" fill="#FDEC62"/>
<path transform="translate(380,670)" d="m0 0 9 1 7 5 5 8 1 3v8l-5 9-4 3-5 2h-14l-8-7-4-8v-9l7-9 8-5z" fill="#FDED63"/>
<path transform="translate(874,1847)" d="m0 0 11 1 1 1v32l5 2 10-1 1-34 10-1 2 2 1 42-1 1-20 1h-12l-6-5-2-7-1-33z" fill="#111411"/>
<path transform="translate(776,337)" d="m0 0 3 1 10 7-2 1 1 10 20-1 2 5v4l-5 2-14 2v12l11-1 4-1h8l1 9-5 2-25 4-5-1-3-16-4-32-1-5z" fill="#FDFDFD"/>
<path transform="translate(515,926)" d="m0 0 7 1 8 3 27 18 4 5 7 10 13 13 7 5-1 7-2 3-5-1-11-8-1-3-4-2-5-4v-2l-4-2-10-9-15-15-7-8-5-5-3-5z" fill="#26542E"/>
<path transform="translate(1032,661)" d="m0 0h7l3 1-1 8-3 10h-1l1-15h-6l-6 3-3 15-1 1-2 10-3 10-8 20-8 16-5 5h-2v2l-10 5-8 3-2 4 12 2 11-4 8-6 1-2h2l2-4 9-12 5-12 1 3-5 12-6 8-10 11-10 6-9 3h-15l-12-3-5-3-7-8-1-5v-16l4-16 10-33 2 1-6 21-3 12h-2l1 4-1 3v3l-1 2h-2l1 12 4 8 3 5 5 1v-13l2-13 5-17 2-1-1 7-3 11v17l4 4 12 2 9-3 8-7 6-10 7-21 10-35 3-9z" fill="#140912"/>
<path transform="translate(1009,1846)" d="m0 0h10l10 4 4 6 1 5-2 3-4 1-6-4-5-4-7 1-3 4-1 3v12l3 5 4 2 5-1 4-4 2-4h7l3 2-3 9-5 6-5 2h-14l-6-3-6-7-2-8v-11l3-10 5-5z" fill="#2C2F2C"/>
<path transform="translate(663,983)" d="m0 0 24 1 22 4 22 6v2l5 1 1 9v42l-2 3-13-1-8-4-9-6-3-5-2-4-4-1-2-1-1 7-7 1-32-16-14-8-8-5-11-7-5-3v-2l-6-2-1-3-4-2v-4l21 2 19 3 13 4 4-1-2-8zm4 2-2 2v10l-9-1-13-4-19-3h-9v5h3l1 3 11 7 5 2 3 3 11 6 18 10 13 5h6l1-3v-4h5l9 6 8 7 3 1v3l17 8 5-1 1-7-1-34-3-9-10-4-19-5-22-3z" fill="#26542E"/>
<path transform="translate(1250,909)" d="m0 0v3l-12 17-10 14-9 11-9 10-12 14-10 10-8 7-14 12-4 3h-2v2l-21 14-11 6-15 6-11 3-11 4h-6l-2-1 1-6 5-6 5-5 10-13 4-5 5-5 9-10 16-16 8-7 12-11 24-24 7-8v3l-4 6h-2v2h-2l-2 4-6 5-1 2h-2v2h-2l-2 5-6 5-5 5-10 9-14 14-7 9h-2l-1 3-3 2-2 4h-2l-2 4-5 4-1 2h-2l-2 5-5 5-7 9-2 4 9-2 7-3 17-5 16-8 8-5h3v-2l14-11 5-4 3-3h2v-3l7-4 17-17 7-6 7-8h2l1-4 5-6h2l1-4 5-6 2-5h2l1-4 5-5h2l2-6 5-4z" fill="#26542E"/>
<path transform="translate(506,931)" d="m0 0 6 4 26 26 7 6h-3l-13-12-6-5-7-8-5-4-3-1-1 5v9l3 14v4l3 1v9l-2 5h-2l2 10 8 11 11 11 12 6 9 4-2 4-3 3 3 2h10l20 2 14 3h7l3-3-3-6-3-3-6-15-4-7-7-6-8-4-3-1v-2l-19-1-10-3-1-3 15-3h4l-5-6-6-5v-2l4 2 8 7 4 4-2 2-17 3 8 2h16l12 6 9 6 5 7 3 8 7 14 3 4v6l-3 3-13 1-14-3-14-2h-12l-9 1h-3l-1-2v-7l9-4 1-2-8-2-11-5-8-7-5-5v-2h-2l-8-11-1-1v-10l4-4 2-1-1-6-2-5-3-15v-15z" fill="#26542E"/>
<path transform="translate(583,906)" d="m0 0 4 2 9 9 11 9 9 7 7 3 1-5 8 5 9 10 7 9v2l4 2 11 8 14 5 27 4h7l3-2h3l-1-2-26-9-13-6-11-7-10-6-7-3v-2l-5-2-6-4-13-12-9-7-5-4v-2l4 2 16 13 11 7 11 8 14 9 15 9 21 9 28 10 5 4v8l-6-1-21-5-19-4-18-2-17-8-4-4-6-5-3-3-2-5-3-3-7-9-2-1-2 4-7-3-10-7-8-6-18-18z" fill="#25532D"/>
<path transform="translate(782,1227)" d="m0 0h6l-1 3 6-2h72l18-1h13l2 4h-2v3l-5 1-4-4v2l-17 5-21 1h-20l-20-1-7-1-2-4h-2l-1 2-15-2-3-1-1-3z" fill="#141815"/>
<path transform="translate(456,962)" d="m0 0 4 2 9 10 32 32v2l4 2 1 3 4 2 3 3v4h-8l-7-1 1 3-5-2v-3l12-1-2-5-2-4-4-2-8-7-9-6v-2l-4-1-1-2-4-1-1 4 5 5-3 1-5-2-2 1-1-4-1 4 4 8 1 7-1 3-1 7 3 1-1 3 4 4 3 6-4-2-11-13-3-4v-5l3-1h3l-3-9-6-12-2-12 1-10z" fill="#2D6935"/>
<path transform="translate(841,272)" d="m0 0h2v2l7 1 6 7 11 6v2l6 3v2l4 1 3 3v2l5 2 4 6-2 1-3-2-9-2-10-4-3-2v-2l-5-1 1-5-4-1-8-6h-7l-9 6-4 2v3h24l6 1v1h-6v2l-2 1h-20l-5-2-9-4v-4l16-12 6-3z" fill="#060606"/>
<path transform="translate(630,1458)" d="m0 0h9l6 3 4 5 2 5v7l-3 7-5 4-3 1h-9l-7-3-4-5-2-10 3-8 6-5z" fill="#292B2A"/>
<path transform="translate(1020,1458)" d="m0 0 10 1 6 4 3 6v8l-3 7-5 4-5 2-9-1-6-4-3-4-1-3v-9l4-6 6-4z" fill="#292C29"/>
<path transform="translate(565,900)" d="m0 0 4 2 18 18 4 3v2l-4-1-7-8-7-1-4 2 1 10 4 10 7 13-1 3-4 1v5l4 2 10 9 6 3 44 6 12 1v-5l-2-1v-2l-6-1v-2l-8-4v-2l-8 1h-14l-10-2v-3l6-1v-2l6-4-2-4-2-5h-2v-2l4 2 12 9-2 4-12 3h-4v2l15 1 10-2 6 1 6 5 9 5v2l3 1-1 6-1 2-5 1-21-3-33-3-10-6v-2h-2v-2l-4-2-3-3v-2l-4-2-2-3v-5l8 1-7-13-7-14-1-4v-18z" fill="#26542E"/>
<path transform="translate(707,448)" d="m0 0 4 1h2l8-1-5 4-4 2v2h-2l-1 2-6 4-3 4h-2l-1 4-14 12-9 9-2 3h-4l-1 3-5 5-10 14-4 6-2-1 2-7 3-7 4-6v-3l4-7 9-7 2-3h2l2-4 11-12 9-5 5-5z" fill="#060406"/>
<path transform="translate(776,653)" d="m0 0 2 4 1 5 3-1 1 7-1 3 6 2 4 4 6 11 9 9 5 3 2 5h4l3-1-4-1h10l21 4v2l3-1 5 1 2-2h6v1l-5 1-5 5-9 2-22-4-10-1-5-5-2-4v-4l-12-1-4-4-10-17-6-10-1-6z" fill="#080808"/>
<path transform="translate(499,226)" d="m0 0 2 1-4 4v2l7-1v2l4 2-1 3 3 1h-3v2h5l5-1 8 2v1l-28 7-24 8-7 3h-3v2l-6 1 2-5 10-10 11-9 14-11z" fill="#2D6935"/>
<path transform="translate(700,439)" d="m0 0 6 2-1 4v3l-7 5h-2v2l-5 4h-2v2l-7 4-8 11-5 5h-2v2h-2l-2 4-4 2-2 4-3 1h-4l-4 7-1-3 3-6-1-6h3l-1-3h2l-1-4 2-2 4-1 1-2 8-2 3-5 4-2v-3l4-2v-2h2l1-3 4-1 4-3 5-5 1-5 2 2h3z" fill="#050405"/>
<path transform="translate(834,622)" d="m0 0 8 1h4v5l-1 1 6 5 6 9 1 5-4 6-5 4-3 1h-10l-5-5-4-9 3-7 6-6h2l2-4 3-1-8-3z" fill="#FCEB63"/>
<path transform="translate(810,646)" d="m0 0 4 1-10 3-1 3 3-1-1 6-1 3v12l1 5 4-5 6-9 1 2-6 12-3 10-3 3-5-1-6-9-10-18v-5l7-6 10-4z" fill="#FDFCFC"/>
<path transform="translate(1109,717)" d="m0 0 10 4 11 4 16 7 2 4-2 6-3 1-2-2-6-1h-19l-3-1-3-5v-3l-5-2-7-4 1-2 3-1 2-3z" fill="#121313"/>
<path transform="translate(602,997)" d="m0 0 7 1 6 5 6 3 9 6 10 6 15 8 11 5 12 6 7 4 1 5-6 4h-9l-21-6-29-6-4-3v-3h-2v-2l-5-2-4-6-5-10-1-9zm1 2-1 1v7h2l1 6h2l1 4 3 5 6 7 5 6 9 3 23 4 18 6h4l4-5v-2l-7-4-9-3-8-3-9-5-5-3-1-2-9-5-10-7-5-2-6-4h-2v-2l-3-2z" fill="#26542E"/>
<path transform="translate(830,1141)" d="m0 0 11 1 4-1h17l7 2 6-1h10l-3 3-10 4-16 3-18 1-14-1-9-3-4-3-5-2v-1z" fill="#26542E"/>
<path transform="translate(1075,661)" d="m0 0h2l1 6v29l-3 15-5 10-4 9-6 4-3 3-2-4 1-3h2v-4h2l1-8 4-11 4-16 1-13 1-1 1-8-1-3z" fill="#050405"/>
<path transform="translate(499,1024)" d="m0 0 6 2 15 1 7 3 1 4-1 5 5 5 9 7 2 3 3 19 6 16 1 7-3 1-14-7-9-4-19-8-4-3-4-2v-2l-4-1-13-9-6-4v-4l9-4 5-1h3v2l-7 1-3 1 2 6 3 3 2 1v2l6 2 6 4 16 8 16 9 7 3h3v-9l-3-7-2-16-4-7-7-3v-3l-4-2-3-3-1-10-15-1-7-3z" fill="#26542E"/>
<path transform="translate(645,944)" d="m0 0 7 1 1 2 8 4v2l9 3 7 2v2h4l1 4h6l4 3 1 5-4 1h-12l-16-6-10-8-5-5-3-4 1-5z" fill="#35763F"/>
<path transform="translate(804,1848)" d="m0 0h12v44h-18l2-3 1-5h-5v-1l7-1z" fill="#0C150E"/>
<path transform="translate(657,290)" d="m0 0 60 1 9 1h13v1l-20 2-114 2-6-1 4-2 8-2 12-1z" fill="#2E6736"/>
<path transform="translate(909,1847)" d="m0 0 4 1 1 1 1 42-1 1h-9l-6-7v-3h2l1-34z" fill="#111411"/>
<path transform="translate(1066,1847)" d="m0 0h11l1 1v14l-1 30-1 1-9-1-1-1z" fill="#111312"/>
<path transform="translate(941,1131)" d="m0 0h2v3l3 1v2l2 1-1 6-10 9-17 12-6 4-9-1-12 7-9 5-4 1 5-5 18-11 16-11 11-8 7-5 1-3h2z" fill="#100811"/>
<path transform="translate(532,935)" d="m0 0h6l10 7 10 10 8 12 4 8-2 2-4-1v-2l-5-2-7-5-18-18-1-7h-2z" fill="#2D6A35"/>
<path transform="translate(1081,924)" d="m0 0h13l-3 5-21 18-2-1 12-11 5-6v-2h-6l-4 2h-8l-17 5-16 7-4 2-2 5-6 1-2 4h-2v3l-5 2-5 1-1 2-11 3-16 7-12 3-6 1 3-2 26-11 16-9 28-15 16-7 21-6z" fill="#2D6A35"/>
<path transform="translate(900,244)" d="m0 0h4l1 7h-2v3l-2 1-1 7h2l7 8 10 8 9 6 12 5 9 1 72 1v1l-41 1 51 1v1h-71l-16-2-15-6-13-8-16-15-7-7-5-8 1-2z" fill="#26542E"/>
<path transform="translate(1212,983)" d="m0 0h2l-2 5-2 1-1 3h-2l-2 4h-2l-2 5-4 4-1 2h-3l-1 4h-2v3l-5 4-3 5-4 4-2 4h-2l-2 5h-2l-1 5h-2l-2 5-5 3-1 2h-2l-1 5-7 2-1 6v3l-3 5v5l1 2 3 1 2-4 4-4 4-1-1 4 6-2-3 3-16 7h-3l-1-6 3-10 4-10 5-8 2-3h2l2-5h2l2-4 3-3h3l1-4 2-3h2v-2h2l2-5h2v-2h2v-2h2v-2h2v-2h2l2-5h2v-2h2v-2l5-5 1-2h2v-2l4-4h2v-3h2z" fill="#2E6B36"/>
<path transform="translate(464,955)" d="m0 0 7 1 23 11 3 1-1 10-2 10-4-1-11-11-11-14-4-6z" fill="#26542E"/>
<path transform="translate(842,684)" d="m0 0 2 2 6 12 2 2v5l-4 2-11-1-20-4-3-3v-5l9-3 21 3z" fill="#FDFDFD"/>
<path transform="translate(586,904)" d="m0 0 4 1 6 1h3l7 3 1 3 6 1 1 6h2l1 4h2v3h2l1 6-1 3-5-1-10-8-14-12-6-6z" fill="#35763F"/>
<path transform="translate(949,290)" d="m0 0h73l36 1h11v2h8l17 4 3 2-8-1-7-1-51-2-51-1-2-2-29-1z" fill="#2F6D38"/>
<path transform="translate(1062,1046)" d="m0 0 5 1-1 2-23 4-22 5-7 4h-3v2l-13 6-4-1-2-6v-5l-22 6h-5l2-3 16-4 6-2h5l2 6 5 1 10-5 11-4 18-3 17-3z" fill="#26542E"/>
<path transform="translate(519,1338)" d="m0 0h169l4 2-298 1-1 1-1 20h-1v-23z" fill="#FDFDFD"/>
<path transform="translate(1097,999)" d="m0 0h6l-1 4-9 11-10 11-6 10-2 2-4-1-2-1 2-4 2-3v-10l9-7 14-11z" fill="#FDFDFD"/>
<path transform="translate(1164,957)" d="m0 0 4 1-5 5-1 3-4 3h-2v2h-2l-1 4h-3l-1 2-1-1-2 3h-3l-2 4-2 1-1 3-5 5-4 5h-3l-1 8-2 1-2 5-2 3-1 4-4 2h-3v2l-5 4-6 1v2l-4 1v2l-2-1 6-8h2l2-5h2l1-3 6-5 3-3 3-5 5-4 9-11 15-15h2l2-4 6-4z" fill="#2E6B36"/>
<path transform="translate(1308,809)" d="m0 0h1v26l-2 9-3 1-2 4-12 12-1-3 10-28z" fill="#FDFDFD"/>
<path transform="translate(901,631)" d="m0 0h1v31l-2 3-4 1-16-2-18-6 1-6 2-5 1 2 1 7 13-1 19-4 1-2z" fill="#FDFDFD"/>
<path transform="translate(1315,871)" d="m0 0 6 3 7 1-1 7-3 8-5-1-2-2-3 1v3l-4-1-1-2v3l-6 1-2 5-3-2-2-4 4-3v-3l-2-1 1-3h2v-2h4v-4l5-1 2 4 4 1v-4z" fill="#2E6B36"/>
<path transform="translate(1308,856)" d="m0 0h2l3 9-1 3-1 2-3-1-4 1v2l-4 2-7 4-3 5h-2v3h-2l-2 5-3 1-2 6-2 1 1 3-3 2v3l-4 4h-2l1 3-3 1-1 3h-2l1 4h-2l-1 5-4 1-1 3-3 1 1 3-1 3-10 10-2-1 8-12h2l1-4 7-10 1-2h2l2-5 5-7 2-5 13-17 14-18 4-5 3-3z" fill="#2C6634"/>
<path transform="translate(693,1060)" d="m0 0 10 1 9 3 8 2 10 3 4 5v47l-6-1-6-4-7-6-5-6 2-1v2l4 2 8 7 5 2h2l-1-6 1-17v-14l-1-5 1-2-9-2-11-3-9-3h-7l-2 8-8 1-4-1v-2l-4-1-3-4 4 1 4 3 6 1 3-4z" fill="#2E6B36"/>
<path transform="translate(748,886)" d="m0 0 6 1 3 3 1 9-5 16-4 14-4 1-2-10v-6l4-8 1-5 2-7h-4l1-7z" fill="#171817"/>
<path transform="translate(944,1148)" d="m0 0 2 1-4 8-2 6-5 5-5 3-5 5-7 2-7 1-1 3 9 1v1h-14v-5l5-4 1-2 11-6h2v-2l9-7z" fill="#2E6B36"/>
<path transform="translate(703,551)" d="m0 0 1 3-8 13-7 15-3 10-3 11-2 24h3l3-9h1l-1 10-3 9-5-1-4-4v-8l5-24 7-21 11-21z" fill="#120A12"/>
<path transform="translate(1250,836)" d="m0 0h1l1 11 2 16-3 3h-7l-4-4h-5l-3 3 2-6 5-8 8-13 2 3z" fill="#2D6835"/>
<path transform="translate(1032,661)" d="m0 0h7l3 1-1 8-3 10h-1l1-15h-6l-6 3-3 15-1 1-2 10-3 10-8 20-5 11h-2l9-27 10-35 3-9z" fill="#110812"/>
<path transform="translate(859,666)" d="m0 0 5 1 18 6 11 2 1 3-4 6-13 11-8 6-6-1-4-2 1-2 6-1 10-4 4-4 1-3-4-2 1-6-12-6-7-3zm25 13 1 2 1-2z" fill="#FAFBFA"/>
<path transform="translate(1079,926)" d="m0 0h6v4l-2 3h-2l-2 4-7 6v-3l3-4v-5l-7 1-7 3-4 2h-3l-1 2-3-1-1 2-5 2v1l-10 3h-3v-2l-2-1 16-8 11-4 11-3h8z" fill="#2E6B36"/>
<path transform="translate(611,908)" d="m0 0 4 2 16 13 11 7 11 8 14 9 15 9 21 9 13 5-3 1-23-8-13-6-11-7-10-6-7-3v-2l-5-2-6-4-13-12-9-7-5-4z" fill="#26542E"/>
<path transform="translate(1091,939)" d="m0 0h6l1 5-2 6-5-2v3l-6 1v3l-10 5-4 4-5 1v2l-9 6h-2l-1 5-1 3 6 1 1 2-9-2-2-1 1-5 4-4h2l2-4 14-10 5-5 5-4 4-5z" fill="#2E6B36"/>
<path transform="translate(1116,752)" d="m0 0h12v2h9l-2 12-2 3-2 8-2-1 1-7v-2l-6-2-10-4-1-5z" fill="#242825"/>
<path transform="translate(629,440)" d="m0 0 12 3 18 6 7 2v1l-11 1-3 4v2h-2l1 5-4-2-5-6v-2l-4-2-9-10z" fill="#323733"/>
<path transform="translate(969,300)" d="m0 0h31v1h53l8 1v2h-85l-23-1 2-2z" fill="#386940"/>
<path transform="translate(942,1020)" d="m0 0 2 3v16l-1 29 1 14 4 6v14l-3 2-2 10-1 16h-1v-94z" fill="#0F0710"/>
<path transform="translate(1010,484)" d="m0 0 4 2 4 1v2h2l4 5v2h2l6 8 5 8 5 5 2 8h-5l-7-10-10-14-8-8v-2l-4-2-1-3z" fill="#050405"/>
<path transform="translate(901,281)" d="m0 0 4 1 15 10 9 3 5 2-3 1-12-2v6l1 2-7-1-6-3-4-9z" fill="#FDFDFD"/>
<path transform="translate(776,653)" d="m0 0 2 4 1 5 3-1 1 7-1 3 6 2 4 4v8l-1 3 2 1v6l7 1v1h-6l-4-4-10-17-6-10-1-6z" fill="#130E13"/>
<path transform="translate(922,144)" d="m0 0 3 1v3l-5 5h-2v3l-8 1-1 4-5 2-3 2-2-1v2l-4 2-1 2h-3l-1 3-4 2-4 6-2-1 10-13 9-8 10-7z" fill="#2D6835"/>
<path transform="translate(456,962)" d="m0 0 4 2 9 10 32 32v2l4 2 1 3 4 2 3 3v4h-8l-7-1 1 3-5-2v-3l12-1-2-5-2-4-4-2-9-8-5-7-7-6-5-6-6-5-2-3-5-3-4-1z" fill="#26542E"/>
<path transform="translate(839,284)" d="m0 0h7l9 7 2 4-5 1-26-1v-2l11-8z" fill="#FDFCFB"/>
<path transform="translate(1103,1631)" d="m0 0h25l1 1v71l-1 16-2 3v-27l1-42v-19h-23v34h-1z" fill="#44784C"/>
<path transform="translate(1131,1056)" d="m0 0h2l1 4-5 13-2-1 2-7-7 2-4 4-15 7-8 4-5 1-1 2-7 3-3-1 16-8 12-8 14-9 7-5z" fill="#2E6B36"/>
<path transform="translate(619,913)" d="m0 0 5 2 11 8 8 4v2h2v2l16 8v2l5 2 17 10 4 1 1 2 5 2v2l4 1-3 1-14-6-13-8-24-16-10-7-13-10z" fill="#050405"/>
<path transform="translate(477,1459)" d="m0 0h26l2 2-1 76-1 7-2 1v-85l-23 1v11h-1z" fill="#619269"/>
<path transform="translate(565,900)" d="m0 0 4 2 18 18 4 3v2l-4-1-7-8-7-1-4 2 1 10 2 4-1 3-4-8v-2h-2l-1-4v-18z" fill="#2C6534"/>
<path transform="translate(664,684)" d="m0 0h2l4 13 2 9 8 24 7 11 6 5 5 2h13l4-1-1 3-7 3h-8l-9-3-2-4-5-5-7-13-5-17-2-4-2-10-2-5z" fill="#190913"/>
<path transform="translate(1034,1631)" d="m0 0h11l14 1 1 77 1 10h-2l-2-10-1-74-6-1h-13z" fill="#91B497"/>
<path transform="translate(434,1669)" d="m0 0h21l2 4h-2l-1-2-11 1-5 1-1 3h-2l1 4v72l3 1h-4l-1-2z" fill="#19271D"/>
<path transform="translate(722,1132)" d="m0 0 9 1 4 3v8h2l2 4 2 2-3 1-1-4-4-1-1-5-1-2h-2v-2h-11l-15 3-14 3h-6l-7-3 1-4 3 3 5 1 25-5z" fill="#2E6B36"/>
<path transform="translate(938,508)" d="m0 0 5 2 15 13 9 9 13 17 11 18 7 15 4 11v5l-2-3-5-14-8-15-2-2-4-8-3-3-5-9-5-4v-2l-2-1-1-3-2-1v-3l-3-1-6-7-11-9z" fill="#190C14"/>
<path transform="translate(604,800)" d="m0 0h2l-1 5-14 17-4 4-2 3v-3l-2-1v-6l-2-2 12-9 10-7z" fill="#464C48"/>
<path transform="translate(566,924)" d="m0 0 3 4 5 9 7 13-1 3-4 1v5l4 2 10 9 6 3 31 4 2 2h-11l-22-2-10-6v-2h-2v-2l-4-2-3-3v-2l-4-2-2-3v-5l8 1-7-13-6-11z" fill="#26542E"/>
<path transform="translate(692,329)" d="m0 0 2 1-4 6h-3l-1 3-6 1-2 4-14 7h-7l-4 1 4-4 15-9 17-9z" fill="#191B1A"/>
<path transform="translate(782,280)" d="m0 0 1 4-4 14-2 3-9 3-4-1 6-3h2l-2-7-17 5-3-1 13-5 11-6z" fill="#FBFBFB"/>
<path transform="translate(708,661)" d="m0 0h8l3 2 2 9-2-1-3-6-4-1-3 2-2 2v7l5 19 2 3 5 21v8h-1l-4-16-12-40-1-7z" fill="#130812"/>
<path transform="translate(603,999)" d="m0 0 4 1 2 1v2l6 2 3 3 5 2v3l-9-3v7l1 8-6-5-2-4v-3h-2l-1-6h-2v-7z" fill="#2E6B36"/>
<path transform="translate(1081,924)" d="m0 0h13l-3 5-21 18-2-1 12-11 5-6v-2h-6l-4 2h-8l-17 5-16 7-6 3-2-1 15-8 16-6 15-4z" fill="#26542E"/>
<path transform="translate(1012,1115)" d="m0 0h3l-1 3h-2l-1 3h-2v2l-7 4h-2v6l-4-1-8-5-1-3 8-4z" fill="#2E6B36"/>
<path transform="translate(940,1046)" d="m0 0h2v85l-2 7h-1v-88z" fill="#59805F"/>
<path transform="translate(657,290)" d="m0 0 60 1 4 2h-92l-20 1 2-2 12-1z" fill="#26542E"/>
<path transform="translate(473,1690)" d="m0 0 9 1 5 4 3 8-1 49-2-1-1-48-3-8-3-2h-9l-6 4-3 6-2 7h-1l1-9 5-8 3-2z" fill="#6B9B73"/>
<path transform="translate(508,937)" d="m0 0 5 1 10 10v1l-12 1 1 7-2 8h-1l-3-16v-7z" fill="#2E6B36"/>
<path transform="translate(848,341)" d="m0 0h10l4 4-1 7-4 3-6 1-4-2z" fill="#363D37"/>
<path transform="translate(512,1029)" d="m0 0h9l1 5 2 7 5 4v3l5 1 5 5 2 4 2 16 3 7v9l-4 1-2-2 4-1 1-3-3-1-1-9v-3l-2-1v-10l-2-8-5-1-5-3-2-1-2-5-4-4-2-7h-3v-2z" fill="#2E6B36"/>
<path transform="translate(769,909)" d="m0 0 8 1 8 3 1 5-1 1 2 1-1 4-10-3-9-2z" fill="#161817"/>
<path transform="translate(1033,1632)" d="m0 0 2 4v73l2 12v6l-2-2-2-9-1-83z" fill="#647A68"/>
<path transform="translate(628,963)" d="m0 0h8v2l4 1 5 3 1 2 4 1v2l3 1-1 5h-12l-6-1 1-2h13v-2l-6-2v-2l-7-1-3-1-8-1-2-2-5-1v-1z" fill="#2E6B36"/>
<path transform="translate(900,244)" d="m0 0h4l1 7h-2v3l-2 1-1 7h2v2l-4-2-8-9-2-5 7-3z" fill="#2D6935"/>
<path transform="translate(1307,1673)" d="m0 0 3 1-1 9 1 69h12v1h-13l-2-1-1-46z" fill="#23492A"/>
<path transform="translate(741,1150)" d="m0 0 7 4 12 9 14 9 2 4 3 1-3 6h-4v-3h3l-3-6-7-3v-2l-5 1v-2l-4-1v-2l-4-1v-2h-2l-5-5-2-1v-3h-2z" fill="#2E6B36"/>
<path transform="translate(823,917)" d="m0 0h8l5 2 1 1-1 8-4 3h-6l-3-2-1-10z" fill="#323933"/>
<path transform="translate(1258,872)" d="m0 0 10 1 4 1-5 10-10 17-3 3 2-6 3-7 2-4-2-3 1-4-6-3 1-2h3z" fill="#2D6835"/>
<path transform="translate(955,1130)" d="m0 0 7 1 8 3 24 6 12 1-2-4-3-3 5 2 3 3-1 3-9 2h-6l-5-3-14-3-9-2h-12l-2 6h-1v-6l3-4h2z" fill="#2E6B36"/>
<path transform="translate(615,989)" d="m0 0h11l17 3 6 2-1 2-15-1v-2h-4v2l-3 1 8 8-6-1-10-7v-2l-3-1z" fill="#2E6B36"/>
<path transform="translate(916,352)" d="m0 0 8 1 3 1h9l3-2-2 4-3 2-5 1-1 5h2v6l-9-6-5-6-1-4z" fill="#434A44"/>
<path transform="translate(1093,741)" d="m0 0h7l4 3v8l-3 4-9-3-2-2v-6z" fill="#353A36"/>
<path transform="translate(650,1109)" d="m0 0h6l8 3 22 8 9 2 2 1-1 4h-3l-2-3-20-4-1-2-10-3-1-1-16-2 3-2z" fill="#2E6B36"/>
<path transform="translate(1113,1047)" d="m0 0 3 1-1 4-5 4-10 7-2-1 8-6v-2l-7 1-7 3-5 2h-3l-1 2-7 2-3 1-4-2-2-4h13l10-3 9-4 13-4z" fill="#2E6B36"/>
<path transform="translate(731 1e3)" d="m0 0h2l1 2 1 39-1 2-5 1-17-8v-3l4 2 7 4 6 1 2-7z" fill="#2E6B36"/>
<path transform="translate(752,127)" d="m0 0h3v3l17 8-3 2v-2l-4-1 1 5h-2v3l2 1-5-1-9-4 1-6-2-3z" fill="#171918"/>
<path transform="translate(1129,251)" d="m0 0 1 3-1 6 6 10 10 12 16 22 1 4h-2l-4-4v-2h-2l-5-9-6-9-3-4v-2h-2v-2h-2l-6-7v-3h-2l-2-5-4-2 3-1 2-5z" fill="#1B0B13"/>
<path transform="translate(658,1032)" d="m0 0 10 4 6 2 6 3-1 4-3 3-7-1-13-4 4-1h6l-2-4h-3l-2-2-2-1z" fill="#2E6B36"/>
<path transform="translate(1095,487)" d="m0 0 7 1 3 5 2 4-1 4h-6l-2-1v8l-2 8h-2l1-5v-13l-1-10z" fill="#565D58"/>
<path transform="translate(1006,952)" d="m0 0 3 1-17 9-10 5-23 9-10 3 1-4 14-6 8-1 7-3 12-5 3-3z" fill="#050405"/>
<path transform="translate(610,941)" d="m0 0 4 2 12 9-2 4-12 3h-4v2l10 1 5 1v1h-9l-10-2v-3l6-1v-2l6-4-2-4-2-5h-2z" fill="#26542E"/>
<path transform="translate(1205,240)" d="m0 0 7 6 9 9 4 6-4 1-14-5v-6l1-4-1-3h-2z" fill="#2C6534"/>
<path transform="translate(840,453)" d="m0 0h8v1l-12 3-5 5-1 2v7l5 5 16 8 13 7 7 8 2 4-1 3-6-10-11-7-11-5-6-2-8-6-3-5 1-8 3-5 7-4z" fill="#120812"/>
<path transform="translate(725,449)" d="m0 0 3 1-21 14-13 11-10 10h-2l-2 4h-2v2h-2v2h-2l-1 4-6 4 1-4 14-15 12-11 20-15z" fill="#FBD54E"/>
<path transform="translate(880,252)" d="m0 0h2l5 13 3 3 3 1 3 7-3 9v2l5-1-2 3h-2v2h-2l-9-29-3-7z" fill="#110A12"/>
<path transform="translate(553,1060)" d="m0 0 7 2 9 4 13 7v2l4 1 20 11 7 3-4 1-12-5-8-4-5-4-3-1v-2l-6-2-4-2v-2l-5-2-7-3-5-1 3 9v3l-3-4-2-10z" fill="#2E6B36"/>
<path transform="translate(763,930)" d="m0 0 18 4-4 2-4 1 1 4-1 2 7 1v2l-10-2-9-4z" fill="#303932"/>
<path transform="translate(1069,678)" d="m0 0h1l1 7-3 15-5 16-2 7-1 3h-2v4h-3l3-10 6-21 4-20z" fill="#1D0B13"/>
<path transform="translate(1049,291)" d="m0 0h20v2h8l17 4 3 2-8-1-7-1-51-2v-1l18-1z" fill="#2B6433"/>
<path transform="translate(623,805)" d="m0 0h2v2h2v2l9 2-4 2-23 8h-2l2-4h2l6-7z" fill="#2E322E"/>
<path transform="translate(646,661)" d="m0 0h8l5 2 3 8 3 10-4-2-1-7-4-7v-2l-9 1-1 8 5 17 3 13-1 4-10-35-1-9z" fill="#160D14"/>
<path transform="translate(506,931)" d="m0 0 6 4 26 26 7 6h-3l-13-12-6-5-7-8-5-4-3-1-1 5v9l3 14v4l3 1v4h-2l-3-7-3-15v-15z" fill="#27572F"/>
<path transform="translate(752,1881)" d="m0 0h11l2 1v9l-2 1h-10l-2-1v-9z" fill="#2B332C"/>
<path transform="translate(1042,1150)" d="m0 0h6l-3 2-15 3-23 3-5 2 3 3 2 1 1 6-11 4-4-1 9-4 1-4-4-2-1-4 2-2 9-2 28-4z" fill="#26542E"/>
<path transform="translate(1229,869)" d="m0 0 1 2-1 7-3 1-2 4-3 9v3l-3 1-6 9-6 7-5 5-2 1 2-5 8-10 9-15 8-14z" fill="#295D31"/>
<path transform="translate(663,732)" d="m0 0 3 3 5 8v2h2v2h2l4 4v2l5 2 8 4 13 3h8l10-2 5-3h2l2-4 3-4 2-8h1l-1 10-7 8-12 5h-15l-15-4-11-7-7-7-7-12z" fill="#110912"/>
<path transform="translate(911,861)" d="m0 0 4 1-10 4-21 5-13 2h-30v-1l35-3 16-3z" fill="#F7D04B"/>
<path transform="translate(1273,903)" d="m0 0 3 3-5 5h-2l1 3-3 1-1 3h-2l1 4h-2l-1 5-4 1-1 3-3 1 1 3-1 3-10 10-2-1 8-12h2l1-4 7-10 1-2h2l2-5z" fill="#2E6B36"/>
<path transform="translate(744,1042)" d="m0 0h1l1 96h-2l-1-29-1-3 1-6v-25-3z" fill="#47724E"/>
<path transform="translate(1043,1881)" d="m0 0h11l1 1v9l-1 1h-11l-1-1v-9z" fill="#282F2A"/>
<path transform="translate(928,1881)" d="m0 0h9v11l-1 1h-8l-3-2-1-8z" fill="#282D29"/>
<path transform="translate(990,594)" d="m0 0 3 3 4 14 3 15 1 2h-2v2l3 1-1 3 7-2-1-2-2-13v-10h1l4 21v5l-6 3-5-1-5-24-4-14z" fill="#120E14"/>
<path transform="translate(600,228)" d="m0 0h9v1l-27 4-20 4-22 3-7 2-4-1 16-4 24-5z" fill="#26542E"/>
<path transform="translate(561,741)" d="m0 0h2v2h-2l-1 7-1 1 9 1 2 1h9l9-3 3 1-18 6-7 2h-5l-5-8v-6z" fill="#616662"/>
<path transform="translate(1315,871)" d="m0 0 6 3 7 1-1 7-3 8-5-1-2-7-2-1 2-5z" fill="#31703B"/>
<path transform="translate(1123,682)" d="m0 0h5l1 1v8l-5 1-9-2-5-5 7-2z" fill="#6E736F"/>
<path transform="translate(851,163)" d="m0 0h2l2 6 3 2v2l4 2v3h2l1 3-4 4 4 14 2 3-4-1-12-36z" fill="#131015"/>
<path transform="translate(858,1504)" d="m0 0h1l2 56v15h-1l-1 5h-1z" fill="#1F3824"/>
<path transform="translate(464,1006)" d="m0 0 2 2 2 7-1 7 3 1-1 3 4 4 3 6-4-2-11-13-3-4v-5l3-1h3z" fill="#2C6634"/>
<path transform="translate(1035,1054)" d="m0 0h5l-4 2-7 2-9 3-12 6-5 4-8 1-4-4-1-8-7 2h-5l4-2 6-2h4l2 11 7-1 8-4h2v-2l10-5z" fill="#2E6B36"/>
<path transform="translate(1010,1517)" d="m0 0 2 2 1 6v53l1 2h-4z" fill="#607164"/>
<path transform="translate(581,493)" d="m0 0 10 3 2 4 1 1v2h6l-3 3h6v2l2 1-4 1-10-4-8-5-3-7z" fill="#0B0B0C"/>
<path transform="translate(738,127)" d="m0 0h7l6 3 3 6-2 4-5-2-8-3-2-4z" fill="#0F0710"/>
<path transform="translate(646,1501)" d="m0 0h1l1 32v47h-3z" fill="#EFF3EF"/>
<path transform="translate(977,131)" d="m0 0 19 1 15 2-4 1v2l-8 2-11-4-20-1-3-2z" fill="#2C6634"/>
<path transform="translate(793,288)" d="m0 0 3 4 3 3v2l4-1v2l-14 9-3-1 6-17z" fill="#FCEA6A"/>
<path transform="translate(1137,1529)" d="m0 0 2 1-4 1zm-4 2 2 1-5 5-6 11v19l2 4-3-1-3-9v-13l4-9z" fill="#618F69"/>
<path transform="translate(843,1526)" d="m0 0h1l1 5v14l-1 1h-59v5l-2-2v-4l8-1 53-1-1-7z" fill="#94B599"/>
<path transform="translate(440,209)" d="m0 0v3l-37 37-6 7-2-1 11-12 7-8 23-23z" fill="#616862"/>
<path transform="translate(1066,803)" d="m0 0 10 3 5 3 1 3-5 5-7-4-4-6z" fill="#48514A"/>
<path transform="translate(629,292)" d="m0 0h3v2l30 1v1l-57 1-6-1 4-2 6-1z" fill="#2B6334"/>
<path transform="translate(1134,913)" d="m0 0h2l-2 5-15 25-13 27-2 1 2-6 6-14 6-11 1-4h2l2-6 6-10h2v-3h2z" fill="#120812"/>
<path transform="translate(932,216)" d="m0 0 3 1-1 3h-3l-1 4-7 4 11 1v1l-16 2h-7l4-4z" fill="#2C6534"/>
<path transform="translate(1064,1472)" d="m0 0h25l-1 2h-10l-10 1-1 3-1 19-5 3h-9l-2-2 13-1z" fill="#4B7E53"/>
<path transform="translate(937,980)" d="m0 0 2 1 3 4v51l-1 10h-1l-1-62h-9v-2z" fill="#26542E"/>
<path transform="translate(1080,763)" d="m0 0 5 1 11 4 1 3h-6v3l-6 2-3-5-3-2z" fill="#1B1D1C"/>
<path transform="translate(828,443)" d="m0 0h2v2l-10 7-1 2h-2l-1 4-2 2v11l2 9 5 6 3 3h-3l-7-7-3-8v-11l3-7 4-6 8-6z" fill="#110812"/>
<path transform="translate(863,992)" d="m0 0 12 1v1l-10 1h-45l-10-1v-1z" fill="#8EB093"/>
<path transform="translate(601,495)" d="m0 0 1 2 3 1v4l3 1-1 4-4 1-4-1-3-1 3-2-8-2 1-2-2-2 3-1 6 2-1-3z" fill="#09090A"/>
<path transform="translate(1066,1831)" d="m0 0h11l1 4-1 6h-10l-1-1z" fill="#2C332E"/>
<path transform="translate(414,1670)" d="m0 0h2l1 82-1 1h-10v-1l8-1z" fill="#98B99D"/>
<path transform="translate(547,1533)" d="m0 0h1v47l-1 1h-25v-5l2 3h20l1-1z" fill="#FDFDFD"/>
<path transform="translate(1194,1511)" d="m0 0 2 2 3 10 1 38v18l-3 1v-50l-2-12z" fill="#4C8355"/>
<path transform="translate(1057,437)" d="m0 0 1 2-8 13-2 1-4-4-1-5 7-4z" fill="#4F5450"/>
<path transform="translate(492,260)" d="m0 0 4 1v2l6 1-12 4-5 6h-2l-1 3-4-5-2-1-1-4 3-1 2 4 5 2 2-5 1-2-8 1v-2h6v-2z" fill="#D9E4DB"/>
<path transform="translate(1074,154)" d="m0 0 4 1 11 5-4 2-21 1-7-1v-1l9-2 7-1z" fill="#2B6233"/>
<path transform="translate(670,864)" d="m0 0 3 1-3 10-2 4-7-3-2-4z" fill="#606A62"/>
<path transform="translate(785,865)" d="m0 0 8 1 18 3 25 2 4 2h-21l-26-4-8-2z" fill="#F6C847"/>
<path transform="translate(1080,791)" d="m0 0 14 2 1 4h2v2h4l1 3-6-1-22-7v-1z" fill="#3F4540"/>
<path transform="translate(1061,1517)" d="m0 0 5 3 1 45-2-2-1-4v-39l-14-1v-1z" fill="#93B598"/>
<path transform="translate(574,1051)" d="m0 0h8l16 4v1l-19-1 5 6v2l-5-2-6-4-2-3v-2z" fill="#2E6B36"/>
<path transform="translate(1071,249)" d="m0 0 7 6 15 13 12 12 1 3-5-2-1-2-3-2-2-2-4-5-14-12-5-4z" fill="#120812"/>
<path transform="translate(791,679)" d="m0 0h2l6 10 4 4 1 4-9-1-2-1-2-7-1-4 1-2z" fill="#060607"/>
<path transform="translate(895,1226)" d="m0 0h9l-4 4 2 2-1 1 5 1v1l-21 2h-12l4-2 5-2h5v-2l4 2 3 1h2v-3l-2-2 2-1z" fill="#313433"/>
<path transform="translate(1037,952)" d="m0 0 3 1-1 9v4l6-3 3 1-12 10h-3l1-9 4-11-3-1z" fill="#26542E"/>
<path transform="translate(1103,1631)" d="m0 0h25l1 1v14h-1l-1-12h-23v34h-1z" fill="#96B69B"/>
<path transform="translate(814,1190)" d="m0 0 7 1 5 5 1 4 6 1v3l-10-3-15-7 4-2h2z" fill="#344437"/>
<path transform="translate(812,524)" d="m0 0h7l10 3 7 1-1 2h-8l-3-2-5-1v2l-6 1 1 7 4 2-1 2-6-3-1-2 1-11z" fill="#130A12"/>
<path transform="translate(765,137)" d="m0 0 7 2 1 1v5l4 2v3l-6 1-6-4-1-5h2z" fill="#0D060E"/>
<path transform="translate(703,551)" d="m0 0 1 3-8 13-7 15-3 10-3 3-1-2 6-16 10-19z" fill="#1F0B14"/>
<path transform="translate(1011,1497)" d="m0 0h10l9 2v1h-16l-1-1v26h-1l-2-8v-19z" fill="#26542E"/>
<path transform="translate(668,1519)" d="m0 0 3 3 14 31 5 13-1 3-8-17-13-31z" fill="#E3EBE4"/>
<path transform="translate(684,1087)" d="m0 0 7 2v1h-7l4 7 5 7 1 4-2 2-10-1-2-2h8l-2-6-4-8z" fill="#2E6B36"/>
<path transform="translate(993,977)" d="m0 0h3v6h-2l-1 5-4 4 2 4 5 1-3 2-7 2v-7l5-12-4-1 6-2z" fill="#2E6B36"/>
<path transform="translate(514,1701)" d="m0 0 1 3-1 11-1 38-2-1v-43l2-7z" fill="#2B6034"/>
<path transform="translate(1016,948)" d="m0 0 2 1-10 6h-2v2l-23 11-17 7-4-1 29-12 16-9z" fill="#26542E"/>
<path transform="translate(891,917)" d="m0 0 3 3 6 13-4 2-6-1z" fill="#566358"/>
<path transform="translate(870,60)" d="m0 0 18 1 1 1 13 2-4 1-33-2-32-1v-1z" fill="#9EBCA2"/>
<path transform="translate(904,1226)" d="m0 0h7l1 3 4 1-2 3-4 1h-9l-2-2v-4z" fill="#0E070F"/>
<path transform="translate(744,979)" d="m0 0 7 1 4 3-4 1h-5l-1 56h-1l-1-59z" fill="#367840"/>
<path transform="translate(604,257)" d="m0 0 2 1-32 32-3 4-2-1 13-15 17-17z" fill="#364539"/>
<path transform="translate(732,190)" d="m0 0 71 1v1l-48 1h-17l-6-2z" fill="#285A30"/>
<path transform="translate(502,1008)" d="m0 0 4 3v2l4 2 3 3v4h-8l-7-1 1 3-5-2v-3l12-1-2-5-2-2z" fill="#25532D"/>
<path transform="translate(415,875)" d="m0 0 7 2h15l7-1-3 1-1 3-9 4h-2l-1-2-9-1-1-3h-2z" fill="#1A1718"/>
<path transform="translate(1120,1084)" d="m0 0v3l-6 8-3 6v7l-4 6h-3l2-3h2l-1-5v-7l3-6h2v-2z" fill="#2E6B36"/>
<path transform="translate(902,490)" d="m0 0 7 1 16 8 2 2-5-1-8-4-7-1-5 2 2 4-5-2-2-4 3-1z" fill="#150C13"/>
<path transform="translate(994,1100)" d="m0 0 2 4v2l9-2 15-3-1 2-5 2-9 2-7 3h-7v-2l-2-1z" fill="#2E6B36"/>
<path transform="translate(623,825)" d="m0 0h5l-3 5-11 8-4-2 2-1 1-6z" fill="#1D241E"/>
<path transform="translate(915,1704)" d="m0 0h2v2l-5 3-6 9-1 4v11l3 8 8 9h-3l-8-9-2-6v-16l3-7 4-5z" fill="#BED1C1"/>
<path transform="translate(415,1561)" d="m0 0 4 4 6 7 9 6 12 3 22 1v1l-18 1-12-2-12-6-8-8-3-5z" fill="#FDFDFD"/>
<path transform="translate(625,1498)" d="m0 0h23v35h-1l-1-32h-2-17z" fill="#2D5834"/>
<path transform="translate(950,1074)" d="m0 0h1l1 40 8 1 2 1-6 5h-5l-1-2z" fill="#2E6B36"/>
<path transform="translate(560,326)" d="m0 0h2l1 16 2 13 1 2v11l-5 6-2-1 4-4v-10l-3-16z" fill="#7F9A84"/>
<path transform="translate(557,1075)" d="m0 0 3 1 1 4h2l2 5 6 5 5 5 1 3-1 2v10l3 3-4-1-2-5v-9l-3-5-7-6-6-10z" fill="#2E6B36"/>
<path transform="translate(1085,970)" d="m0 0h2l-1 4-6 11 1 2 6 3-2 5h-2l-2 4-5 2 4-7 1-4-3-3 1-7 2-4h2z" fill="#2E6B36"/>
<path transform="translate(787,622)" d="m0 0 1 4-2 6v4l6 4 5 1-4 2-9 2-2-1v-8z" fill="#FDFDFD"/>
<path transform="translate(1051,237)" d="m0 0h11l7 2-5 5-4 1-10-6z" fill="#FDFDFD"/>
<path transform="translate(664,684)" d="m0 0h2l4 13 2 9 8 25-3-1-6-19-2-4-2-10-2-5z" fill="#1F0B14"/>
<path transform="translate(851,367)" d="m0 0 6 1 1 13-7-3-3-5 1-5z" fill="#0D120E"/>
<path transform="translate(1068,921)" d="m0 0h2v3h6l-4 2-24 7-9 3 1-2h2v-2l5-1 2-2 14-4 2-3z" fill="#050405"/>
<path transform="translate(1250,836)" d="m0 0h1v9l-2 5-6 1-4 4-1-2 9-15 2 3z" fill="#26542E"/>
<path transform="translate(1034,1498)" d="m0 0h2v35l-1 16h-1l-1-49z" fill="#387941"/>
<path transform="translate(496 1e3)" d="m0 0 6 4 4 5 1 4-1 1h-10l-1-5 1-2h2z" fill="#2E6B36"/>
<path transform="translate(1255,293)" d="m0 0h2l10 13 7 10 4 7 5 8-1 3-10-16-11-15-6-8z" fill="#120912"/>
<path transform="translate(473,1690)" d="m0 0 9 1 5 4 1 3v8l-2-3-3-8-3-2h-9l-6 4-3 6-2 7h-1l1-9 5-8 3-2z" fill="#FDFDFD"/>
<path transform="translate(942,1020)" d="m0 0 2 3v16l-1 29v10h-1l-1-5v-37z" fill="#110812"/>
<path transform="translate(938,855)" d="m0 0h2l-2 4-3 3-10 4-7 1v-3z" fill="#050405"/>
<path transform="translate(380,550)" d="m0 0h1l1 23 1 15-3 4-2-1 2-3-1-9v-28z" fill="#699770"/>
<path transform="translate(1308,1718)" d="m0 0h1l1 34h12v1h-13l-2-1v-33z" fill="#234A2A"/>
<path transform="translate(971,661)" d="m0 0h9l3 3-5 17h-1l1-9 1-5-2-2h-9l-3 4-2-1 2-5z" fill="#150F14"/>
<path transform="translate(879,145)" d="m0 0h2l1 14-2 7-9 12-3 2-5-10 1-3 3 6v2l5-3 6-7 1-2z" fill="#EFEFEF"/>
<path transform="translate(778,1230)" d="m0 0 1 2 13 1 5 1 3-1 2 4-18-1-11-1-2-2 7-1z" fill="#49514C"/>
<path transform="translate(712,742)" d="m0 0 1 2h3l-2 4-3 1h-13l-2-1v-2z" fill="#F9DE56"/>
<path transform="translate(1188,347)" d="m0 0 5 4 4 5 4 2 5 5 9 8 4 4-5-2-11-8-5-4-7-8v-2l-3-1z" fill="#160912"/>
<path transform="translate(256,1633)" d="m0 0 2 1-13 13h-2l-3 13v13l-2-4v-12l4-11 9-10z" fill="#AEB8B0"/>
<path transform="translate(778,661)" d="m0 0h4l1 7-1 3 6 2 2 1-1 5-6-2-6-9z" fill="#090709"/>
<path transform="translate(468,251)" d="m0 0 1 4v2l4 2-7 3h-3v2l-6 1 2-5z" fill="#26562E"/>
<path transform="translate(903,1192)" d="m0 0h13l1 1h19v1l-10 1h-34l1-2z" fill="#8DAE92"/>
<path transform="translate(853,1046)" d="m0 0 3 1-2 5-6 6-2 3-2-2h-5l-2 1-3-5 15-1 3-7z" fill="#FBC783"/>
<path transform="translate(858,707)" d="m0 0h6v1l-5 1-5 5-9 2-15-3v-1h11l5 1 2-1v-3l3-1 5 1z" fill="#131015"/>
<path transform="translate(1147,957)" d="m0 0m-1 1m-1 1m-1 1v3l-5 5h-2v2h-2v2l-14 10-5 3-3-1 11-7 14-12zm-33 25 2 1z" fill="#120C13"/>
<path transform="translate(619,1048)" d="m0 0 13 2 1 1 8 1 1 2-10-1h-12l1 5-5 2 1-5-1-6z" fill="#2E6B36"/>
<path transform="translate(1093,247)" d="m0 0 5 1 5 3v2l3-1 6 7 8 7 1 4-7-6-12-10-9-6z" fill="#190A13"/>
<path transform="translate(646,130)" d="m0 0h2v4l-9 1-6 2-5 2-3 3h-4l-1-3 22-8z" fill="#19251C"/>
<path transform="translate(1226,1702)" d="m0 0 3 1-9 7-6 9-2 7-2-2 2-9 6-8z" fill="#55855D"/>
<path transform="translate(1250,909)" d="m0 0v3l-12 17-3 4h-3l-2 5-3 1 1-4h2l1-4 5-5h2l2-6 5-4z" fill="#285C30"/>
<path transform="translate(804,696)" d="m0 0 5 2 5 5-1 2 4 2-1 4-5-1-5-8v-4h-6z" fill="#131014"/>
<path transform="translate(1126,1831)" d="m0 0 4 1v60l-4-1h2v-56z" fill="#FDFDFD"/>
<path transform="translate(774,1170)" d="m0 0 7 2 5 2 4 5 3 2 1 5h-21v-1l13-1 5-2-7-4-10-7z" fill="#050405"/>
<path transform="translate(1316,689)" d="m0 0 3 2-1 5v3l-3 1-1 5-2 3h2v-2l2 1v3l-4 2-3-4-2-1 4-3z" fill="#130912"/>
<path transform="translate(324,458)" d="m0 0v3l-6 9 1 17-3 3-2-1 2-3-1-8-1-7 4-7z" fill="#8EAF93"/>
<path transform="translate(804,1848)" d="m0 0h1v36l-4 8-3-1 2-2 1-5h-5v-1l7-1z" fill="#FDFDFD"/>
<path transform="translate(763,930)" d="m0 0 18 4-4 2-7 1-6 1-2-3z" fill="#3E3D3F"/>
<path transform="translate(687,461)" d="m0 0m-1 1m-2 1h2l-2 4-11 12-5 6-7 6h-2v-2l5-4 1-2h2v-2l8-7 4-6z" fill="#110812"/>
<path transform="translate(692,329)" d="m0 0 2 1-4 6h-3l-1 3-5 1-4-4z" fill="#222322"/>
<path transform="translate(804,144)" d="m0 0h1v19l7 10 4 3 3-3-1 6-2 2-8-9-5-8-1-10 1-9z" fill="#DCE2DD"/>
<path transform="translate(629,1015)" d="m0 0 5 2 7 4 1 2 15 9-4 2-4-4-6-2-6-5-1-2-6-3z" fill="#2E6B36"/>
<path transform="translate(1261,873)" d="m0 0h10l1 2-6 10-1-4h-2z" fill="#26552E"/>
<path transform="translate(605,145)" d="m0 0 2 1v2h-3l-3 4-3 3h-12l4-3z" fill="#1F3123"/>
<path transform="translate(753,1499)" d="m0 0h3l-3 10-10 21-1-4 7-15z" fill="#EBF1EC"/>
<path transform="translate(352,431)" d="m0 0h8l-4 2-7 1-2 4-16 16-2-1 8-8 9-11z" fill="#929893"/>
<path transform="translate(1244,345)" d="m0 0 7 6 7 7 7 6-4 2-5-5-2-4h-2v-3l-4-2v-2h-2z" fill="#200C14"/>
<path transform="translate(773,218)" d="m0 0 8 6 19 13 4 4-4-1-8-5v-2l-5-1-4-2v-2l-9-6z" fill="#110B13"/>
<path transform="translate(774,935)" d="m0 0h5v5h2l3 3-1 3h-3v-2l-7-1-1-6z" fill="#060407"/>
<path transform="translate(413,867)" d="m0 0 4 1 1 4 4 2 3 2 12 1v1h-15l-7-3-2-3z" fill="#EC9122"/>
<path transform="translate(495,1669)" d="m0 0 9 3 3 5v2l5-3h3l-3 3-3 5h-2l-2-4-3-3-1-3-6-3z" fill="#6F7972"/>
<path transform="translate(1293,875)" d="m0 0v3l-3 5h-2v3h-2l-2 5-3 1-2 6-2 1 1 3-7 3 2-4 12-16z" fill="#295D31"/>
<path transform="translate(959,680)" d="m0 0 2 1-6 21-3 12h-2l1 4-3 3-1-2z" fill="#190A13"/>
<path transform="translate(827,663)" d="m0 0 3 1-5 5-7 15-3 8-1-4 5-15 6-9z" fill="#FAFBFA"/>
<path transform="translate(841,270)" d="m0 0h2v2l-6 4-4 3-6 3-10 8-2-1 5-5 14-10z" fill="#160E15"/>
<path transform="translate(602,157)" d="m0 0 2 1v1l8 1 20 1-1 2h-37l5-5z" fill="#25502C"/>
<path transform="translate(580,1715)" d="m0 0 2 2-2 6v9l5 10 7 8h-3l-7-7-4-9-1-9 2-8z" fill="#FDFDFD"/>
<path transform="translate(706,1645)" d="m0 0h2v22h-2l-1 2-2-2 1-5 1-8z" fill="#719677"/>
<path transform="translate(742,1012)" d="m0 0 2 1 1 29-2 4-1-3-1-30z" fill="#1E3924"/>
<path transform="translate(956,1028)" d="m0 0h21v1l-17 1-4 3-3 9h-1v-13z" fill="#2E6B36"/>
<path transform="translate(898,394)" d="m0 0 14 3-4 2h-2l1 3-5 1-4-3-1-4z" fill="#2C302D"/>
<path transform="translate(1102,314)" d="m0 0 5 2 10 5-2 1-1 2 1 1 1 3-4-1-10-11z" fill="#FAF5B7"/>
<path transform="translate(761,223)" d="m0 0 4 2 6 5v2l-14-1v-3h2v-2h2z" fill="#2B6333"/>
<path transform="translate(772,139)" d="m0 0 5 2 9 6 1 2-5-1-1 2-3-2-1 3-2-5-2-1z" fill="#4D544E"/>
<path transform="translate(1211,296)" d="m0 0 4 4 12 18 2 4-5-2v-3l-2-1v-2l-6-6v-2h-2l-1-4-2-3z" fill="#1F0B14"/>
<path transform="translate(264,1658)" d="m0 0h1l2 9 2 4 21 9-3 1-12-4-8-5-4-8z" fill="#F0F4F1"/>
<path transform="translate(623,1497)" d="m0 0 2 4-1 28h-2v-31z" fill="#8EB093"/>
<path transform="translate(380,668)" d="m0 0h9l8 5 2 2-1 2h2l1 4-2 1-5-7-8-4h-7z" fill="#190F15"/>
<path transform="translate(858,441)" d="m0 0 7 1 4 2 1 7-3 6-6 1-7-2 4-1h5l4-4-1-5-5-3z" fill="#110812"/>
<path transform="translate(1228,1499)" d="m0 0h2v2h-3l-2 4-4 4h-2l-2 5-2 11h-1v-9l3-8 5-5z" fill="#9FB0A2"/>
<path transform="translate(798,1184)" d="m0 0 10 2 2 6h-5l-3-1h-4v-3l-2-1z" fill="#050405"/>
<path transform="translate(551,1026)" d="m0 0 1 3-2 3v2h16l1 1 11 1v1h-13l-6-1h-11l-3-1 2-5z" fill="#2E6B36"/>
<path transform="translate(710,694)" d="m0 0 3 1 4 14 2 9v8h-1l-4-16-4-13z" fill="#150912"/>
<path transform="translate(1137,1529)" d="m0 0 2 1-4 1zm-4 2 2 1-5 5-6 11-2-1v-5l8-9z" fill="#3F6E47"/>
<path transform="translate(583,892)" d="m0 0 11 1 8 6h-3l-6-1-1-2-10-1-8 1 1 2-5-2 1-2z" fill="#26542E"/>
<path transform="translate(1127,1688)" d="m0 0h2v15l-1 16-2 3v-27z" fill="#84A789"/>
<path transform="translate(434,1669)" d="m0 0h21l2 4h-2l-1-2-11 1-6 1-1 2h-2z" fill="#447C4D"/>
<path transform="translate(725,449)" d="m0 0 3 1-21 14-9 7-2-1 11-9z" fill="#F9D349"/>
<path transform="translate(1107,243)" d="m0 0 11 1 3 1-1 4-5 2-8-7z" fill="#FDF389"/>
<path transform="translate(1153,1645)" d="m0 0 4 1-1 24-4 2-6-1v-1l8-1z" fill="#84AA8A"/>
<path transform="translate(543,1498)" d="m0 0 3 3v2h6l5-4 2 1-7 6-3 5-5-4z" fill="#5B7E61"/>
<path transform="translate(553,992)" d="m0 0h11l5 1v2l6 1 6 4-3 1-4-2-6-2h-5l-3-3-7-1z" fill="#2E6B36"/>
<path transform="translate(1299,695)" d="m0 0h3l4 8-1 4-4 1-2-5z" fill="#130B12"/>
<path transform="translate(741,1042)" d="m0 0 2 1 1 3v26h-3l1-7v-8l-2-8z" fill="#110812"/>
<path transform="translate(609,1667)" d="m0 0h19l8 2-4 1-7-1-19 1h-5l3-2z" fill="#618567"/>
<path transform="translate(843,1526)" d="m0 0h1l1 5v14l-1 1h-15l-2-2 17-1-1-7z" fill="#EBF1EC"/>
<path transform="translate(776,1226)" d="m0 0h15l12 1v2h-12l-2 2h-5l4-4-10 2-2-1z" fill="#2A2F2C"/>
<path transform="translate(1158,1071)" d="m0 0 1 2-1 2 6-2-3 3-13 6-3-1 4-1 2-4 4-4z" fill="#2A6032"/>
<path transform="translate(937,980)" d="m0 0 2 1 3 4v25l-2 1-1-27h-9v-2z" fill="#295B31"/>
<path transform="translate(772,647)" d="m0 0h3l2 6-3 7 1 6 5 9-1 2-5-7-2-5v-7l1-7z" fill="#FBDF59"/>
<path transform="translate(1147,1062)" d="m0 0 2 4-3 3-1 8 2 4h-2v2h-3l-1-6 3-10z" fill="#2E6B36"/>
<path transform="translate(959,975)" d="m0 0 3 1-10 4h-2l2 7-1 2-1 22h-1v-32z" fill="#2A6032"/>
<path transform="translate(1016,792)" d="m0 0 2 1-7 8-15 15-3 1v-2l7-6 5-5 4-5h2l2-4z" fill="#F88213"/>
<path transform="translate(777,623)" d="m0 0 1 4-4 12 1 2-1 3 3-1v3l-5 1-2-4z" fill="#131015"/>
<path transform="translate(652,520)" d="m0 0v3l-9 15-3 6h-2l2-6 6-11 4-6z" fill="#F8D34E"/>
<path transform="translate(1320,488)" d="m0 0h2l6 10 7 14-4-2-8-14-2-3v-3l-2-1z" fill="#190B13"/>
<path transform="translate(905,222)" d="m0 0m-1 1v3l-13 10-7 5-1-3 14-10z" fill="#160912"/>
<path transform="translate(814,1848)" d="m0 0h2v44h-3l1-8z" fill="#FDFDFD"/>
<path transform="translate(1056,1098)" d="m0 0 3 1 1 7 3 3-6-1-6-4 3-5z" fill="#2E6B36"/>
<path transform="translate(686,1020)" d="m0 0 6 1v1l-5 1v6l-5 1-10-3-1-2 8 1 5-1z" fill="#2E6B36"/>
<path transform="translate(842,1009)" d="m0 0 7 1 5 7-1 2-4-2-3-1v-3l-4-1z" fill="#F99C3A"/>
<path transform="translate(1165,999)" d="m0 0h3l-2 4-13 10-1-3 3-4h3l2-4z" fill="#2E6B36"/>
<path transform="translate(489,971)" d="m0 0 4 5 1 4-2 4-4-1-2-4h2l-1-6z" fill="#2D6A35"/>
<path transform="translate(564,922)" d="m0 0 2 2 1 6-5 6h-3l-1-8h6z" fill="#0C060D"/>
<path transform="translate(588,481)" d="m0 0 5 2 11 7 3 4-3 2-5-2-1-5-10-7z" fill="#898E8A"/>
<path transform="translate(1066,167)" d="m0 0h9l4 2-3 3-3 1-6-1v-2l-3 1-2-3z" fill="#110812"/>
<path transform="translate(1366,1679)" d="m0 0 1 2-3 10-5 1-12-1v-1l15-2 2-7z" fill="#9CB8A0"/>
<path transform="translate(786,1140)" d="m0 0h14l5 2v1l-32-1v-1z" fill="#FE8912"/>
<path transform="translate(834,622)" d="m0 0 8 1h4v5l-1 1 3 2-1 2-9-1 2-4 3-1-8-3z" fill="#7B7E7D"/>
<path transform="translate(899,159)" d="m0 0 2 1-9 9-2 4-4 2-4 6-2-1 10-13z" fill="#295C31"/>
<path transform="translate(977,131)" d="m0 0 19 1v1l-8 1h-20l-3-2z" fill="#295F31"/>
<path transform="translate(930,132)" d="m0 0 2 2 4 3-10 3h-6l4-2-1-4 5-1z" fill="#0D060E"/>
<path transform="translate(621,1157)" d="m0 0 9 1 9 2v2h10l6 1v2l-17-2-17-5z" fill="#7FA284"/>
<path transform="translate(1093,1032)" d="m0 0 1 3-1 2 11-1-2 2-7 3-8 1 2-5z" fill="#2E6B36"/>
<path transform="translate(512,981)" d="m0 0 1 2-1 5 3 9 3 4-1 3-7-10-1-2v-8z" fill="#2E6B36"/>
<path transform="translate(610,941)" d="m0 0 4 2 4 5 3 3-2 4-5 2-4-1 6-4-2-4-2-5h-2z" fill="#2C6834"/>
<path transform="translate(1241,1514)" d="m0 0h9l4 1v2h-13l-1 5 1 2-5-2-1-2 3-4z" fill="#79987E"/>
<path transform="translate(551,951)" d="m0 0 7 1 1 5-5 3h-2l-2-7z" fill="#35773F"/>
<path transform="translate(827,801)" d="m0 0h27v1l-10 2-16-1z" fill="#131015"/>
<path transform="translate(864,588)" d="m0 0 5 1 11 9 9 6 2 2v5l-2-4-8-6-10-7-7-5z" fill="#FDFDFD"/>
<path transform="translate(767,278)" d="m0 0 2 1-8 6-10 5-3-1h2v-3l9-4 7-3z" fill="#295F31"/>
<path transform="translate(919,225)" d="m0 0 2 1-1 2 14 1v1l-16 2h-7l4-4z" fill="#295D32"/>
<path transform="translate(1403,1698)" d="m0 0 11 1 4 2-29 1 3-2z" fill="#ACC1B0"/>
<path transform="translate(1072,1026)" d="m0 0h2l-2 5-3 4 6 1 3-2 1 2-5 4-6-1v-2l-2-2v-3l4-3z" fill="#2F6838"/>
<path transform="translate(668,494)" d="m0 0 3 1-8 9-6 8-3 3v-3l8-11z" fill="#151517"/>
<path transform="translate(828,443)" d="m0 0h2v2l-10 7-1 2h-2l-1 4-4 3 2-5 4-6 8-6z" fill="#1F0B14"/>
<path transform="translate(592,403)" d="m0 0 1 2-7 9-5 5-3-1 4-5 4-6h2v-2z" fill="#09090A"/>
<path transform="translate(1039,301)" d="m0 0h14l8 1v2h-16l-7-1z" fill="#26542E"/>
<path transform="translate(632,238)" d="m0 0 4 1-5 3h-2l-1 5-6 3h-2l-1-3 12-8z" fill="#6F7270"/>
<path transform="translate(1e3 607)" d="m0 0h1l4 21v5l-5 2 2-5-2-13z" fill="#140B13"/>
<path transform="translate(715,1526)" d="m0 0h2l-3 9-4 8-1 4h-2l-4-7 1-3 2 3h3z" fill="#D7E1D9"/>
<path transform="translate(1037,952)" d="m0 0 3 1-1 9v4l6-3 3 1-3 3-8 2-1-4 2-11-3-1z" fill="#2A6032"/>
<path transform="translate(945,1138)" d="m0 0h3l-1 6-10 9-5 2 6-8 5-2 2-3-1-2z" fill="#050405"/>
<path transform="translate(556,1109)" d="m0 0 4 2 5 3 5 5 6 4v3l-14-10z" fill="#5C7260"/>
<path transform="translate(1229,869)" d="m0 0 1 2-1 7-3 1-2 4-6 9-1-2 9-16z" fill="#285C30"/>
<path transform="translate(620,1095)" d="m0 0 5 1 8 5-1 4-7 4-3-1 2-2 4-2h3l-1-3-10-4z" fill="#2E6B36"/>
<path transform="translate(1156,1025)" d="m0 0h2l1 3-6 5-5-1-1-2 4-3z" fill="#45794D"/>
<path transform="translate(555,907)" d="m0 0h1l2 12 1 9-1 8h-1l-2-14z" fill="#8EAF94"/>
<path transform="translate(1024,721)" d="m0 0 1 3-5 12-6 8-4 2 10-15z" fill="#110912"/>
<path transform="translate(934,1502)" d="m0 0 2 1-3 1-2 4-3 7-1 14h-1v-18l3-5z" fill="#D2E0D4"/>
<path transform="translate(582,499)" d="m0 0 5 2 7 4 3-1v2h6v2l2 1-4 1-10-4-8-5z" fill="#9BA09C"/>
<path transform="translate(604,156)" d="m0 0 11 2 2-2 2 3-1 2-14-1-1-2z" fill="#2E6A36"/>
<path transform="translate(758,1674)" d="m0 0 2 1-7 8-2 2h-3l-1 3-2-1 7-8z" fill="#96A398"/>
<path transform="translate(1124,1509)" d="m0 0 10 10 6 2v1h-6l-12-9z" fill="#A1BDA5"/>
<path transform="translate(744,1042)" d="m0 0h1v38l-2-1-1-6 1-4z" fill="#306C3A"/>
<path transform="translate(703,551)" d="m0 0 1 3-8 13-3 6h-2l2-6 7-12z" fill="#140812"/>
<path transform="translate(732,518)" d="m0 0h2l-2 4-10 9-5 6h-2l2-4z" fill="#110B12"/>
<path transform="translate(602,494)" d="m0 0 3 1h4l1 7-2 3-3-3-1-4-2-1z" fill="#272A29"/>
<path transform="translate(644,426)" d="m0 0 3 1 4 6-1 2-9-3-1-2z" fill="#595F5A"/>
<path transform="translate(895,1883)" d="m0 0h4l6 9h-10l2-7z" fill="#7E8880"/>
<path transform="translate(619,1752)" d="m0 0 3 1-7 3-11 1-7-3 3-1 7 1z" fill="#E6EEE8"/>
<path transform="translate(1011,1505)" d="m0 0h2v20h-1l-2-8v-11z" fill="#26542E"/>
<path transform="translate(937,1138)" d="m0 0 1 3-2 2-10-1v-1l-5-1v-1z" fill="#F68319"/>
<path transform="translate(744,979)" d="m0 0 7 1 4 3-4 1h-5l-1 6-2-3v-6z" fill="#2C5A34"/>
<path transform="translate(459,353)" d="m0 0h1l2 11 6 9h-3l-4-4-3-9z" fill="#150C13"/>
<path transform="translate(1162,255)" d="m0 0 5 1 3 6 4 2 2 4-5-2-6-5-1-5z" fill="#E89E21"/>
<path transform="translate(678,1847)" d="m0 0h18v1l-7 1-2 5-3-4-3 3-1-5z" fill="#EAF0EB"/>
<path transform="translate(415,1735)" d="m0 0h1l1 17-1 1h-10v-1l8-1v-15z" fill="#43814C"/>
<path transform="translate(1376,1710)" d="m0 0 2 1-5 10v11l1 7-2-2-2-8 1-9 4-9z" fill="#FDFDFD"/>
<path transform="translate(474,1667)" d="m0 0h17l4 2-8 1h-16z" fill="#A0BCA5"/>
<path transform="translate(799,1514)" d="m0 0h10l8 5 4 6-1 3-6-8-4-3-11-2z" fill="#FDFDFD"/>
<path transform="translate(1431,684)" d="m0 0 2 1v10l-2 20h-1v-21z" fill="#8BA890"/>
<path transform="translate(1063,139)" d="m0 0 10 3 7 3-4 2-15-6z" fill="#214026"/>
<path transform="translate(625,1717)" d="m0 0 5 1 2 1v8l-4 6-6 4-4-1 8-4 4-6v-6l-5-2z" fill="#F3F5F3"/>
<path transform="translate(514,1701)" d="m0 0 1 3-2 20-2-4v-11l2-7z" fill="#7CA182"/>
<path transform="translate(614,1080)" d="m0 0h9l1 3 6-1 2 1v-3l2 1-1 3-3 1-1 2-12-5z" fill="#2E6B36"/>
<path transform="translate(1241,948)" d="m0 0 1 3-4 7-6 5-1 2-2-1 3-5h2v-3h2l2-5z" fill="#2E6B36"/>
<path transform="translate(895,245)" d="m0 0h5l-2 2-4 2v8l-4-4-2-5z" fill="#25522D"/>
<path transform="translate(615,1684)" d="m0 0 5 1 3 3h-15v-2z" fill="#76967B"/>
<path transform="translate(934,1667)" d="m0 0h15v2l-18 1-3-2z" fill="#5B8061"/>
<path transform="translate(1221,886)" d="m0 0 1 4-2 3 1 2-3 1-3 4-2-1 3-7 3-3z" fill="#2C6734"/>
<path transform="translate(644,814)" d="m0 0h2l4 6-1 5-7 8-5 2 6-7 5-6z" fill="#F3F6F4"/>
<path transform="translate(1112,802)" d="m0 0 7 1-3 5-3 1-3-3-3-2z" fill="#383C39"/>
<path transform="translate(715,387)" d="m0 0 5 5 10 13-2 2-4-5v-2l-2-1-1-3-2-1-3-4-2-3z" fill="#295B32"/>
<path transform="translate(482,335)" d="m0 0 9 3 8 7 1 4-2 1-5-8-8-4-6-1z" fill="#181617"/>
<path transform="translate(560,326)" d="m0 0h2l1 16v11h-1l-2-10z" fill="#EEF3EF"/>
<path transform="translate(1011,135)" d="m0 0 11 1 8 2v1h-5l-1 2-9-3h-2v-2z" fill="#2A6032"/>
<path transform="translate(1178,1753)" d="m0 0h10l6 1-4 2h-12l-3-2z" fill="#738C77"/>
<path transform="translate(568,1493)" d="m0 0h7l6 2v1l-16 1-3 1v-2z" fill="#A5B8A8"/>
<path transform="translate(904,1226)" d="m0 0h7l-2 5-3-1-1-2v3h-6v-3z" fill="#060406"/>
<path transform="translate(1024,992)" d="m0 0h19v1l-15 2-4 1h-6l4-3z" fill="#2E6B36"/>
<path transform="translate(818,870)" d="m0 0 18 1 4 2h-21z" fill="#F7D64E"/>
<path transform="translate(1080,791)" d="m0 0 5 1 2 3-1 2-9-2-3-2z" fill="#4E5250"/>
<path transform="translate(762,782)" d="m0 0 6 1 3 2-8 1v7h-2l-1-5z" fill="#120B13"/>
<path transform="translate(663,732)" d="m0 0 3 3 5 8v2h2v2h2l4 4-1 3-8-8-7-12z" fill="#150A13"/>
<path transform="translate(1227,1672)" d="m0 0 2 1-8 6-4 4h-2l-1 2 1-5 6-5z" fill="#5A7A60"/>
<path transform="translate(1034,1631)" d="m0 0h11l12 2-1 2-6-1h-13z" fill="#6D9674"/>
<path transform="translate(723,1507)" d="m0 0h1v7l-6 11-2-2z" fill="#709C76"/>
<path transform="translate(656,1094)" d="m0 0 5 2 3 3 4 1v2l6 2-4 1-10-5z" fill="#2E6B36"/>
<path transform="translate(1329,673)" d="m0 0 1 4v8l2 6v5h-2l-2-7v-14z" fill="#D8E0D6"/>
<path transform="translate(397,399)" d="m0 0 5 5 11 13 1 4-5-5-10-12z" fill="#F8F9F8"/>
<path transform="translate(1179,270)" d="m0 0 4 2 7 9 2 1 2 6-6-5-9-12z" fill="#110812"/>
<path transform="translate(1173,1644)" d="m0 0h6l1 2v15l-2-1-1-15z" fill="#A9C1AD"/>
<path transform="translate(1070,1147)" d="m0 0 3 1 1 4 4-1 2 2-13 3 1-6h3z" fill="#445347"/>
<path transform="translate(1115,753)" d="m0 0 5 1 1 5-6 1-2-1 1-5z" fill="#0B090C"/>
<path transform="translate(979,662)" d="m0 0 4 1-5 18h-1l1-9 1-5-1-3z" fill="#110812"/>
<path transform="translate(778,661)" d="m0 0h4l1 7-3 4-3-4z" fill="#050405"/>
<path transform="translate(876,61)" d="m0 0h12l1 1 13 2-4 1-22-2z" fill="#648F6A"/>
<path transform="translate(469,1670)" d="m0 0 2 1-8 9-3 1 1-3-2-1 1-3 6-1z" fill="#A1B1A3"/>
<path transform="translate(1011,1554)" d="m0 0h1l1 24 1 2h-4z" fill="#779F7D"/>
<path transform="translate(859,1498)" d="m0 0h21l1 4-8-1-14-1z" fill="#396140"/>
<path transform="translate(607,1132)" d="m0 0h2l-2 5v3l-4-1-2-3 2-3z" fill="#2E6B36"/>
<path transform="translate(434,773)" d="m0 0 5 1 16 6-4 1-15-5h-5z" fill="#ABC2AF"/>
<path transform="translate(1106,697)" d="m0 0 10 3 2 1v2h-9l-2-1z" fill="#858D87"/>
<path transform="translate(565,661)" d="m0 0 9 1 4 3h-17l1-3z" fill="#94A296"/>
<path transform="translate(899,606)" d="m0 0 1 4 1 5 8 4-4 1-8-4z" fill="#FDEB6F"/>
<path transform="translate(779,244)" d="m0 0h7l9 3-2 4v-4h-3l1 3-3-1-5-3z" fill="#295E31"/>
<path transform="translate(646,130)" d="m0 0h2v4l-9 1-4 1-2-2z" fill="#3B5D41"/>
<path transform="translate(864,97)" d="m0 0h10l6 2v1h-14l-4-2z" fill="#171F1B"/>
<path transform="translate(970,1675)" d="m0 0 7 6 3 6-1 3-3-3-3-6v-2l-3-1z" fill="#67936E"/>
<path transform="translate(1054,1022)" d="m0 0h3v5l-9 6-4-1 6-4 5-2z" fill="#2E6B36"/>
<path transform="translate(1164,940)" d="m0 0h2l-2 4-3 1 2-4zm-4 5m-1 1 1 2-2-1zm-2 2m-1 1m-1 1m-1 1m-1 1m-1 1 1 2-5 5h-3l5-6z" fill="#1F1316"/>
<path transform="translate(1258,872)" d="m0 0 4 2 1 7-9-4 1-2h3z" fill="#2E6A36"/>
<path transform="translate(1250,810)" d="m0 0h1l-1 14h-4l1-6z" fill="#FDF7B7"/>
<path transform="translate(1091,814)" d="m0 0 6 1 8 2v2l-7-1-3-1-5 3h-2l2-5z" fill="#9FB2A2"/>
<path transform="translate(696,327)" d="m0 0h3l-2 4-3 3h-2l1-4zm-5 7m-1 1m-3 1h3l-1 4-2-1z" fill="#0B0A0C"/>
<path transform="translate(1102,294)" d="m0 0 5 4 3 5h-6l-7-3v-1l8 1-3-4z" fill="#26552E"/>
<path transform="translate(492,260)" d="m0 0 2 4-6 3v-2l-8 1v-2h6v-2z" fill="#68956F"/>
<path transform="translate(774,1505)" d="m0 0 2 1-8 9-4 7-2-2 6-9z" fill="#DBE6DD"/>
<path transform="translate(937,1226)" d="m0 0h3l-1 4-2 1h-6l-2-3z" fill="#18141A"/>
<path transform="translate(1066,1048)" d="m0 0h2v5l-4 5-1-5-3-4z" fill="#2E6B36"/>
<path transform="translate(659,895)" d="m0 0 1 3 1 6 6 5 3-1-1 4-5-2-7-7z" fill="#FDFDFD"/>
<path transform="translate(1322,875)" d="m0 0h6l-1 7-3 1-1 2 1-6h-2z" fill="#2D6736"/>
<path transform="translate(750,505)" d="m0 0v3l-11 8-4 2 2-4z" fill="#140812"/>
<path transform="translate(777,1848)" d="m0 0h7l-4 2-1 1-1 23h-1z" fill="#1A2B1E"/>
<path transform="translate(711,1730)" d="m0 0 14 1 3 3-1 2-3-2-11-2z" fill="#B4C3B6"/>
<path transform="translate(778,1667)" d="m0 0h13l8 2v1h-11l-10-2z" fill="#76917B"/>
<path transform="translate(858,1564)" d="m0 0h3v11h-1l-1 5h-1z" fill="#26552E"/>
<path transform="translate(667,985)" d="m0 0h13v1l-11 2-3 1v8h-1v-10z" fill="#2E6B36"/>
<path transform="translate(1189,928)" d="m0 0v3l-4 6h-2v2h-2l-2 4-1-3z" fill="#295D31"/>
<path transform="translate(1236,926)" d="m0 0h2l-1 4-2 3h-3l-2 5-3 1 1-4h2l1-4z" fill="#2C6734"/>
<path transform="translate(347,823)" d="m0 0 2 1-2 2h-3l-3 10-1 9h-1v-10l2-8z" fill="#C8D8CB"/>
<path transform="translate(623,825)" d="m0 0h5l-3 5-3 1v-3l-5 2-4-1z" fill="#8C9F90"/>
<path transform="translate(1188,598)" d="m0 0h1l1 8v9h-2l-2-13h2z" fill="#3F4941"/>
<path transform="translate(1015,400)" d="m0 0 6 1-1 2-5 3-4 5-2-1z" fill="#7C887E"/>
<path transform="translate(995,385)" d="m0 0 5 2 4 3v3l-5-1-4-4z" fill="#545E56"/>
<path transform="translate(393,379)" d="m0 0 1 3v8l3 9-4-4-2-4 1-10z" fill="#FDFDFD"/>
<path transform="translate(604,257)" d="m0 0 2 1-12 12-3-1 8-8z" fill="#405143"/>
<path transform="translate(857,1867)" d="m0 0 6 3 2 4v9l-2 2v-8l-3-6-3-2z" fill="#F6F8F6"/>
<path transform="translate(593,1702)" d="m0 0 3 1h-2v2l-5 2v2l-3 1-1 3-4 2 2-5z" fill="#789E7E"/>
<path transform="translate(689,1356)" d="m0 0h1v23l-4-1 2-5z" fill="#110812"/>
<path transform="translate(1222,971)" d="m0 0h2l-1 4-2 2-5 6h-2l1-4z" fill="#2E6B36"/>
<path transform="translate(769,909)" d="m0 0 7 1v2l-6 1 1 6h-4z" fill="#99A29A"/>
<path transform="translate(561,741)" d="m0 0h2v2h-2l-1 7-4 1v-6z" fill="#7B817C"/>
<path transform="translate(562,504)" d="m0 0 5 2 8 5-1 2-6-2-5-5z" fill="#657969"/>
<path transform="translate(1266,508)" d="m0 0 5 2 1 3-1 2-1 4-5-8z" fill="#332E35"/>
<path transform="translate(920,118)" d="m0 0 4 1 4 3 4 8-3 1-4-7z" fill="#A8BFAC"/>
<path transform="translate(804,1881)" d="m0 0 1 3-4 8-3-1 2-2 1-5h-5v-1z" fill="#9AAB9D"/>
<path transform="translate(672,1847)" d="m0 0h5l-3 2-4 15h-1l1-12z" fill="#92AE96"/>
<path transform="translate(1381,1675)" d="m0 0h2l-2 4-4 4 1 4-3-1v-6z" fill="#8E9790"/>
<path transform="translate(334,1670)" d="m0 0h13v1l-11 1v9h-2l-1-9z" fill="#769F7C"/>
<path transform="translate(1199,1561)" d="m0 0h1v18l-3 1z" fill="#FDFDFD"/>
<path transform="translate(917,1498)" d="m0 0 3 1-1 8-2 6-2-1 1-3v-10z" fill="#809283"/>
<path transform="translate(909,866)" d="m0 0h8l-4 4h-8l-1-2z" fill="#050405"/>
<path transform="translate(847,707)" d="m0 0h1v7h-6l-1-3h2l1-3z" fill="#0B060C"/>
<path transform="translate(372,669)" d="m0 0h7v2l-6 3h-4l2-4z" fill="#0F0710"/>
<path transform="translate(775,491)" d="m0 0h7l3 3v5l-3 2 1-7-10-1z" fill="#1A0A13"/>
<path transform="translate(847,366)" d="m0 0h9v2l-7 1v7l-3-2v-6z" fill="#E4ECE6"/>
<path transform="translate(487,282)" d="m0 0h1l2 12v6l-2-3-3-11z" fill="#508358"/>
<path transform="translate(808,171)" d="m0 0 4 2 4 3 3-3-1 6-2 2-8-9z" fill="#FDFDFD"/>
<path transform="translate(816,113)" d="m0 0 2 1-12 12-2-1 9-10z" fill="#9BA49C"/>
<path transform="translate(524,1690)" d="m0 0h10l6 4v2l-8-4h-6l-4 1-1-2z" fill="#A7BBAA"/>
<path transform="translate(562,1518)" d="m0 0h8l5 3 3 5-1 4-4-7-5-3-6-1z" fill="#FDFDFD"/>
<path transform="translate(627,1459)" d="m0 0h3v2l-7 6-2 3v-6z" fill="#77877A"/>
<path transform="translate(991,1011)" d="m0 0 2 1-3 3-1 3h2l1 3h-3v-2l-4-1 1-4z" fill="#2E6B36"/>
<path transform="translate(1176,740)" d="m0 0 2 4-1 4-4 2-2-5h2v-2l2-1z" fill="#080B09"/>
<path transform="translate(1071,664)" d="m0 0 1 4 1 2-1 7-3 1 1-13z" fill="#110812"/>
<path transform="translate(865,641)" d="m0 0 7 1-5 5-3 1v-3z" fill="#58715D"/>
<path transform="translate(845,576)" d="m0 0 1 2h2v2h9l-3 3h-7l-2-4z" fill="#FAE65E"/>
<path transform="translate(794,367)" d="m0 0 10 1-3 2-8 2-1-4z" fill="#070707"/>
<path transform="translate(404,305)" d="m0 0 2 1-7 5-4 10-1-4 4-8z" fill="#D0DDD2"/>
<path transform="translate(842,139)" d="m0 0h2l3 12-2-1-1-4-4-1 1-5z" fill="#FDF6A8"/>
<path transform="translate(765,137)" d="m0 0 7 2 1 4h-8z" fill="#070708"/>
<path transform="translate(1108,1514)" d="m0 0h1v5h-17v-1l14-2z" fill="#487850"/>
<path transform="translate(660,1500)" d="m0 0h2l6 16-1 3-7-16z" fill="#FDFDFD"/>
<path transform="translate(742,1074)" d="m0 0 2 2v15l-2-3-2-11h2z" fill="#110812"/>
<path transform="translate(1163,1053)" d="m0 0 1 4-5 5-3-3 4-3h2z" fill="#2E6B36"/>
<path transform="translate(1087,1020)" d="m0 0 2 2-4 6-5 2 2-5z" fill="#27532F"/>
<path transform="translate(1130,970)" d="m0 0 2 1-8 7-6 4-2-1 10-8z" fill="#EF9C1E"/>
<path transform="translate(1261,888)" d="m0 0h2l-2 6-6 10-1-2 3-5 3-8z" fill="#295C31"/>
<path transform="translate(737,741)" d="m0 0h1l-1 10-7 8-1-2 6-8z" fill="#160B13"/>
<path transform="translate(636,546)" d="m0 0h2l-1 5-4 9h-2l1-6z" fill="#F8D04C"/>
<path transform="translate(324,458)" d="m0 0v3l-6 9-2 2-1-4z" fill="#FDFDFD"/>
<path transform="translate(1243,281)" d="m0 0 9 6 3 3-1 4-7-8-4-3z" fill="#250F15"/>
<path transform="translate(919,202)" d="m0 0h12l-1 3-4 2v-3h-7z" fill="#F5DE60"/>
<path transform="translate(617,140)" d="m0 0 3 1-2 2-2-1v2l-3 2-5 1-1-3z" fill="#324536"/>
<path transform="translate(615,1847)" d="m0 0h9l-2 8-2-4-2-1-2 2z" fill="#FDFDFD"/>
<path transform="translate(1239,1718)" d="m0 0 2 1-4 4-1 8-2-1-1-6 5-5z" fill="#759E7C"/>
<path transform="translate(486,1051)" d="m0 0v3l3 5 3 2v2l3 1-2 1-2-1v-2l-5-2-2-3v-5z" fill="#2E6B36"/>
<path transform="translate(459,1011)" d="m0 0 5 1-1 4-4 2-1-1v-5z" fill="#26542E"/>
<path transform="translate(1028,943)" d="m0 0 1 4-7 2-2-3z" fill="#2C6634"/>
<path transform="translate(579,913)" d="m0 0 7 6 5 4v2l-4-1-8-9z" fill="#285B30"/>
<path transform="translate(803,869)" d="m0 0h8l7 1v2h-8l-7-2z" fill="#F6CA45"/>
<path transform="translate(347,841)" d="m0 0h1l1 7v9l-3-4v-9z" fill="#507E58"/>
<path transform="translate(828,278)" d="m0 0m-1 1v3l-10 8-2-1 5-5z" fill="#130F14"/>
<path transform="translate(1012,1855)" d="m0 0h6l6 4 4 5-5-2-6-5-5-1z" fill="#FDFDFD"/>
<path transform="translate(968,1853)" d="m0 0 5 2 1 1v7h-1l-1-7h-10l3-2z" fill="#D2DFD4"/>
<path transform="translate(904,1737)" d="m0 0h2l6 9 4 5-4-2-7-8z" fill="#FDFDFD"/>
<path transform="translate(801,1723)" d="m0 0 7 1v1l-7 2-5 4-2-1z" fill="#F6F8F6"/>
<path transform="translate(1404,1685)" d="m0 0h9l6 3-2 1-13-2z" fill="#729D78"/>
<path transform="translate(827,1195)" d="m0 0h3l2 3-1 4-6-2z" fill="#060406"/>
<path transform="translate(853,1046)" d="m0 0 3 1-2 5-3 3-2-1 3-7z" fill="#FDA848"/>
<path transform="translate(549,973)" d="m0 0 5 4 4 4v2l-8 1 2-2 1-2-4-4z" fill="#2E6B36"/>
<path transform="translate(648,881)" d="m0 0 6 1 4 5-4 1-1-3-3-1 1-2-4 1z" fill="#607163"/>
<path transform="translate(1092,725)" d="m0 0h8l4 3h-11z" fill="#809C85"/>
<path transform="translate(550,682)" d="m0 0h1l-1 7-5 1-1-2h2l2-4z" fill="#374039"/>
<path transform="translate(539,666)" d="m0 0 4 2 1 5-2 7h-1z" fill="#B5C7B8"/>
<path transform="translate(784,666)" d="m0 0 4 4 1 4-7-3-1-3z" fill="#120F14"/>
<path transform="translate(722,429)" d="m0 0 6 1-5 4-3 1-2-1 1-3z" fill="#060406"/>
<path transform="translate(659,127)" d="m0 0 8 1-2 1v2h-5l-6-2v-1z" fill="#315738"/>
<path transform="translate(744,1689)" d="m0 0 2 1-3 10-3 2 2-9z" fill="#5E9066"/>
<path transform="translate(558,1675)" d="m0 0 5 5 2 6-1 4-6-12z" fill="#6D9A74"/>
<path transform="translate(495,1669)" d="m0 0 9 3 1 4-10-5z" fill="#7BA381"/>
<path transform="translate(434,1669)" d="m0 0h12v1l-7 1-3 4h-2z" fill="#7C9880"/>
<path transform="translate(477,1534)" d="m0 0h1l1 6-1 5h-2l-2 6-2-1 4-10z" fill="#C1D1C4"/>
<path transform="translate(677,1538)" d="m0 0 3 4 3 9-2 1-5-13z" fill="#EEF3EF"/>
<path transform="translate(826,922)" d="m0 0 4 2-2 4-5 1v-4z" fill="#100D11"/>
<path transform="translate(332,748)" d="m0 0 1 3-1 2-6 2-3-4 9-1z" fill="#A4ACA6"/>
<path transform="translate(635,746)" d="m0 0 3 1 4 9-4-2-3-4z" fill="#260D15"/>
<path transform="translate(1187,689)" d="m0 0h1v10l-1 3h-2v-7z" fill="#060706"/>
<path transform="translate(664,684)" d="m0 0h2l4 14-3-1-2-5z" fill="#260D15"/>
<path transform="translate(858,441)" d="m0 0 7 1 4 2 1 7-4-5-5-3z" fill="#321217"/>
<path transform="translate(1285,337)" d="m0 0h2l6 10-1 3-3-4-4-7z" fill="#110A13"/>
<path transform="translate(842,1853)" d="m0 0h5l5 5-9-2-4-1z" fill="#E4E5E4"/>
<path transform="translate(1308,1747)" d="m0 0h2v5h12v1h-13l-2-1z" fill="#285930"/>
<path transform="translate(765,1721)" d="m0 0 5 4 8 8-5-1-8-9z" fill="#F5F8F6"/>
<path transform="translate(1058,1703)" d="m0 0h1l2 16h-2l-1-2z" fill="#B8CBBB"/>
<path transform="translate(1263,1694)" d="m0 0h2v5h2l-2 4-8-1v-1l6-1z" fill="#66846B"/>
<path transform="translate(1089,1533)" d="m0 0h1l1 24-3-3z" fill="#DEE6DF"/>
<path transform="translate(642,1194)" d="m0 0 11 3-1 2-7-1-3-1z" fill="#33583A"/>
<path transform="translate(1142,1075)" d="m0 0 5 5-2 1v2h-3l-1-7z" fill="#2D6935"/>
<path transform="translate(466,1025)" d="m0 0 5 3 5 8-4-2-6-7z" fill="#295D31"/>
<path transform="translate(1104,971)" d="m0 0 1 2-3 8-1 7-2-1 1-9z" fill="#141316"/>
<path transform="translate(1165,777)" d="m0 0 1 3-4 10-1-3v-7l3-1z" fill="#848C85"/>
<path transform="translate(811,530)" d="m0 0h2l1 7 4 2-1 2-6-3-1-7z" fill="#1C0A13"/>
<path transform="translate(412,420)" d="m0 0h3l1 4h-7l-7-2 3-1 7 1z" fill="#5E7C63"/>
<path transform="translate(791,367)" d="m0 0 3 1v4l-2 5-2-2v-7z" fill="#18221B"/>
<path transform="translate(1297,360)" d="m0 0 3 1 4 9-1 3-2-2-4-9z" fill="#100A12"/>
<path transform="translate(661,292)" d="m0 0 11 2v1h-12l-4-2z" fill="#306E38"/>
<path transform="translate(1204,286)" d="m0 0 4 4 3 4v2h-3l-3-3z" fill="#160912"/>
<path transform="translate(1107,243)" d="m0 0h4l7 7h-4l-7-6z" fill="#FDFDFD"/>
<path transform="translate(741,1701)" d="m0 0 2 2-1 19h-1l-1-20z" fill="#274E2E"/>
<path transform="translate(820,1690)" d="m0 0 3 4 2 10-2 1-2-10z" fill="#749579"/>
<path transform="translate(725,1688)" d="m0 0h3v3h-19v-1l15-1z" fill="#FDFDFD"/>
<path transform="translate(911,1517)" d="m0 0h5v2l-6 1-11-1v-1z" fill="#FDFDFD"/>
<path transform="translate(1011,1497)" d="m0 0h10v1l-8 1-2 7h-1v-8z" fill="#387041"/>
<path transform="translate(1128,1098)" d="m0 0h1v10l-2 3v-2h-2l1-5h2z" fill="#8AA48F"/>
<path transform="translate(634 1e3)" d="m0 0 5 2v2l7 1v3l-5-2-5-3z" fill="#2E6B36"/>
<path transform="translate(984,863)" d="m0 0 2 1-1 1v9l-5-5 2-4z" fill="#DDE7DF"/>
<path transform="translate(1117,683)" d="m0 0 4 1h-2v5l-1-2-4 1-1-4z" fill="#295A31"/>
<path transform="translate(643,533)" d="m0 0h2l-2 5-3 6h-2l2-6z" fill="#F9D74D"/>
<path transform="translate(571,492)" d="m0 0 8 1 3 5h-3l-8-5z" fill="#A5AAA7"/>
<path transform="translate(728,383)" d="m0 0 6 1 1 7-3-1z" fill="#1A271E"/>
<path transform="translate(917,304)" d="m0 0h7l9 3-4 1-9-1z" fill="#6F8673"/>
<path transform="translate(581,296)" d="m0 0 2 1-1 2 4 1-7 3-2-3h2z" fill="#295C32"/>
<path transform="translate(742,133)" d="m0 0 6 1 3 3-1 2-9-3z" fill="#070407"/>
<path transform="translate(789,634)" d="m0 0" fill="#FDFDFD"/>
<path transform="translate(627,439)" d="m0 0" fill="#FDFDFD"/>
</svg>
